<?xml version="1.0" encoding="UTF-8" standalone="no"?>
<svg
   xmlns:dc="http://purl.org/dc/elements/1.1/"
   xmlns:cc="http://creativecommons.org/ns#"
   xmlns:rdf="http://www.w3.org/1999/02/22-rdf-syntax-ns#"
   xmlns:svg="http://www.w3.org/2000/svg"
   xmlns="http://www.w3.org/2000/svg"
   xmlns:sodipodi="http://sodipodi.sourceforge.net/DTD/sodipodi-0.dtd"
   xmlns:inkscape="http://www.inkscape.org/namespaces/inkscape"
   version="1.1"
   id="Layer_1"
   x="0px"
   y="0px"
   width="1400px"
   height="980px"
   viewBox="0 0 1400 980"
   enable-background="new 0 0 1400 980"
   xml:space="preserve"
   sodipodi:docname="innovation.svg"
   inkscape:version="1.0.1 (0767f8302a, 2020-10-17)"><metadata
   id="metadata1945"><rdf:RDF><cc:Work
       rdf:about=""><dc:format>image/svg+xml</dc:format><dc:type
         rdf:resource="http://purl.org/dc/dcmitype/StillImage" /><dc:title></dc:title></cc:Work></rdf:RDF></metadata><defs
   id="defs1943">
	
	
	
	
	
	
	
	
	
	
	
	
	
	
	
	
	
	
	
	
	
	
	
	
	
	
	
	
	
	
	
	
	
	
	
	
	
	
	
	
	
	
	
	
	
	
	
	
	
	
	
	
	
	
	
	
	
	
	
	
	
	
	
	
	
	
	
	
	
	
	
	

		
		
	
		
		
		
		
		
	
			
			
		
		
		
	
		
		
	
		
		
	
		
		
	
		
		
	
		
		
	</defs><sodipodi:namedview
   pagecolor="#ffffff"
   bordercolor="#666666"
   borderopacity="1"
   objecttolerance="10"
   gridtolerance="10"
   guidetolerance="10"
   inkscape:pageopacity="0"
   inkscape:pageshadow="2"
   inkscape:window-width="1200"
   inkscape:window-height="1788"
   id="namedview1941"
   showgrid="false"
   inkscape:zoom="0.41053452"
   inkscape:cx="708.76812"
   inkscape:cy="699.5272"
   inkscape:window-x="0"
   inkscape:window-y="27"
   inkscape:window-maximized="1"
   inkscape:current-layer="Layer_1" />
<g
   id="g1412">
		<g
   id="g1410">
			<rect
   fill="#ffffff"
   width="1400"
   height="980"
   id="rect1408"
   x="0"
   y="0" />
		</g>
	</g><path
   fill="#ffa99a"
   d="m 1045.4,708.3 c 0,22.4 -18.2,40.6 -40.6,40.6 H 395.2 c -22.4,0 -40.6,-18.2 -40.6,-40.6 V 295.2 c 0,-22.4 18.2,-40.6 40.6,-40.6 h 609.6 c 22.4,0 40.6,18.2 40.6,40.6 z"
   id="path1414"
   style="fill:#78c261;fill-opacity:1" /><path
   d="M 1004.8,750.6 H 395.2 c -23.3,0 -42.3,-19 -42.3,-42.3 V 295.2 c 0,-23.3 19,-42.3 42.3,-42.3 h 609.6 c 23.3,0 42.3,19 42.3,42.3 v 413.1 c 0,23.4 -19,42.3 -42.3,42.3 z M 395.2,256.2 c -21.5,0 -39,17.5 -39,39 v 413.1 c 0,21.5 17.5,39 39,39 h 609.6 c 21.5,0 39,-17.5 39,-39 V 295.2 c 0,-21.5 -17.5,-39 -39,-39 z"
   id="path1416" /><g
   id="g1424">
		<rect
   x="560.20001"
   y="300.79999"
   fill="#ffffff"
   width="442.10001"
   height="56.599998"
   id="rect1420" />
		<path
   d="m 1002.2,359 h -442 c -0.9,0 -1.6,-0.7 -1.6,-1.6 v -56.6 c 0,-0.9 0.7,-1.6 1.6,-1.6 h 442.1 c 0.9,0 1.6,0.7 1.6,1.6 v 56.6 c 0,0.9 -0.8,1.6 -1.7,1.6 z m -440.4,-3.3 h 438.8 V 302.4 H 561.8 Z"
   id="path1422" />
	</g><g
   id="g1436">
		<polygon
   fill="#231f20"
   points="586.2,321.6 581.1,336.4 575,317.3 574.9,316.7 571.8,316.7 579.6,341.4 579.8,341.9 582.3,341.9 587.4,327.3 592.5,341.9 595.1,341.9 603.2,316.7 600.1,316.7 593.8,336.5 588.6,321.6 "
   id="polygon1426" />
		<polygon
   fill="#231f20"
   points="628.5,321.6 623.4,336.4 617.4,317.3 617.2,316.7 614.1,316.7 621.9,341.4 622.1,341.9 624.7,341.9 629.7,327.3 634.9,341.9 637.4,341.9 645.5,316.7 642.4,316.7 636.1,336.5 630.9,321.6 "
   id="polygon1428" />
		<polygon
   fill="#231f20"
   points="670.8,321.6 665.7,336.4 659.7,317.3 659.5,316.7 656.4,316.7 664.2,341.4 664.4,341.9 667,341.9 672,327.3 677.2,341.9 679.7,341.9 687.8,316.7 684.7,316.7 678.4,336.5 673.2,321.6 "
   id="polygon1430" />
		<path
   fill="#231f20"
   d="m 705.3,336.4 c -0.8,0 -1.8,0.5 -1.8,2.9 0,2.4 1,2.9 1.8,2.9 0.8,0 1.8,-0.5 1.8,-2.9 0,-2.4 -1,-2.9 -1.8,-2.9 z"
   id="path1432" />
		<path
   fill="#231f20"
   d="m 705.3,324.2 c 0.8,0 1.8,-0.5 1.8,-2.9 0,-2.4 -1,-2.9 -1.8,-2.9 -0.8,0 -1.8,0.5 -1.8,2.9 0,2.4 1,2.9 1.8,2.9 z"
   id="path1434" />
	</g><g
   id="g1442">
		<rect
   x="397.89999"
   y="386.20001"
   fill="#ffffff"
   width="604.40002"
   height="316.60001"
   id="rect1438" />
		<path
   d="M 1002.2,704.4 H 397.9 c -0.9,0 -1.6,-0.7 -1.6,-1.6 V 386.2 c 0,-0.9 0.7,-1.6 1.6,-1.6 h 604.4 c 0.9,0 1.6,0.7 1.6,1.6 v 316.6 c 0,0.9 -0.8,1.6 -1.7,1.6 z m -602.7,-3.3 h 601.1 V 387.8 H 399.5 Z"
   id="path1440" />
	</g><g
   id="g1448">
		<rect
   x="178"
   y="692.40002"
   fill="#ffffff"
   width="493.70001"
   height="162.3"
   id="rect1444" />
		<path
   d="M 671.7,856.3 H 178 c -0.9,0 -1.6,-0.7 -1.6,-1.6 V 692.4 c 0,-0.9 0.7,-1.6 1.6,-1.6 h 493.7 c 0.9,0 1.6,0.7 1.6,1.6 v 162.3 c 0.1,0.9 -0.6,1.6 -1.6,1.6 z M 179.7,853 H 670.1 V 694 H 179.7 Z"
   id="path1446" />
	</g><g
   id="g1454">
		<rect
   x="197.3"
   y="713.29999"
   fill="#e6e7e8"
   width="28.700001"
   height="27.6"
   id="rect1450" />
		<path
   d="m 226,742.5 h -28.7 c -0.9,0 -1.6,-0.7 -1.6,-1.6 v -27.6 c 0,-0.9 0.7,-1.6 1.6,-1.6 H 226 c 0.9,0 1.6,0.7 1.6,1.6 v 27.6 c 0,0.9 -0.7,1.6 -1.6,1.6 z m -27.1,-3.2 h 25.4 V 715 h -25.4 z"
   id="path1452" />
	</g><g
   id="g1460">
		<rect
   x="244.7"
   y="713.29999"
   fill="#e6e7e8"
   width="28.700001"
   height="27.6"
   id="rect1456" />
		<path
   d="m 273.4,742.5 h -28.7 c -0.9,0 -1.6,-0.7 -1.6,-1.6 v -27.6 c 0,-0.9 0.7,-1.6 1.6,-1.6 h 28.7 c 0.9,0 1.6,0.7 1.6,1.6 v 27.6 c 0,0.9 -0.7,1.6 -1.6,1.6 z m -27,-3.2 h 25.4 V 715 h -25.4 z"
   id="path1458" />
	</g><g
   id="g1466">
		<rect
   x="292.10001"
   y="713.29999"
   fill="#e6e7e8"
   width="28.700001"
   height="27.6"
   id="rect1462" />
		<path
   d="m 320.8,742.5 h -28.7 c -0.9,0 -1.6,-0.7 -1.6,-1.6 v -27.6 c 0,-0.9 0.7,-1.6 1.6,-1.6 h 28.7 c 0.9,0 1.6,0.7 1.6,1.6 v 27.6 c 0,0.9 -0.7,1.6 -1.6,1.6 z m -27.1,-3.2 h 25.4 V 715 h -25.4 z"
   id="path1464" />
	</g><g
   id="g1472">
		<rect
   x="339.5"
   y="713.29999"
   fill="#e6e7e8"
   width="28.700001"
   height="27.6"
   id="rect1468" />
		<path
   d="m 368.2,742.5 h -28.7 c -0.9,0 -1.6,-0.7 -1.6,-1.6 v -27.6 c 0,-0.9 0.7,-1.6 1.6,-1.6 h 28.7 c 0.9,0 1.6,0.7 1.6,1.6 v 27.6 c 0,0.9 -0.7,1.6 -1.6,1.6 z m -27.1,-3.2 h 25.4 V 715 h -25.4 z"
   id="path1470" />
	</g><g
   id="g1478">
		<rect
   x="386.89999"
   y="713.29999"
   fill="#e6e7e8"
   width="28.700001"
   height="27.6"
   id="rect1474" />
		<path
   d="m 415.5,742.5 h -28.7 c -0.9,0 -1.6,-0.7 -1.6,-1.6 v -27.6 c 0,-0.9 0.7,-1.6 1.6,-1.6 h 28.7 c 0.9,0 1.6,0.7 1.6,1.6 v 27.6 c 0.1,0.9 -0.7,1.6 -1.6,1.6 z m -27,-3.2 h 25.4 V 715 h -25.4 z"
   id="path1476" />
	</g><g
   id="g1484">
		<rect
   x="434.29999"
   y="713.29999"
   fill="#e6e7e8"
   width="28.700001"
   height="27.6"
   id="rect1480" />
		<path
   d="m 462.9,742.5 h -28.7 c -0.9,0 -1.6,-0.7 -1.6,-1.6 v -27.6 c 0,-0.9 0.7,-1.6 1.6,-1.6 h 28.7 c 0.9,0 1.6,0.7 1.6,1.6 v 27.6 c 0.1,0.9 -0.7,1.6 -1.6,1.6 z m -27,-3.2 h 25.4 V 715 h -25.4 z"
   id="path1482" />
	</g><g
   id="g1490">
		<rect
   x="481.60001"
   y="713.29999"
   fill="#e6e7e8"
   width="28.700001"
   height="27.6"
   id="rect1486" />
		<path
   d="m 510.3,742.5 h -28.7 c -0.9,0 -1.6,-0.7 -1.6,-1.6 v -27.6 c 0,-0.9 0.7,-1.6 1.6,-1.6 h 28.7 c 0.9,0 1.6,0.7 1.6,1.6 v 27.6 c 0.1,0.9 -0.7,1.6 -1.6,1.6 z m -27,-3.2 h 25.4 V 715 h -25.4 z"
   id="path1488" />
	</g><g
   id="g1496">
		<rect
   x="529"
   y="713.29999"
   fill="#e6e7e8"
   width="28.700001"
   height="27.6"
   id="rect1492" />
		<path
   d="M 557.7,742.5 H 529 c -0.9,0 -1.6,-0.7 -1.6,-1.6 v -27.6 c 0,-0.9 0.7,-1.6 1.6,-1.6 h 28.7 c 0.9,0 1.6,0.7 1.6,1.6 v 27.6 c 0,0.9 -0.7,1.6 -1.6,1.6 z m -27,-3.2 h 25.4 V 715 h -25.4 z"
   id="path1494" />
	</g><g
   id="g1502">
		<rect
   x="576.40002"
   y="713.29999"
   fill="#e6e7e8"
   width="28.700001"
   height="27.6"
   id="rect1498" />
		<path
   d="m 605.1,742.5 h -28.7 c -0.9,0 -1.6,-0.7 -1.6,-1.6 v -27.6 c 0,-0.9 0.7,-1.6 1.6,-1.6 h 28.7 c 0.9,0 1.6,0.7 1.6,1.6 v 27.6 c 0,0.9 -0.7,1.6 -1.6,1.6 z m -27,-3.2 h 25.4 V 715 h -25.4 z"
   id="path1500" />
	</g><g
   id="g1508">
		<rect
   x="623.79999"
   y="713.29999"
   fill="#e6e7e8"
   width="28.700001"
   height="27.6"
   id="rect1504" />
		<path
   d="m 652.5,742.5 h -28.7 c -0.9,0 -1.6,-0.7 -1.6,-1.6 v -27.6 c 0,-0.9 0.7,-1.6 1.6,-1.6 h 28.7 c 0.9,0 1.6,0.7 1.6,1.6 v 27.6 c 0,0.9 -0.7,1.6 -1.6,1.6 z m -27.1,-3.2 h 25.4 V 715 h -25.4 z"
   id="path1506" />
	</g><g
   id="g1514">
		<rect
   x="197.3"
   y="760.20001"
   fill="#e6e7e8"
   width="28.700001"
   height="27.6"
   id="rect1510" />
		<path
   d="m 226,789.5 h -28.7 c -0.9,0 -1.6,-0.7 -1.6,-1.6 v -27.6 c 0,-0.9 0.7,-1.6 1.6,-1.6 H 226 c 0.9,0 1.6,0.7 1.6,1.6 v 27.6 c 0,0.9 -0.7,1.6 -1.6,1.6 z m -27.1,-3.3 h 25.4 v -24.3 h -25.4 z"
   id="path1512" />
	</g><g
   id="g1520">
		<rect
   x="244.7"
   y="760.20001"
   fill="#e6e7e8"
   width="28.700001"
   height="27.6"
   id="rect1516" />
		<path
   d="m 273.4,789.5 h -28.7 c -0.9,0 -1.6,-0.7 -1.6,-1.6 v -27.6 c 0,-0.9 0.7,-1.6 1.6,-1.6 h 28.7 c 0.9,0 1.6,0.7 1.6,1.6 v 27.6 c 0,0.9 -0.7,1.6 -1.6,1.6 z m -27,-3.3 h 25.4 v -24.3 h -25.4 z"
   id="path1518" />
	</g><g
   id="g1526">
		<rect
   x="292.10001"
   y="760.20001"
   fill="#e6e7e8"
   width="28.700001"
   height="27.6"
   id="rect1522" />
		<path
   d="m 320.8,789.5 h -28.7 c -0.9,0 -1.6,-0.7 -1.6,-1.6 v -27.6 c 0,-0.9 0.7,-1.6 1.6,-1.6 h 28.7 c 0.9,0 1.6,0.7 1.6,1.6 v 27.6 c 0,0.9 -0.7,1.6 -1.6,1.6 z m -27.1,-3.3 h 25.4 v -24.3 h -25.4 z"
   id="path1524" />
	</g><g
   id="g1532">
		<rect
   x="339.5"
   y="760.20001"
   fill="#e6e7e8"
   width="28.700001"
   height="27.6"
   id="rect1528" />
		<path
   d="m 368.2,789.5 h -28.7 c -0.9,0 -1.6,-0.7 -1.6,-1.6 v -27.6 c 0,-0.9 0.7,-1.6 1.6,-1.6 h 28.7 c 0.9,0 1.6,0.7 1.6,1.6 v 27.6 c 0,0.9 -0.7,1.6 -1.6,1.6 z m -27.1,-3.3 h 25.4 v -24.3 h -25.4 z"
   id="path1530" />
	</g><g
   id="g1538">
		<rect
   x="386.89999"
   y="760.20001"
   fill="#e6e7e8"
   width="28.700001"
   height="27.6"
   id="rect1534" />
		<path
   d="m 415.5,789.5 h -28.7 c -0.9,0 -1.6,-0.7 -1.6,-1.6 v -27.6 c 0,-0.9 0.7,-1.6 1.6,-1.6 h 28.7 c 0.9,0 1.6,0.7 1.6,1.6 v 27.6 c 0.1,0.9 -0.7,1.6 -1.6,1.6 z m -27,-3.3 h 25.4 v -24.3 h -25.4 z"
   id="path1536" />
	</g><g
   id="g1544">
		<rect
   x="434.29999"
   y="760.20001"
   fill="#e6e7e8"
   width="28.700001"
   height="27.6"
   id="rect1540" />
		<path
   d="m 462.9,789.5 h -28.7 c -0.9,0 -1.6,-0.7 -1.6,-1.6 v -27.6 c 0,-0.9 0.7,-1.6 1.6,-1.6 h 28.7 c 0.9,0 1.6,0.7 1.6,1.6 v 27.6 c 0.1,0.9 -0.7,1.6 -1.6,1.6 z m -27,-3.3 h 25.4 v -24.3 h -25.4 z"
   id="path1542" />
	</g><g
   id="g1550">
		<rect
   x="576.40002"
   y="760.20001"
   fill="#e6e7e8"
   width="28.700001"
   height="27.6"
   id="rect1546" />
		<path
   d="m 605.1,789.5 h -28.7 c -0.9,0 -1.6,-0.7 -1.6,-1.6 v -27.6 c 0,-0.9 0.7,-1.6 1.6,-1.6 h 28.7 c 0.9,0 1.6,0.7 1.6,1.6 v 27.6 c 0,0.9 -0.7,1.6 -1.6,1.6 z m -27,-3.3 h 25.4 v -24.3 h -25.4 z"
   id="path1548" />
	</g><g
   id="g1556">
		<rect
   x="623.79999"
   y="760.20001"
   fill="#e6e7e8"
   width="28.700001"
   height="27.6"
   id="rect1552" />
		<path
   d="m 652.5,789.5 h -28.7 c -0.9,0 -1.6,-0.7 -1.6,-1.6 v -27.6 c 0,-0.9 0.7,-1.6 1.6,-1.6 h 28.7 c 0.9,0 1.6,0.7 1.6,1.6 v 27.6 c 0,0.9 -0.7,1.6 -1.6,1.6 z m -27.1,-3.3 h 25.4 v -24.3 h -25.4 z"
   id="path1554" />
	</g><g
   id="g1562">
		<rect
   x="197.3"
   y="807.20001"
   fill="#e6e7e8"
   width="28.700001"
   height="27.6"
   id="rect1558" />
		<path
   d="m 226,836.4 h -28.7 c -0.9,0 -1.6,-0.7 -1.6,-1.6 v -27.6 c 0,-0.9 0.7,-1.6 1.6,-1.6 H 226 c 0.9,0 1.6,0.7 1.6,1.6 v 27.6 c 0,0.9 -0.7,1.6 -1.6,1.6 z m -27.1,-3.3 h 25.4 v -24.3 h -25.4 z"
   id="path1560" />
	</g><g
   id="g1568">
		<rect
   x="244.7"
   y="807.20001"
   fill="#e6e7e8"
   width="28.700001"
   height="27.6"
   id="rect1564" />
		<path
   d="m 273.4,836.4 h -28.7 c -0.9,0 -1.6,-0.7 -1.6,-1.6 v -27.6 c 0,-0.9 0.7,-1.6 1.6,-1.6 h 28.7 c 0.9,0 1.6,0.7 1.6,1.6 v 27.6 c 0,0.9 -0.7,1.6 -1.6,1.6 z m -27,-3.3 h 25.4 v -24.3 h -25.4 z"
   id="path1566" />
	</g><g
   id="g1574">
		<rect
   x="292.10001"
   y="807.20001"
   fill="#e6e7e8"
   width="28.700001"
   height="27.6"
   id="rect1570" />
		<path
   d="m 320.8,836.4 h -28.7 c -0.9,0 -1.6,-0.7 -1.6,-1.6 v -27.6 c 0,-0.9 0.7,-1.6 1.6,-1.6 h 28.7 c 0.9,0 1.6,0.7 1.6,1.6 v 27.6 c 0,0.9 -0.7,1.6 -1.6,1.6 z m -27.1,-3.3 h 25.4 v -24.3 h -25.4 z"
   id="path1572" />
	</g><g
   id="g1580">
		<rect
   x="339.5"
   y="807.20001"
   fill="#e6e7e8"
   width="123.5"
   height="27.6"
   id="rect1576" />
		<path
   d="M 462.9,836.4 H 339.5 c -0.9,0 -1.6,-0.7 -1.6,-1.6 v -27.6 c 0,-0.9 0.7,-1.6 1.6,-1.6 H 463 c 0.9,0 1.6,0.7 1.6,1.6 v 27.6 c 0,0.9 -0.8,1.6 -1.7,1.6 z M 341.1,833.1 H 461.3 V 808.8 H 341.1 Z"
   id="path1578" />
	</g><g
   id="g1586">
		<rect
   x="481.60001"
   y="807.20001"
   fill="#e6e7e8"
   width="28.700001"
   height="27.6"
   id="rect1582" />
		<path
   d="m 510.3,836.4 h -28.7 c -0.9,0 -1.6,-0.7 -1.6,-1.6 v -27.6 c 0,-0.9 0.7,-1.6 1.6,-1.6 h 28.7 c 0.9,0 1.6,0.7 1.6,1.6 v 27.6 c 0.1,0.9 -0.7,1.6 -1.6,1.6 z m -27,-3.3 h 25.4 v -24.3 h -25.4 z"
   id="path1584" />
	</g><g
   id="g1592">
		<polygon
   fill="#e6e7e8"
   points="481.6,760.2 481.6,787.8 529,787.8 529,834.8 557.7,834.8 557.7,787.8 557.7,776.2 557.7,760.2 534.8,760.2 529,760.2 "
   id="polygon1588" />
		<path
   d="M 557.7,836.4 H 529 c -0.9,0 -1.6,-0.7 -1.6,-1.6 v -45.3 h -45.7 c -0.9,0 -1.6,-0.7 -1.6,-1.6 v -27.6 c 0,-0.9 0.7,-1.6 1.6,-1.6 h 76.1 c 0.9,0 1.6,0.7 1.6,1.6 v 74.5 c -0.1,0.9 -0.8,1.6 -1.7,1.6 z m -27,-3.3 h 25.4 v -71.3 h -72.8 v 24.3 H 529 c 0.9,0 1.6,0.7 1.6,1.6 v 45.4 z"
   id="path1590" />
	</g><g
   id="g1598">
		<rect
   x="576.40002"
   y="807.20001"
   fill="#e6e7e8"
   width="28.700001"
   height="27.6"
   id="rect1594" />
		<path
   d="m 605.1,836.4 h -28.7 c -0.9,0 -1.6,-0.7 -1.6,-1.6 v -27.6 c 0,-0.9 0.7,-1.6 1.6,-1.6 h 28.7 c 0.9,0 1.6,0.7 1.6,1.6 v 27.6 c 0,0.9 -0.7,1.6 -1.6,1.6 z m -27,-3.3 h 25.4 v -24.3 h -25.4 z"
   id="path1596" />
	</g><g
   id="g1604">
		<rect
   x="623.79999"
   y="807.20001"
   fill="#e6e7e8"
   width="28.700001"
   height="27.6"
   id="rect1600" />
		<path
   d="m 652.5,836.4 h -28.7 c -0.9,0 -1.6,-0.7 -1.6,-1.6 v -27.6 c 0,-0.9 0.7,-1.6 1.6,-1.6 h 28.7 c 0.9,0 1.6,0.7 1.6,1.6 v 27.6 c 0,0.9 -0.7,1.6 -1.6,1.6 z m -27.1,-3.3 h 25.4 v -24.3 h -25.4 z"
   id="path1602" />
	</g><g
   id="g1616">
		<g
   id="g1610">
			<path
   fill="#ffffff"
   d="M 259,692.4 V 482.9 c 0,-22.7 18.5,-41.2 41.2,-41.2 h 53.6"
   id="path1606" />
			<path
   d="m 259,694 c -0.9,0 -1.6,-0.7 -1.6,-1.6 v -42.7 c 0,-0.9 0.7,-1.6 1.6,-1.6 0.9,0 1.6,0.7 1.6,1.6 v 42.7 c 0.1,0.9 -0.6,1.6 -1.6,1.6 z m 0,-85.5 c -0.9,0 -1.6,-0.7 -1.6,-1.6 v -42.7 c 0,-0.9 0.7,-1.6 1.6,-1.6 0.9,0 1.6,0.7 1.6,1.6 v 42.7 c 0.1,0.9 -0.6,1.6 -1.6,1.6 z m 0,-85.5 c -0.9,0 -1.6,-0.7 -1.6,-1.6 v -38.5 c 0,-1.5 0.1,-3 0.2,-4.4 0.1,-0.9 0.9,-1.6 1.8,-1.5 0.9,0.1 1.6,0.9 1.5,1.8 -0.1,1.3 -0.2,2.7 -0.2,4.1 v 38.5 c 0,0.9 -0.7,1.6 -1.7,1.6 z m 24.1,-75.9 c -0.6,0 -1.2,-0.4 -1.5,-1 -0.4,-0.8 0,-1.8 0.8,-2.2 5.6,-2.6 11.6,-3.9 17.9,-3.9 h 25 c 0.9,0 1.6,0.7 1.6,1.6 0,0.9 -0.7,1.6 -1.6,1.6 h -25 c -5.7,0 -11.3,1.2 -16.5,3.6 -0.2,0.3 -0.5,0.3 -0.7,0.3 z"
   id="path1608" />
		</g>
		<g
   id="g1614">
			<path
   d="m 259,694 c -0.9,0 -1.6,-0.7 -1.6,-1.6 v -42.7 c 0,-0.9 0.7,-1.6 1.6,-1.6 0.9,0 1.6,0.7 1.6,1.6 v 42.7 c 0.1,0.9 -0.6,1.6 -1.6,1.6 z m 0,-85.5 c -0.9,0 -1.6,-0.7 -1.6,-1.6 v -42.7 c 0,-0.9 0.7,-1.6 1.6,-1.6 0.9,0 1.6,0.7 1.6,1.6 v 42.7 c 0.1,0.9 -0.6,1.6 -1.6,1.6 z m 0,-85.5 c -0.9,0 -1.6,-0.7 -1.6,-1.6 v -38.5 c 0,-1.5 0.1,-3 0.2,-4.4 0.1,-0.9 0.9,-1.6 1.8,-1.5 0.9,0.1 1.6,0.9 1.5,1.8 -0.1,1.3 -0.2,2.7 -0.2,4.1 v 38.5 c 0,0.9 -0.7,1.6 -1.7,1.6 z m 24.1,-75.9 c -0.6,0 -1.2,-0.4 -1.5,-1 -0.4,-0.8 0,-1.8 0.8,-2.2 5.6,-2.6 11.6,-3.9 17.9,-3.9 h 25 c 0.9,0 1.6,0.7 1.6,1.6 0,0.9 -0.7,1.6 -1.6,1.6 h -25 c -5.7,0 -11.3,1.2 -16.5,3.6 -0.2,0.3 -0.5,0.3 -0.7,0.3 z"
   id="path1612" />
		</g>
	</g><g
   id="g1626">
		<g
   id="g1620">
			<path
   d="m 1183.8,764 h -95.9 c -0.9,0 -1.6,-0.7 -1.6,-1.6 v -23.8 c 0,-26 21.1,-47.1 47.1,-47.1 h 5 c 26,0 47.1,21.1 47.1,47.1 v 23.8 c 0,0.9 -0.8,1.6 -1.7,1.6 z m -94.2,-3.2 h 92.6 v -22.2 c 0,-24.1 -19.6,-43.8 -43.8,-43.8 h -5 c -24.1,0 -43.8,19.6 -43.8,43.8 z"
   id="path1618" />
		</g>
		<g
   id="g1624">
			<path
   d="m 1138.4,848.7 h -5 c -26,0 -47.1,-21.1 -47.1,-47.1 v -39.3 c 0,-0.9 0.7,-1.6 1.6,-1.6 h 95.9 c 0.9,0 1.6,0.7 1.6,1.6 v 39.3 c 0.1,26 -21,47.1 -47,47.1 z M 1089.6,764 v 37.6 c 0,24.1 19.6,43.8 43.8,43.8 h 5 c 24.1,0 43.8,-19.6 43.8,-43.8 V 764 Z"
   id="path1622" />
		</g>
	</g><g
   id="g1630">
		<path
   d="m 1135.9,749.1 c -0.9,0 -1.6,-0.7 -1.6,-1.6 v -36.3 c 0,-0.9 0.7,-1.6 1.6,-1.6 0.9,0 1.6,0.7 1.6,1.6 v 36.3 c 0,0.8 -0.7,1.6 -1.6,1.6 z"
   id="path1628" />
	</g><g
   id="g1634">
		<path
   d="m 1133.3,694.8 c -0.9,0 -1.6,-0.7 -1.6,-1.6 v -42.7 c 0,-0.9 0.7,-1.6 1.6,-1.6 0.9,0 1.6,0.7 1.6,1.6 v 42.7 c 0.1,0.9 -0.6,1.6 -1.6,1.6 z m -4.1,-84.9 c -0.6,0 -1.2,-0.3 -1.5,-0.9 -6.1,-12.6 -18.5,-21.1 -32.3,-22.3 -0.9,-0.1 -1.6,-0.9 -1.5,-1.8 0.1,-0.9 0.9,-1.6 1.8,-1.5 15,1.3 28.4,10.5 35,24.1 0.4,0.8 0.1,1.8 -0.8,2.2 -0.2,0.2 -0.4,0.2 -0.7,0.2 z m -76.4,-23.3 h -7.4 c -0.9,0 -1.6,-0.7 -1.6,-1.6 0,-0.9 0.7,-1.6 1.6,-1.6 h 7.4 c 0.9,0 1.6,0.7 1.6,1.6 0,0.9 -0.6,1.6 -1.6,1.6 z"
   id="path1632" />
	</g><g
   id="g1640">
		<polygon
   fill="#ffe3aa"
   points="765,833.5 705.4,833.5 735.2,781.9 "
   id="polygon1636" />
		<path
   d="m 765.1,835.2 c 0,0 -0.1,0 0,0 h -59.6 c -0.6,0 -1.1,-0.3 -1.4,-0.8 -0.3,-0.5 -0.3,-1.1 0,-1.6 l 29.8,-51.6 c 0.6,-1 2.3,-1 2.8,0 l 29.6,51.3 c 0.3,0.3 0.5,0.7 0.5,1.2 -0.1,0.7 -0.8,1.5 -1.7,1.5 z m -56.8,-3.3 h 53.9 l -26.9,-46.7 z"
   id="path1638" />
	</g><rect
   x="796.20001"
   y="781.90002"
   fill="#4d7c9a"
   width="51.599998"
   height="51.599998"
   id="rect1642"
   style="fill:#312eff;fill-opacity:1" /><path
   d="m 847.8,835.2 h -51.6 c -0.9,0 -1.6,-0.7 -1.6,-1.6 V 782 c 0,-0.9 0.7,-1.6 1.6,-1.6 h 51.6 c 0.9,0 1.6,0.7 1.6,1.6 v 51.6 c 0.1,0.8 -0.7,1.6 -1.6,1.6 z m -49.9,-3.3 h 48.3 v -48.3 h -48.3 z"
   id="path1644" /><path
   fill="#ffa99a"
   d="m 936.4,807.7 c 0,14.9 -12.1,27 -27,27 -14.9,0 -27,-12.1 -27,-27 0,-14.9 12.1,-27 27,-27 14.9,0 27,12.1 27,27 z"
   id="path1648"
   style="fill:#78c261;fill-opacity:1" /><path
   d="m 909.4,836.4 c -15.8,0 -28.7,-12.9 -28.7,-28.7 0,-15.8 12.9,-28.7 28.7,-28.7 15.8,0 28.7,12.9 28.7,28.7 0,15.8 -12.9,28.7 -28.7,28.7 z m 0,-54.1 c -14,0 -25.4,11.4 -25.4,25.4 0,14 11.4,25.4 25.4,25.4 14,0 25.4,-11.4 25.4,-25.4 0,-14 -11.4,-25.4 -25.4,-25.4 z"
   id="path1650" /><g
   id="g1664">
		<g
   id="g1658">
			<rect
   x="1087.9"
   y="136.39999"
   fill="#a0dfff"
   width="228.3"
   height="47.599998"
   id="rect1654" />
			<path
   d="M 1316.3,185.7 H 1088 c -0.9,0 -1.6,-0.7 -1.6,-1.6 v -47.6 c 0,-0.9 0.7,-1.6 1.6,-1.6 h 228.3 c 0.9,0 1.6,0.7 1.6,1.6 V 184 c 0,0.9 -0.7,1.7 -1.6,1.7 z m -226.7,-3.3 h 225.1 v -44.3 h -225.1 z"
   id="path1656" />
		</g>
		<g
   id="g1662">
			<path
   d="M 1316.3,487 H 1088 c -0.9,0 -1.6,-0.7 -1.6,-1.6 V 184 c 0,-0.9 0.7,-1.6 1.6,-1.6 h 228.3 c 0.9,0 1.6,0.7 1.6,1.6 v 301.3 c 0,0.9 -0.7,1.7 -1.6,1.7 z m -226.7,-3.3 h 225.1 v -298 h -225.1 z"
   id="path1660" />
		</g>
	</g><g
   id="g1670">
		<rect
   x="1253.1"
   y="150.39999"
   fill="#ffffff"
   width="19.5"
   height="19.5"
   id="rect1666" />
		<path
   d="m 1272.7,171.6 h -19.5 c -0.9,0 -1.6,-0.7 -1.6,-1.6 v -19.5 c 0,-0.9 0.7,-1.6 1.6,-1.6 h 19.5 c 0.9,0 1.6,0.7 1.6,1.6 V 170 c 0,0.8 -0.7,1.6 -1.6,1.6 z m -17.9,-3.3 H 1271 V 152 h -16.2 z"
   id="path1668" />
	</g><g
   id="g1676">
		<path
   fill="#ffffff"
   d="m 1303.9,160.2 c 0,5.4 -4.4,9.8 -9.8,9.8 -5.4,0 -9.8,-4.4 -9.8,-9.8 0,-5.4 4.4,-9.8 9.8,-9.8 5.4,0 9.8,4.4 9.8,9.8 z"
   id="path1672" />
		<path
   d="m 1294.2,171.6 c -6.3,0 -11.4,-5.1 -11.4,-11.4 0,-6.3 5.1,-11.4 11.4,-11.4 6.3,0 11.4,5.1 11.4,11.4 0,6.2 -5.1,11.4 -11.4,11.4 z m 0,-19.6 c -4.5,0 -8.1,3.6 -8.1,8.1 0,4.5 3.6,8.1 8.1,8.1 4.5,0 8.1,-3.6 8.1,-8.1 0,-4.4 -3.7,-8.1 -8.1,-8.1 z"
   id="path1674" />
	</g><g
   id="g1680">
		<path
   d="m 929,234.4 c -0.9,0 -1.6,-0.7 -1.6,-1.6 v -31.3 c 0,-4 0.6,-8 1.7,-11.8 0.3,-0.9 1.2,-1.4 2,-1.1 0.9,0.3 1.4,1.2 1.1,2 -1,3.5 -1.5,7.2 -1.5,10.9 v 31.3 c -0.1,0.8 -0.8,1.6 -1.7,1.6 z m 30.8,-71.2 c -0.7,0 -1.4,-0.5 -1.6,-1.2 -0.2,-0.9 0.3,-1.8 1.2,-2 3.5,-0.9 7.1,-1.4 10.8,-1.4 h 32.2 c 0.9,0 1.6,0.7 1.6,1.6 0,0.9 -0.7,1.6 -1.6,1.6 h -32.2 c -3.4,0 -6.7,0.4 -10,1.3 -0.1,0.1 -0.3,0.1 -0.4,0.1 z m 128.1,-1.3 h -42.7 c -0.9,0 -1.6,-0.7 -1.6,-1.6 0,-0.9 0.7,-1.6 1.6,-1.6 h 42.7 c 0.9,0 1.6,0.7 1.6,1.6 0.1,0.8 -0.7,1.6 -1.6,1.6 z"
   id="path1678" />
	</g><path
   fill="#a0dfff"
   d="m 411.6,206.2 h -0.9 c 0,-33.7 -27.4,-61.1 -61.1,-61.1 -6.8,0 -13.4,1.2 -19.5,3.2 -11.5,-37.5 -46.4,-64.8 -87.6,-64.8 -50.6,0 -91.7,41 -91.7,91.7 -30.2,0 -54.7,24.5 -54.7,54.7 0,30.2 24.5,54.7 54.7,54.7 h 149.6 c 0.6,0 1.2,-0.1 1.8,-0.1 0.6,0 1.2,0.1 1.8,0.1 h 107.6 c 21.7,0 39.2,-17.6 39.2,-39.2 0,-21.7 -17.6,-39.2 -39.2,-39.2 z"
   id="path1682" /><path
   d="M 411.6,286.2 H 303.9 c -0.4,0 -0.8,0 -1.3,-0.1 h -0.6 -0.6 c -0.4,0 -0.8,0.1 -1.2,0.1 H 150.7 c -31.1,0 -56.4,-25.3 -56.4,-56.4 0,-30.5 24.4,-55.5 54.7,-56.3 0.9,-50.7 42.4,-91.7 93.3,-91.7 40.7,0 76.2,25.8 88.7,64.4 6.1,-1.9 12.3,-2.8 18.5,-2.8 34.1,0 61.9,27.3 62.7,61.1 22.2,0.4 40.1,18.6 40.1,40.9 0.1,22.5 -18.2,40.8 -40.7,40.8 z m -109.5,-3.3 h 0.8 c 0.3,0 0.7,0 1,0 h 107.6 c 20.7,0 37.6,-16.9 37.6,-37.6 0,-20.7 -16.9,-37.6 -37.6,-37.6 h -0.9 c -0.9,0 -1.6,-0.7 -1.6,-1.6 0,-32.8 -26.7,-59.5 -59.5,-59.5 -6.4,0 -12.8,1.1 -19,3.2 -0.4,0.1 -0.9,0.1 -1.3,-0.1 -0.4,-0.2 -0.7,-0.6 -0.8,-1 C 316.8,110.6 282.2,85 242.3,85 c -49.6,0 -90,40.4 -90,90 0,0.9 -0.7,1.6 -1.6,1.6 -29.3,0 -53.1,23.8 -53.1,53.1 0,29.3 23.8,53.1 53.1,53.1 h 149.6 c 0.3,0 0.6,0 0.9,0 0.3,0.1 0.6,0.1 0.9,0.1 z"
   id="path1684" /><g
   id="g1692">
		<polygon
   fill="#ffffff"
   points="206.7,207.4 206.7,284.6 281.3,284.6 281.3,207.4 296.9,207.4 244,115.9 191.2,207.4 "
   id="polygon1688" />
		<path
   d="m 281.3,286.2 h -74.6 c -0.9,0 -1.6,-0.7 -1.6,-1.6 V 209 h -13.9 c -0.6,0 -1.1,-0.3 -1.4,-0.8 -0.3,-0.5 -0.3,-1.1 0,-1.6 l 52.8,-91.5 c 0.6,-1 2.3,-1 2.8,0 l 52.8,91.5 c 0.3,0.5 0.3,1.1 0,1.6 -0.3,0.5 -0.8,0.8 -1.4,0.8 H 283 v 75.5 c 0,1 -0.8,1.7 -1.7,1.7 z m -72.9,-3.3 h 71.3 v -75.5 c 0,-0.9 0.7,-1.6 1.6,-1.6 H 294 l -50,-86.5 -50,86.5 h 12.7 c 0.9,0 1.6,0.7 1.6,1.6 v 75.5 z"
   id="path1690" />
	</g><g
   id="g1696">
		<path
   d="m 221.5,286.2 c -0.9,0 -1.6,-0.7 -1.6,-1.6 v -75 c 0,-0.9 0.7,-1.6 1.6,-1.6 0.9,0 1.6,0.7 1.6,1.6 v 75 c 0,0.9 -0.7,1.6 -1.6,1.6 z"
   id="path1694" />
	</g><g
   id="g1700">
		<path
   d="m 354.6,387.8 h -23.4 c -0.9,0 -1.6,-0.7 -1.6,-1.6 0,-0.9 0.7,-1.6 1.6,-1.6 h 23.4 c 0.9,0 1.6,0.7 1.6,1.6 0,0.9 -0.7,1.6 -1.6,1.6 z m -66.2,0 h -3.2 c -13.9,0 -27,-6.9 -35.1,-18.3 -0.5,-0.7 -0.3,-1.8 0.4,-2.3 0.7,-0.5 1.8,-0.3 2.3,0.4 7.4,10.6 19.6,16.9 32.4,16.9 h 3.2 c 0.9,0 1.6,0.7 1.6,1.6 0.1,1 -0.7,1.7 -1.6,1.7 z M 244,329 c -0.9,0 -1.6,-0.7 -1.6,-1.6 v -42.7 c 0,-0.9 0.7,-1.6 1.6,-1.6 0.9,0 1.6,0.7 1.6,1.6 v 42.7 c 0.1,0.8 -0.7,1.6 -1.6,1.6 z"
   id="path1698" />
	</g><path
   fill="#4d7c9a"
   d="M 127.4,450.4 V 571 c 0,15.3 12.4,27.8 27.8,27.8 h 19.7 c 15.4,0 27.8,-12.4 27.8,-27.8 V 450.4 Z"
   id="path1702"
   style="fill:#312eff;fill-opacity:1" /><path
   d="m 174.9,600.5 h -19.7 c -16.2,0 -29.4,-13.2 -29.4,-29.4 V 450.4 c 0,-0.9 0.7,-1.6 1.6,-1.6 h 75.3 c 0.9,0 1.6,0.7 1.6,1.6 V 571 c 0,16.3 -13.2,29.5 -29.4,29.5 z M 129,452.1 v 119 c 0,14.4 11.7,26.2 26.1,26.2 h 19.7 c 14.4,0 26.1,-11.7 26.1,-26.2 v -119 z"
   id="path1704" /><g
   id="g1710">
		<path
   d="m 193.4,452.1 h -56.7 c -0.9,0 -1.6,-0.7 -1.6,-1.6 v -55.6 c 0,-0.9 0.7,-1.6 1.6,-1.6 h 56.7 c 0.9,0 1.6,0.7 1.6,1.6 v 55.6 c 0,0.8 -0.7,1.6 -1.6,1.6 z m -55.1,-3.3 h 53.5 v -52.3 h -53.5 z"
   id="path1708" />
	</g><g
   id="g1714">
		<path
   d="m 147.8,436.8 c -0.9,0 -1.6,-0.7 -1.6,-1.6 v -25.1 c 0,-0.9 0.7,-1.6 1.6,-1.6 h 11.6 c 0.9,0 1.6,0.7 1.6,1.6 0,0.9 -0.7,1.6 -1.6,1.6 h -9.9 v 23.4 c -0.1,1 -0.8,1.7 -1.7,1.7 z"
   id="path1712" />
	</g><g
   id="g1718">
		<path
   d="m 170.7,436.8 c -0.9,0 -1.6,-0.7 -1.6,-1.6 v -25.1 c 0,-0.9 0.7,-1.6 1.6,-1.6 h 11.6 c 0.9,0 1.6,0.7 1.6,1.6 0,0.9 -0.7,1.6 -1.6,1.6 h -9.9 v 23.4 c -0.1,1 -0.8,1.7 -1.7,1.7 z"
   id="path1716" />
	</g><g
   id="g1736">
		<g
   id="g1722">
			<path
   fill="#ffffff"
   d="m 165.2,562.6 c -0.9,0 -1.6,-0.7 -1.6,-1.6 v -60.9 c 0,-0.9 0.7,-1.6 1.6,-1.6 0.9,0 1.6,0.7 1.6,1.6 V 561 c 0.1,0.9 -0.7,1.6 -1.6,1.6 z"
   id="path1720" />
		</g>
		<g
   id="g1726">
			<path
   fill="#ffffff"
   d="m 165.2,548.7 c -0.3,0 -0.6,-0.1 -0.8,-0.2 l -19.8,-11.3 c -0.5,-0.3 -0.8,-0.8 -0.8,-1.4 v -15.4 c 0,-0.9 0.7,-1.6 1.6,-1.6 0.9,0 1.6,0.7 1.6,1.6 v 14.5 l 19,10.8 c 0.8,0.4 1.1,1.5 0.6,2.2 -0.2,0.5 -0.8,0.8 -1.4,0.8 z"
   id="path1724" />
		</g>
		<g
   id="g1730">
			<path
   fill="#ffffff"
   d="m 165.2,537 c -0.5,0 -1,-0.2 -1.3,-0.6 -0.6,-0.7 -0.4,-1.8 0.3,-2.3 L 183,519.5 v -13.6 c 0,-0.9 0.7,-1.6 1.6,-1.6 0.9,0 1.6,0.7 1.6,1.6 v 14.4 c 0,0.5 -0.2,1 -0.6,1.3 l -19.4,15.1 c -0.3,0.1 -0.6,0.3 -1,0.3 z"
   id="path1728" />
		</g>
		<g
   id="g1734">
			<path
   fill="#ffffff"
   d="m 172.1,501.7 c 0,0 0,0 0,0 h -13.7 c -0.6,0 -1.1,-0.3 -1.4,-0.8 -0.3,-0.5 -0.3,-1.1 0,-1.6 l 6.8,-11.8 c 0.6,-1 2.3,-1 2.8,0 l 6.6,11.4 c 0.3,0.3 0.5,0.7 0.5,1.2 0,0.9 -0.7,1.6 -1.6,1.6 z m -10.8,-3.3 h 7.9 l -4,-6.8 z"
   id="path1732" />
		</g>
	</g><g
   id="g1756">
		<g
   id="g1740">
			<path
   d="m 1270.7,690.3 h -41.6 c -0.9,0 -1.6,-0.7 -1.6,-1.6 v -33.2 c 0,-0.9 0.7,-1.6 1.6,-1.6 h 41.6 c 0.9,0 1.6,0.7 1.6,1.6 v 33.2 c 0.1,0.9 -0.6,1.6 -1.6,1.6 z m -39.9,-3.3 h 38.3 v -29.9 h -38.3 z"
   id="path1738" />
		</g>
		<g
   id="g1746">
			<rect
   x="1220.7"
   y="608.90002"
   fill="#a7a9ac"
   width="58.5"
   height="46.599998"
   id="rect1742" />
			<path
   d="m 1279.2,657.1 h -58.5 c -0.9,0 -1.6,-0.7 -1.6,-1.6 v -46.6 c 0,-0.9 0.7,-1.6 1.6,-1.6 h 58.5 c 0.9,0 1.6,0.7 1.6,1.6 v 46.6 c 0,0.9 -0.7,1.6 -1.6,1.6 z m -56.9,-3.2 h 55.2 v -43.3 h -55.2 z"
   id="path1744" />
		</g>
		<g
   id="g1750">
			<path
   d="m 1260.8,680.3 c -0.9,0 -1.6,-0.7 -1.6,-1.6 v -11.6 h -5.2 c -0.9,0 -1.6,-0.7 -1.6,-1.6 0,-0.9 0.7,-1.6 1.6,-1.6 h 6.9 c 0.9,0 1.6,0.7 1.6,1.6 v 13.2 c -0.1,0.9 -0.8,1.6 -1.7,1.6 z"
   id="path1748" />
		</g>
		<g
   id="g1754">
			<path
   d="m 1245.7,680.3 c -0.9,0 -1.6,-0.7 -1.6,-1.6 v -11.6 h -5.2 c -0.9,0 -1.6,-0.7 -1.6,-1.6 0,-0.9 0.7,-1.6 1.6,-1.6 h 6.9 c 0.9,0 1.6,0.7 1.6,1.6 v 13.2 c -0.1,0.9 -0.8,1.6 -1.7,1.6 z"
   id="path1752" />
		</g>
	</g><g
   id="g1760">
		<path
   d="m 1249.9,610.6 c -0.9,0 -1.6,-0.7 -1.6,-1.6 v -36.5 c 0,-2 -0.2,-4 -0.6,-5.9 -0.2,-0.9 0.4,-1.8 1.3,-1.9 0.9,-0.2 1.8,0.4 1.9,1.3 0.4,2.1 0.6,4.3 0.6,6.5 V 609 c 0.1,0.8 -0.7,1.6 -1.6,1.6 z m -29.2,-71.5 c -0.1,0 -0.3,0 -0.4,-0.1 -3.7,-1 -7.6,-1.5 -11.5,-1.5 h -30.7 c -0.9,0 -1.6,-0.7 -1.6,-1.6 0,-0.9 0.7,-1.6 1.6,-1.6 h 30.7 c 4.2,0 8.4,0.6 12.4,1.6 0.9,0.2 1.4,1.1 1.2,2 -0.3,0.8 -1,1.2 -1.7,1.2 z m -85.4,-1.5 h -42.7 c -0.9,0 -1.6,-0.7 -1.6,-1.6 0,-0.9 0.7,-1.6 1.6,-1.6 h 42.7 c 0.9,0 1.6,0.7 1.6,1.6 0.1,0.8 -0.7,1.6 -1.6,1.6 z m -85.5,0 h -4.4 c -0.9,0 -1.6,-0.7 -1.6,-1.6 0,-0.9 0.7,-1.6 1.6,-1.6 h 4.4 c 0.9,0 1.6,0.7 1.6,1.6 0.1,0.8 -0.7,1.6 -1.6,1.6 z"
   id="path1758" />
	</g><g
   id="g1766">
			<path
   fill="#e6e7e8"
   d="m 580.7,180.9 v 22.7 c 0,3.4 -1.1,6.5 -3,9 h 203.7 v -31.7 z"
   id="path1762" />
			<path
   d="M 781.4,214.3 H 577.8 c -0.6,0 -1.2,-0.3 -1.5,-0.9 -0.3,-0.6 -0.2,-1.2 0.1,-1.7 1.7,-2.4 2.7,-5.2 2.7,-8 V 181 c 0,-0.9 0.7,-1.6 1.6,-1.6 h 200.7 c 0.9,0 1.6,0.7 1.6,1.6 v 31.7 c 0.1,0.8 -0.6,1.6 -1.6,1.6 z M 580.7,211 H 779.8 V 182.6 H 582.4 v 21.1 c 0,2.5 -0.6,5 -1.7,7.3 z"
   id="path1764" />
		</g><g
   id="g1772">
			<path
   fill="#ffffff"
   d="M 580.7,180.9 H 781.4 V 149.2 H 577.8 c 1.9,2.5 3,5.6 3,9 v 22.7 z"
   id="path1768" />
			<path
   d="M 781.4,182.6 H 580.7 c -0.9,0 -1.6,-0.7 -1.6,-1.6 v -22.7 c 0,-2.9 -0.9,-5.6 -2.7,-8 -0.4,-0.5 -0.4,-1.2 -0.1,-1.7 0.3,-0.6 0.8,-0.9 1.5,-0.9 h 203.7 c 0.9,0 1.6,0.7 1.6,1.6 V 181 c 0,0.8 -0.7,1.6 -1.7,1.6 z m -199,-3.3 H 779.8 V 150.9 H 580.7 c 1.1,2.3 1.7,4.8 1.7,7.3 z"
   id="path1770" />
		</g><path
   fill="#ffa99a"
   d="m 577.8,149.2 c -2.8,-3.8 -7.3,-6.4 -12.4,-6.4 H 521.9 V 219 h 43.5 c 5.1,0 9.6,-2.5 12.4,-6.4 1.9,-2.5 3,-5.6 3,-9 v -45.4 c -0.1,-3.4 -1.2,-6.5 -3,-9 z"
   id="path1774"
   style="fill:#78c261;fill-opacity:1" /><path
   d="m 565.4,220.6 h -43.5 c -0.9,0 -1.6,-0.7 -1.6,-1.6 v -76.1 c 0,-0.9 0.7,-1.6 1.6,-1.6 h 43.5 c 5.4,0 10.5,2.6 13.7,7 2.1,2.9 3.3,6.4 3.3,10 v 45.4 c 0,3.6 -1.1,7 -3.3,10 -3.2,4.3 -8.3,6.9 -13.7,6.9 z m -41.8,-3.3 h 41.8 c 4.4,0 8.4,-2.1 11.1,-5.7 1.7,-2.4 2.7,-5.2 2.7,-8 v -45.4 c 0,-2.9 -0.9,-5.6 -2.7,-8 -2.6,-3.6 -6.7,-5.7 -11.1,-5.7 h -41.8 z"
   id="path1776" /><g
   id="g1784">
			<polygon
   fill="#ffe3aa"
   points="835.4,193.2 832,167.4 781.4,149.2 781.4,180.9 781.4,212.6 "
   id="polygon1780" />
			<path
   d="m 781.4,214.3 c -0.3,0 -0.7,-0.1 -0.9,-0.3 -0.4,-0.3 -0.7,-0.8 -0.7,-1.3 v -63.4 c 0,-0.5 0.3,-1 0.7,-1.3 0.4,-0.3 1,-0.4 1.5,-0.2 l 50.6,18.2 c 0.6,0.2 1,0.7 1.1,1.3 l 3.4,25.9 c 0.1,0.8 -0.3,1.5 -1.1,1.8 l -54,19.4 c -0.2,-0.2 -0.4,-0.1 -0.6,-0.1 z m 1.7,-62.8 v 58.8 l 50.5,-18.2 -3.1,-23.5 z"
   id="path1782" />
		</g><g
   id="g1790">
			<polygon
   fill="#a7a9ac"
   points="832.5,171.2 834.9,189.4 858.9,180.7 "
   id="polygon1786" />
			<path
   d="m 834.9,191 c -0.3,0 -0.6,-0.1 -0.9,-0.2 -0.4,-0.3 -0.7,-0.7 -0.8,-1.2 l -2.4,-18.1 c -0.1,-0.6 0.2,-1.1 0.6,-1.5 0.4,-0.4 1.1,-0.5 1.6,-0.3 l 26.4,9.5 c 0.7,0.2 1.1,0.9 1.1,1.5 0,0.7 -0.4,1.3 -1.1,1.5 l -24,8.6 c -0.2,0.2 -0.3,0.2 -0.5,0.2 z m -0.4,-17.3 1.8,13.4 17.8,-6.4 z"
   id="path1788" />
		</g><g
   id="g1796">
		<path
   d="m 1218.1,318.9 h -107.6 c -0.9,0 -1.6,-0.7 -1.6,-1.6 V 209.6 c 0,-0.9 0.7,-1.6 1.6,-1.6 h 107.6 c 0.9,0 1.6,0.7 1.6,1.6 v 107.6 c 0,0.9 -0.7,1.7 -1.6,1.7 z m -105.9,-3.3 h 104.3 V 211.3 h -104.3 z"
   id="path1794" />
	</g><path
   fill="#ffa99a"
   d="m 1200,281.9 c 2,-3.8 3.4,-8 4,-12.4 l -10.9,-3.6 c 0.1,-0.8 0.1,-1.7 0.1,-2.5 0,-0.8 -0.1,-1.7 -0.1,-2.5 l 10.9,-3.6 c -0.7,-4.4 -2.1,-8.6 -4,-12.4 l -10.9,3.6 c -0.9,-1.4 -1.8,-2.8 -2.9,-4 l 6.8,-9.3 c -3.1,-3.1 -6.6,-5.7 -10.6,-7.7 l -6.7,9.3 c -1.5,-0.6 -3.1,-1.1 -4.8,-1.5 v -11.5 c -2.1,-0.3 -4.3,-0.5 -6.5,-0.5 -2.2,0 -4.4,0.2 -6.5,0.5 v 11.5 c -1.6,0.4 -3.2,0.9 -4.8,1.5 l -6.7,-9.3 c -3.9,2 -7.5,4.6 -10.6,7.7 l 6.8,9.3 c -1.1,1.3 -2.1,2.6 -2.9,4 l -10.9,-3.6 c -2,3.8 -3.4,8 -4,12.4 l 10.9,3.6 c -0.1,0.8 -0.1,1.7 -0.1,2.5 0,0.8 0.1,1.7 0.1,2.5 l -10.9,3.6 c 0.7,4.4 2.1,8.6 4,12.4 l 10.9,-3.6 c 0.9,1.4 1.8,2.8 2.9,4 l -6.8,9.3 c 3.1,3.1 6.6,5.7 10.6,7.7 l 6.7,-9.3 c 1.5,0.6 3.1,1.1 4.8,1.5 V 303 c 2.1,0.3 4.3,0.5 6.5,0.5 2.2,0 4.4,-0.2 6.5,-0.5 v -11.5 c 1.6,-0.4 3.2,-0.9 4.8,-1.5 l 6.7,9.3 c 3.9,-2 7.5,-4.6 10.6,-7.7 l -6.8,-9.3 c 1.1,-1.3 2.1,-2.6 2.9,-4 z m -35.7,1.1 c -10.8,0 -19.6,-8.8 -19.6,-19.6 0,-10.8 8.8,-19.6 19.6,-19.6 10.8,0 19.6,8.8 19.6,19.6 0,10.9 -8.8,19.6 -19.6,19.6 z"
   id="path1798"
   style="fill:#78c261;fill-opacity:1" /><path
   d="m 1164.3,305.3 c -2.2,0 -4.5,-0.2 -6.8,-0.6 -0.8,-0.1 -1.4,-0.8 -1.4,-1.6 v -10.2 c -0.9,-0.2 -1.7,-0.5 -2.5,-0.8 l -6,8.2 c -0.5,0.7 -1.3,0.9 -2.1,0.5 -4.1,-2.1 -7.8,-4.7 -11,-8 -0.6,-0.6 -0.6,-1.5 -0.2,-2.1 l 6,-8.3 c -0.5,-0.7 -1.1,-1.4 -1.6,-2.2 l -9.7,3.2 c -0.8,0.2 -1.6,-0.1 -2,-0.8 -2.1,-4.1 -3.5,-8.4 -4.2,-12.9 -0.1,-0.8 0.4,-1.6 1.1,-1.8 l 9.7,-3.2 c 0,-0.4 0,-0.9 0,-1.3 0,-0.4 0,-0.9 0,-1.3 l -9.7,-3.2 c -0.8,-0.2 -1.2,-1 -1.1,-1.8 0.7,-4.5 2.1,-8.9 4.2,-12.9 0.4,-0.7 1.2,-1.1 2,-0.8 l 9.7,3.2 c 0.5,-0.7 1,-1.5 1.6,-2.2 l -6,-8.3 c -0.5,-0.7 -0.4,-1.5 0.2,-2.1 3.2,-3.3 6.9,-5.9 11,-8 0.7,-0.4 1.6,-0.1 2.1,0.5 l 6,8.2 c 0.8,-0.3 1.7,-0.6 2.5,-0.8 v -10.2 c 0,-0.8 0.6,-1.5 1.4,-1.6 4.5,-0.7 9,-0.7 13.6,0 0.8,0.1 1.4,0.8 1.4,1.6 v 10.2 c 0.9,0.2 1.7,0.5 2.5,0.8 l 6,-8.2 c 0.5,-0.7 1.3,-0.9 2.1,-0.5 4.1,2.1 7.8,4.7 11,8 0.6,0.6 0.6,1.5 0.2,2.1 l -6,8.3 c 0.5,0.7 1.1,1.4 1.6,2.2 l 9.7,-3.2 c 0.8,-0.2 1.6,0.1 2,0.8 2.1,4.1 3.5,8.4 4.2,12.9 0.1,0.8 -0.4,1.6 -1.1,1.8 l -9.7,3.2 c 0,0.4 0,0.9 0,1.3 0,0.4 0,0.9 0,1.3 l 9.7,3.2 c 0.8,0.2 1.2,1 1.1,1.8 -0.7,4.5 -2.1,8.9 -4.2,12.9 -0.4,0.7 -1.2,1.1 -2,0.8 l -9.7,-3.2 c -0.5,0.7 -1,1.5 -1.6,2.2 l 6,8.3 c 0.5,0.7 0.4,1.5 -0.2,2.1 -3.2,3.3 -6.9,5.9 -11,8 -0.7,0.4 -1.6,0.1 -2.1,-0.5 l -6,-8.2 c -0.8,0.3 -1.7,0.6 -2.5,0.8 v 10.2 c 0,0.8 -0.6,1.5 -1.4,1.6 -2.3,0.4 -4.6,0.6 -6.8,0.6 z m -4.9,-3.6 c 3.3,0.4 6.5,0.4 9.8,0 v -10.1 c 0,-0.8 0.5,-1.4 1.3,-1.6 1.6,-0.4 3.1,-0.9 4.5,-1.4 0.7,-0.3 1.5,-0.1 2,0.5 l 5.9,8.1 c 2.9,-1.6 5.5,-3.5 7.9,-5.8 l -5.9,-8.2 c -0.4,-0.6 -0.4,-1.5 0.1,-2 1,-1.2 1.9,-2.4 2.8,-3.8 0.4,-0.7 1.2,-0.9 1.9,-0.7 l 9.6,3.1 c 1.4,-3 2.4,-6.1 3,-9.3 l -9.6,-3.1 c -0.7,-0.2 -1.2,-0.9 -1.1,-1.7 0.1,-0.8 0.1,-1.6 0.1,-2.4 0,-0.8 -0.1,-1.6 -0.1,-2.4 -0.1,-0.8 0.4,-1.5 1.1,-1.7 l 9.6,-3.1 c -0.6,-3.2 -1.6,-6.3 -3,-9.3 l -9.6,3.1 c -0.7,0.2 -1.5,-0.1 -1.9,-0.7 -0.8,-1.4 -1.8,-2.6 -2.8,-3.8 -0.5,-0.6 -0.5,-1.4 -0.1,-2 l 5.9,-8.2 c -2.4,-2.2 -5,-4.2 -7.9,-5.8 l -5.9,8.1 c -0.5,0.6 -1.3,0.8 -2,0.5 -1.4,-0.6 -2.9,-1.1 -4.5,-1.4 -0.7,-0.2 -1.3,-0.8 -1.3,-1.6 v -10.1 c -3.3,-0.4 -6.5,-0.4 -9.8,0 V 235 c 0,0.8 -0.5,1.4 -1.3,1.6 -1.6,0.4 -3.1,0.9 -4.5,1.4 -0.7,0.3 -1.5,0.1 -2,-0.5 l -5.9,-8.1 c -2.9,1.6 -5.5,3.5 -7.9,5.8 l 5.9,8.1 c 0.4,0.6 0.4,1.5 -0.1,2 -1,1.2 -1.9,2.5 -2.8,3.8 -0.4,0.7 -1.2,1 -1.9,0.7 l -9.6,-3.1 c -1.4,3 -2.4,6.1 -3,9.3 l 9.6,3.1 c 0.7,0.2 1.2,0.9 1.1,1.7 -0.1,0.8 -0.1,1.6 -0.1,2.4 0,0.8 0.1,1.6 0.1,2.4 0.1,0.8 -0.4,1.5 -1.1,1.7 l -9.6,3.1 c 0.6,3.2 1.6,6.3 3,9.3 l 9.6,-3.1 c 0.7,-0.2 1.5,0.1 1.9,0.7 0.8,1.4 1.8,2.7 2.8,3.8 0.5,0.6 0.5,1.4 0.1,2 l -5.9,8.2 c 2.4,2.2 5,4.2 7.9,5.8 l 5.9,-8.1 c 0.4,-0.6 1.3,-0.8 2,-0.5 1.4,0.6 2.9,1.1 4.5,1.4 0.7,0.2 1.3,0.8 1.3,1.6 z m 4.9,-17 c -11.7,0 -21.3,-9.5 -21.3,-21.2 0,-11.7 9.5,-21.3 21.3,-21.3 11.7,0 21.3,9.5 21.3,21.3 0,11.6 -9.6,21.2 -21.3,21.2 z m 0,-39.2 c -9.9,0 -18,8.1 -18,18 0,9.9 8.1,18 18,18 9.9,0 18,-8.1 18,-18 0,-10 -8.1,-18 -18,-18 z"
   id="path1800" /><g
   id="g1808">
		<rect
   x="1231.9"
   y="223.2"
   fill="#ffe3aa"
   width="65.400002"
   height="17"
   id="rect1804" />
		<path
   d="m 1297.3,241.9 h -65.4 c -0.9,0 -1.6,-0.7 -1.6,-1.6 v -17 c 0,-0.9 0.7,-1.6 1.6,-1.6 h 65.4 c 0.9,0 1.6,0.7 1.6,1.6 v 17 c 0,0.8 -0.7,1.6 -1.6,1.6 z m -63.8,-3.3 h 62.1 v -13.7 h -62.1 z"
   id="path1806" />
	</g><g
   id="g1814">
		<rect
   x="1110.5"
   y="334.70001"
   fill="#ffe3aa"
   width="152.39999"
   height="17"
   id="rect1810" />
		<path
   d="m 1262.9,353.3 h -152.4 c -0.9,0 -1.6,-0.7 -1.6,-1.6 v -17 c 0,-0.9 0.7,-1.6 1.6,-1.6 h 152.4 c 0.9,0 1.6,0.7 1.6,1.6 v 17 c 0,0.9 -0.7,1.6 -1.6,1.6 z m -150.7,-3.2 h 149.1 v -13.7 h -149.1 z"
   id="path1812" />
	</g><g
   id="g1820">
		<rect
   x="1110.5"
   y="365.79999"
   fill="#ffe3aa"
   width="101.1"
   height="17"
   id="rect1816" />
		<path
   d="m 1211.6,384.5 h -101.1 c -0.9,0 -1.6,-0.7 -1.6,-1.6 v -17 c 0,-0.9 0.7,-1.6 1.6,-1.6 h 101.1 c 0.9,0 1.6,0.7 1.6,1.6 v 17 c 0,0.8 -0.7,1.6 -1.6,1.6 z m -99.4,-3.3 h 97.8 v -13.7 h -97.8 z"
   id="path1818" />
	</g><g
   id="g1826">
		<rect
   x="1233.9"
   y="365.79999"
   fill="#ffe3aa"
   width="45.299999"
   height="17"
   id="rect1822" />
		<path
   d="m 1279.2,384.5 h -45.3 c -0.9,0 -1.6,-0.7 -1.6,-1.6 v -17 c 0,-0.9 0.7,-1.6 1.6,-1.6 h 45.3 c 0.9,0 1.6,0.7 1.6,1.6 v 17 c 0,0.8 -0.7,1.6 -1.6,1.6 z m -43.7,-3.3 h 42 v -13.7 h -42 z"
   id="path1824" />
	</g><g
   id="g1832">
		<rect
   x="1110.5"
   y="396.89999"
   fill="#ffe3aa"
   width="186.8"
   height="17"
   id="rect1828" />
		<path
   d="m 1297.3,415.6 h -186.8 c -0.9,0 -1.6,-0.7 -1.6,-1.6 v -17 c 0,-0.9 0.7,-1.6 1.6,-1.6 h 186.8 c 0.9,0 1.6,0.7 1.6,1.6 v 17 c 0,0.9 -0.7,1.6 -1.6,1.6 z m -185.1,-3.3 h 183.5 v -13.7 h -183.5 z"
   id="path1830" />
	</g><g
   id="g1838">
		<rect
   x="1110.5"
   y="428.10001"
   fill="#ffe3aa"
   width="113.5"
   height="17"
   id="rect1834" />
		<path
   d="m 1224,446.7 h -113.5 c -0.9,0 -1.6,-0.7 -1.6,-1.6 v -17 c 0,-0.9 0.7,-1.6 1.6,-1.6 H 1224 c 0.9,0 1.6,0.7 1.6,1.6 v 17 c 0.1,0.9 -0.7,1.6 -1.6,1.6 z m -111.8,-3.3 h 110.2 v -13.7 h -110.2 z"
   id="path1836" />
	</g><g
   id="g1844">
		<rect
   x="1231.9"
   y="286.60001"
   fill="#ffe3aa"
   width="52.5"
   height="17"
   id="rect1840" />
		<path
   d="m 1284.4,305.3 h -52.5 c -0.9,0 -1.6,-0.7 -1.6,-1.6 v -17 c 0,-0.9 0.7,-1.6 1.6,-1.6 h 52.5 c 0.9,0 1.6,0.7 1.6,1.6 v 17 c 0,0.9 -0.7,1.6 -1.6,1.6 z m -50.9,-3.3 h 49.2 v -13.7 h -49.2 z"
   id="path1842" />
	</g><g
   id="g1850">
		<rect
   x="1231.9"
   y="254.89999"
   fill="#ffe3aa"
   width="37.900002"
   height="17"
   id="rect1846" />
		<path
   d="m 1269.8,273.6 h -37.9 c -0.9,0 -1.6,-0.7 -1.6,-1.6 v -17 c 0,-0.9 0.7,-1.6 1.6,-1.6 h 37.9 c 0.9,0 1.6,0.7 1.6,1.6 v 17 c 0.1,0.9 -0.7,1.6 -1.6,1.6 z m -36.3,-3.3 h 34.7 v -13.7 h -34.7 z"
   id="path1848" />
	</g><g
   id="g1856">
		<rect
   x="397.89999"
   y="300.79999"
   fill="#ffffff"
   width="54.799999"
   height="56.599998"
   id="rect1852" />
		<path
   d="m 452.7,359 h -54.8 c -0.9,0 -1.6,-0.7 -1.6,-1.6 v -56.6 c 0,-0.9 0.7,-1.6 1.6,-1.6 h 54.8 c 0.9,0 1.6,0.7 1.6,1.6 v 56.6 c 0,0.9 -0.7,1.6 -1.6,1.6 z m -53.2,-3.3 H 451 v -53.3 h -51.5 z"
   id="path1854" />
	</g><g
   id="g1864">
		<g
   id="g1862">
			<polygon
   fill="#e6e7e8"
   points="426.6,311.6 440.6,311.6 423.2,329.1 440.7,346.5 426.6,346.6 409.1,329.1 "
   id="polygon1858" />
			<path
   d="m 426.6,348.2 c -0.4,0 -0.9,-0.2 -1.2,-0.5 l -17.5,-17.5 c -0.3,-0.3 -0.5,-0.7 -0.5,-1.2 0,-0.4 0.2,-0.9 0.5,-1.2 l 17.5,-17.5 c 0.3,-0.3 0.7,-0.5 1.2,-0.5 h 14.1 c 0.7,0 1.3,0.4 1.5,1 0.3,0.6 0.1,1.3 -0.4,1.8 l -16.3,16.3 16.4,16.3 c 0.5,0.5 0.6,1.2 0.4,1.8 -0.3,0.6 -0.9,1 -1.5,1 l -14.2,0.2 c 0,0 0,0 0,0 z m -15.2,-19.1 15.8,15.8 h 9.5 L 422,330.2 c -0.3,-0.3 -0.5,-0.7 -0.5,-1.2 0,-0.4 0.2,-0.9 0.5,-1.2 l 14.7,-14.7 h -9.4 z"
   id="path1860" />
		</g>
	</g><g
   id="g1870">
		<rect
   x="478.70001"
   y="300.79999"
   fill="#ffffff"
   width="54.799999"
   height="56.599998"
   id="rect1866" />
		<path
   d="m 533.5,359 h -54.8 c -0.9,0 -1.6,-0.7 -1.6,-1.6 v -56.6 c 0,-0.9 0.7,-1.6 1.6,-1.6 h 54.8 c 0.9,0 1.6,0.7 1.6,1.6 v 56.6 c 0,0.9 -0.7,1.6 -1.6,1.6 z m -53.2,-3.3 h 51.5 v -53.3 h -51.5 z"
   id="path1868" />
	</g><g
   id="g1878">
		<g
   id="g1876">
			<polygon
   fill="#e6e7e8"
   points="504.4,311.6 490.3,311.6 507.8,329.1 490.3,346.5 504.4,346.6 521.9,329.1 "
   id="polygon1872" />
			<path
   d="m 504.4,348.2 c 0,0 0,0 0,0 h -14.2 c -0.7,0 -1.3,-0.4 -1.5,-1 -0.3,-0.6 -0.1,-1.3 0.4,-1.8 l 16.4,-16.3 -16.3,-16.3 c -0.5,-0.5 -0.6,-1.2 -0.4,-1.8 0.3,-0.6 0.9,-1 1.5,-1 v 0 h 14.1 c 0.4,0 0.9,0.2 1.2,0.5 l 17.5,17.5 c 0.3,0.3 0.5,0.7 0.5,1.2 0,0.4 -0.2,0.9 -0.5,1.2 l -17.5,17.5 c -0.3,0.1 -0.7,0.3 -1.2,0.3 z m -10.2,-3.3 h 9.5 l 15.8,-15.8 -15.8,-15.8 h -9.4 L 509,328 c 0.3,0.3 0.5,0.7 0.5,1.2 0,0.4 -0.2,0.9 -0.5,1.2 z"
   id="path1874" />
		</g>
	</g><g
   id="g1916">
		<g
   id="g1882">
			<path
   d="m 700,661.2 c -20.5,0 -39.7,-9 -52.7,-24.8 H 433.1 c -0.9,0 -1.6,-0.7 -1.6,-1.6 0,-0.9 0.7,-1.6 1.6,-1.6 h 215 c 0.5,0 1,0.2 1.3,0.6 12.4,15.4 30.9,24.2 50.7,24.2 19.8,0 38.2,-8.8 50.7,-24.2 0.3,-0.4 0.8,-0.6 1.3,-0.6 h 215 c 0.9,0 1.6,0.7 1.6,1.6 0,0.9 -0.7,1.6 -1.6,1.6 H 752.7 c -13.1,15.8 -32.2,24.8 -52.7,24.8 z"
   id="path1880" />
		</g>
		<g
   id="g1914">
			<g
   id="g1886">
				<path
   d="m 948.7,624.1 c -0.2,0 -0.5,0 -0.7,-0.1 -3.1,-1.4 -6.1,-2.7 -9.1,-4 -67.4,-29 -124.6,-43.8 -170,-43.8 -50.6,0 -67.6,18.8 -67.7,19 -0.3,0.4 -0.8,0.6 -1.2,0.6 v 0 c -0.5,0 -0.9,-0.2 -1.2,-0.6 -0.2,-0.2 -17.3,-19.1 -67.9,-19.1 -45.3,0 -102.4,14.7 -169.8,43.8 -3,1.3 -6.1,2.6 -9.1,4 -0.5,0.2 -1.1,0.2 -1.6,-0.1 -0.5,-0.3 -0.7,-0.8 -0.7,-1.4 v -12.6 c 0,-0.6 0.4,-1.2 0.9,-1.5 2.8,-1.3 5.5,-2.6 8.2,-3.8 v -10.9 c 0,-0.6 0.4,-1.2 1,-1.5 68.1,-30.6 125.9,-46.2 171.9,-46.2 44.5,0 63.5,14.7 68.3,19.2 4.8,-4.5 23.8,-19.2 68.3,-19.2 46,0 103.8,15.5 171.9,46.2 0.6,0.3 1,0.9 1,1.5 v 11 c 2.7,1.2 5.5,2.5 8.2,3.8 0.6,0.3 0.9,0.9 0.9,1.5 v 12.6 c 0,0.6 -0.3,1.1 -0.7,1.4 -0.2,0.1 -0.5,0.2 -0.9,0.2 z M 769,572.9 c 45.8,0 103.4,14.8 171.3,44 2.3,1 4.6,2 6.9,3 v -9 c -2.8,-1.3 -5.5,-2.6 -8.2,-3.8 -0.6,-0.3 -1,-0.9 -1,-1.5 v -11 c -67.3,-30.2 -124.3,-45.4 -169.6,-45.4 -49.8,0 -66.9,19.1 -67.1,19.3 -0.6,0.7 -1.9,0.7 -2.5,0 -0.2,-0.2 -17.3,-19.3 -67.1,-19.3 -45.3,0 -102.4,15.3 -169.6,45.4 v 10.9 c 0,0.6 -0.4,1.2 -1,1.5 -2.7,1.2 -5.4,2.5 -8.2,3.8 v 9 c 2.3,-1 4.6,-2 6.9,-3 67.8,-29.3 125.4,-44.1 171.1,-44.1 45.2,0 64.3,14.6 69.1,19 4.8,-4.4 23.9,-18.8 69,-18.8 z"
   id="path1884" />
			</g>
			<g
   id="g1892">
				<path
   fill="#e6e7e8"
   d="m 948.7,622.4 c -3.1,-1.4 -6.1,-2.7 -9.2,-4 C 750.1,536.8 700,594 700,594 c 0,0 -49.8,-57.6 -239.6,24.2 -3,1.3 -6.1,2.6 -9.2,4 -3,1.3 -6.1,2.7 -9.2,4.1 v 8.3 h 9.2 9.2 187.7 103.9 187.7 9.2 9.2 v -8.2 c -3.3,-1.3 -6.3,-2.6 -9.4,-4 z"
   id="path1888" />
				<path
   d="M 957.9,636.4 H 442.1 c -0.9,0 -1.6,-0.7 -1.6,-1.6 v -8.3 c 0,-0.6 0.4,-1.2 1,-1.5 3.1,-1.4 6.2,-2.8 9.2,-4.1 3.1,-1.4 6.1,-2.7 9.2,-4 67.8,-29.3 125.4,-44.1 171.1,-44.1 45.2,0 64.3,14.6 69.1,19 4.8,-4.4 23.9,-18.8 69,-18.8 45.8,0 103.4,14.8 171.3,44 3,1.3 6.1,2.6 9.2,4 3,1.3 6.1,2.7 9.2,4.1 0.6,0.3 1,0.9 1,1.5 v 8.2 c -0.3,0.8 -1,1.6 -1.9,1.6 z m -514.2,-3.3 h 512.5 v -5.5 c -2.8,-1.3 -5.5,-2.5 -8.2,-3.7 -3.1,-1.4 -6.1,-2.7 -9.1,-4 -67.4,-29 -124.6,-43.8 -170,-43.8 -50.4,0 -67.6,18.8 -67.7,19 -0.3,0.4 -0.8,0.6 -1.2,0.6 0,0 0,0 0,0 -0.5,0 -0.9,-0.2 -1.2,-0.6 -0.2,-0.2 -17.3,-19.1 -67.9,-19.1 -45.3,0 -102.4,14.7 -169.8,43.8 -3,1.3 -6.1,2.6 -9.1,4 -2.7,1.2 -5.4,2.4 -8.2,3.7 v 5.6 z"
   id="path1890" />
			</g>
			<g
   id="g1896">
				<path
   d="m 700,636.4 c -0.9,0 -1.6,-0.7 -1.6,-1.6 v -67.4 c 0,-0.9 0.7,-1.6 1.6,-1.6 0.9,0 1.6,0.7 1.6,1.6 v 67.4 c 0,0.8 -0.7,1.6 -1.6,1.6 z"
   id="path1894" />
			</g>
			<g
   id="g1900">
				<path
   d="m 700,608.4 c -0.3,0 -0.6,-0.1 -0.9,-0.3 -0.5,-0.3 -49.4,-30.2 -145.5,-3.2 -0.9,0.2 -1.8,-0.3 -2,-1.1 -0.2,-0.9 0.3,-1.8 1.1,-2 97.7,-27.4 147.7,3.3 148.2,3.6 0.8,0.5 1,1.5 0.5,2.3 -0.3,0.4 -0.9,0.7 -1.4,0.7 z"
   id="path1898" />
			</g>
			<g
   id="g1904">
				<path
   d="m 700,621.2 c -0.2,0 -0.4,0 -0.6,-0.1 -0.4,-0.2 -43.7,-18.1 -107.2,-6.5 -0.9,0.2 -1.7,-0.4 -1.9,-1.3 -0.2,-0.9 0.4,-1.7 1.3,-1.9 64.5,-11.8 108.6,6.5 109,6.7 0.8,0.4 1.2,1.3 0.9,2.2 -0.3,0.5 -0.9,0.9 -1.5,0.9 z"
   id="path1902" />
			</g>
			<g
   id="g1908">
				<path
   d="m 700,608.4 c -0.5,0 -1.1,-0.3 -1.4,-0.8 -0.5,-0.8 -0.3,-1.8 0.5,-2.3 0.5,-0.3 50.5,-31 148.2,-3.6 0.9,0.2 1.4,1.2 1.1,2 -0.2,0.9 -1.2,1.4 -2,1.1 -96.2,-26.9 -145,2.9 -145.5,3.2 -0.3,0.3 -0.6,0.4 -0.9,0.4 z"
   id="path1906" />
			</g>
			<g
   id="g1912">
				<path
   d="m 700,621.2 c -0.6,0 -1.2,-0.4 -1.5,-1 -0.4,-0.8 0,-1.8 0.9,-2.2 0.4,-0.2 44.5,-18.5 109,-6.7 0.9,0.2 1.5,1 1.3,1.9 -0.2,0.9 -1,1.5 -1.9,1.3 -63.5,-11.6 -106.7,6.3 -107.2,6.5 -0.2,0.1 -0.4,0.2 -0.6,0.2 z"
   id="path1910" />
			</g>
		</g>
	</g><g
   id="g1930">
		<g
   id="g1922">
			<path
   fill="#6d6e71"
   d="m 700,466.8 c 39.2,0 70.9,5.6 70.9,12.5 v 19.5 l 85.1,-28.9 -156,-53.1 -156,53.1 85.1,28.9 v -19.5 c 0,-6.9 31.7,-12.5 70.9,-12.5 z"
   id="path1918" />
			<path
   d="m 770.9,500.5 c -0.3,0 -0.7,-0.1 -1,-0.3 -0.4,-0.3 -0.7,-0.8 -0.7,-1.3 v -19.5 c 0,-4.4 -27,-10.9 -69.3,-10.9 -42.3,0 -69.3,6.4 -69.3,10.9 v 19.5 c 0,0.5 -0.3,1 -0.7,1.3 -0.4,0.3 -1,0.4 -1.5,0.2 l -85.1,-28.9 c -0.7,-0.2 -1.1,-0.9 -1.1,-1.6 0,-0.7 0.4,-1.3 1.1,-1.6 l 156,-53.1 c 0.3,-0.1 0.7,-0.1 1.1,0 l 156,53.1 c 0.7,0.2 1.1,0.9 1.1,1.6 0,0.7 -0.4,1.3 -1.1,1.6 l -85.1,28.9 c 0,0.1 -0.2,0.1 -0.4,0.1 z M 700,465.2 c 29.2,0 72.6,3.8 72.6,14.2 v 17.2 L 851,470 700,418.6 549.1,469.9 627.5,496.5 V 479.3 C 627.4,469 670.8,465.2 700,465.2 Z"
   id="path1920" />
		</g>
		<g
   id="g1928">
			<path
   fill="#a7a9ac"
   d="m 700,466.8 c -39.2,0 -70.9,5.6 -70.9,12.5 v 19.5 18.7 c 0,0 42.3,1.5 70.9,16.6 28.7,-15.1 70.9,-16.6 70.9,-16.6 v -18.7 -19.5 c 0,-6.9 -31.7,-12.5 -70.9,-12.5 z"
   id="path1924" />
			<path
   d="m 700,535.8 c -0.3,0 -0.5,-0.1 -0.8,-0.2 -28,-14.7 -69.8,-16.4 -70.2,-16.4 -0.9,0 -1.6,-0.8 -1.6,-1.6 v -38.2 c 0,-10.4 43.4,-14.2 72.6,-14.2 29.2,0 72.6,3.8 72.6,14.2 v 38.2 c 0,0.9 -0.7,1.6 -1.6,1.6 -0.4,0 -42.2,1.7 -70.2,16.4 -0.3,0.2 -0.5,0.2 -0.8,0.2 z M 630.7,516 c 7.9,0.5 43.8,3.2 69.3,16.3 25.5,-13.1 61.4,-15.9 69.3,-16.3 v -36.7 c 0,-4.4 -27,-10.9 -69.3,-10.9 -42.3,0 -69.3,6.4 -69.3,10.9 z"
   id="path1926" />
		</g>
	</g><path
   fill="#4d7c9a"
   d="M 966.9,634.7 H 751.9 743.4 657.7 648 434.3 V 643 H 656 c 11.7,10.3 27.1,16.6 44,16.6 16.9,0 32.2,-6.3 44,-16.6 h 222.9 z"
   id="path1932"
   style="fill:#312eff;fill-opacity:1" /><path
   d="m 700,661.2 c -16.4,0 -32.2,-5.9 -44.6,-16.6 H 434.3 c -0.9,0 -1.6,-0.7 -1.6,-1.6 v -8.3 c 0,-0.9 0.7,-1.6 1.6,-1.6 h 532.6 c 0.9,0 1.6,0.7 1.6,1.6 v 8.3 c 0,0.9 -0.7,1.6 -1.6,1.6 H 744.6 c -12.4,10.7 -28.2,16.6 -44.6,16.6 z M 435.9,641.4 H 656 c 0.4,0 0.8,0.1 1.1,0.4 11.9,10.4 27.1,16.2 42.9,16.2 15.8,0 31,-5.7 42.9,-16.2 0.3,-0.3 0.7,-0.4 1.1,-0.4 h 221.3 v -5 H 435.9 Z"
   id="path1934" />
</svg>
