<?xml version="1.0" encoding="utf-8"?>
<!-- Generator: Adobe Illustrator 16.0.0, SVG Export Plug-In . SVG Version: 6.00 Build 0)  -->
<!DOCTYPE svg PUBLIC "-//W3C//DTD SVG 1.1//EN" "http://www.w3.org/Graphics/SVG/1.1/DTD/svg11.dtd">
<svg version="1.1" id="Layer_1" xmlns="http://www.w3.org/2000/svg" xmlns:xlink="http://www.w3.org/1999/xlink" x="0px" y="0px"
	 width="1400px" height="980px" viewBox="0 0 1400 980" enable-background="new 0 0 1400 980" xml:space="preserve">
<g>
	<g>
		<g>
			<rect fill="#FFFFFF" width="1400" height="980"/>
		</g>
	</g>
	<g>
		<path fill="#FFA99A" d="M1045.4,708.3c0,22.4-18.2,40.6-40.6,40.6H395.2c-22.4,0-40.6-18.2-40.6-40.6V295.2
			c0-22.4,18.2-40.6,40.6-40.6h609.6c22.4,0,40.6,18.2,40.6,40.6V708.3z"/>
		<path d="M1004.8,750.6H395.2c-23.3,0-42.3-19-42.3-42.3V295.2c0-23.3,19-42.3,42.3-42.3h609.6c23.3,0,42.3,19,42.3,42.3v413.1
			C1047.1,731.7,1028.1,750.6,1004.8,750.6z M395.2,256.2c-21.5,0-39,17.5-39,39v413.1c0,21.5,17.5,39,39,39h609.6
			c21.5,0,39-17.5,39-39V295.2c0-21.5-17.5-39-39-39H395.2z"/>
	</g>
	<g>
		<rect x="560.2" y="300.8" fill="#FFFFFF" width="442.1" height="56.6"/>
		<path d="M1002.2,359H560.2c-0.9,0-1.6-0.7-1.6-1.6v-56.6c0-0.9,0.7-1.6,1.6-1.6h442.1c0.9,0,1.6,0.7,1.6,1.6v56.6
			C1003.9,358.3,1003.1,359,1002.2,359z M561.8,355.7h438.8v-53.3H561.8V355.7z"/>
	</g>
	<g>
		<polygon fill="#231F20" points="593.8,336.5 588.6,321.6 586.2,321.6 581.1,336.4 575,317.3 574.9,316.7 571.8,316.7 579.6,341.4 
			579.8,341.9 582.3,341.9 587.4,327.3 592.5,341.9 595.1,341.9 603.2,316.7 600.1,316.7 		"/>
		<polygon fill="#231F20" points="636.1,336.5 630.9,321.6 628.5,321.6 623.4,336.4 617.4,317.3 617.2,316.7 614.1,316.7 
			621.9,341.4 622.1,341.9 624.7,341.9 629.7,327.3 634.9,341.9 637.4,341.9 645.5,316.7 642.4,316.7 		"/>
		<polygon fill="#231F20" points="678.4,336.5 673.2,321.6 670.8,321.6 665.7,336.4 659.7,317.3 659.5,316.7 656.4,316.7 
			664.2,341.4 664.4,341.9 667,341.9 672,327.3 677.2,341.9 679.7,341.9 687.8,316.7 684.7,316.7 		"/>
		<path fill="#231F20" d="M705.3,336.4c-0.8,0-1.8,0.5-1.8,2.9c0,2.4,1,2.9,1.8,2.9s1.8-0.5,1.8-2.9
			C707.1,336.9,706.1,336.4,705.3,336.4z"/>
		<path fill="#231F20" d="M705.3,324.2c0.8,0,1.8-0.5,1.8-2.9s-1-2.9-1.8-2.9s-1.8,0.5-1.8,2.9S704.5,324.2,705.3,324.2z"/>
	</g>
	<g>
		<rect x="397.9" y="386.2" fill="#FFFFFF" width="604.4" height="316.6"/>
		<path d="M1002.2,704.4H397.9c-0.9,0-1.6-0.7-1.6-1.6V386.2c0-0.9,0.7-1.6,1.6-1.6h604.4c0.9,0,1.6,0.7,1.6,1.6v316.6
			C1003.9,703.7,1003.1,704.4,1002.2,704.4z M399.5,701.1h601.1V387.8H399.5V701.1z"/>
	</g>
	<g>
		<rect x="178" y="692.4" fill="#FFFFFF" width="493.7" height="162.3"/>
		<path d="M671.7,856.3H178c-0.9,0-1.6-0.7-1.6-1.6V692.4c0-0.9,0.7-1.6,1.6-1.6h493.7c0.9,0,1.6,0.7,1.6,1.6v162.3
			C673.4,855.6,672.7,856.3,671.7,856.3z M179.7,853h490.4V694H179.7V853z"/>
	</g>
	<g>
		<rect x="197.3" y="713.3" fill="#E6E7E8" width="28.7" height="27.6"/>
		<path d="M226,742.5h-28.7c-0.9,0-1.6-0.7-1.6-1.6v-27.6c0-0.9,0.7-1.6,1.6-1.6H226c0.9,0,1.6,0.7,1.6,1.6v27.6
			C227.6,741.8,226.9,742.5,226,742.5z M198.9,739.3h25.4v-24.3h-25.4V739.3z"/>
	</g>
	<g>
		<rect x="244.7" y="713.3" fill="#E6E7E8" width="28.7" height="27.6"/>
		<path d="M273.4,742.5h-28.7c-0.9,0-1.6-0.7-1.6-1.6v-27.6c0-0.9,0.7-1.6,1.6-1.6h28.7c0.9,0,1.6,0.7,1.6,1.6v27.6
			C275,741.8,274.3,742.5,273.4,742.5z M246.4,739.3h25.4v-24.3h-25.4V739.3z"/>
	</g>
	<g>
		<rect x="292.1" y="713.3" fill="#E6E7E8" width="28.7" height="27.6"/>
		<path d="M320.8,742.5h-28.7c-0.9,0-1.6-0.7-1.6-1.6v-27.6c0-0.9,0.7-1.6,1.6-1.6h28.7c0.9,0,1.6,0.7,1.6,1.6v27.6
			C322.4,741.8,321.7,742.5,320.8,742.5z M293.7,739.3h25.4v-24.3h-25.4V739.3z"/>
	</g>
	<g>
		<rect x="339.5" y="713.3" fill="#E6E7E8" width="28.7" height="27.6"/>
		<path d="M368.2,742.5h-28.7c-0.9,0-1.6-0.7-1.6-1.6v-27.6c0-0.9,0.7-1.6,1.6-1.6h28.7c0.9,0,1.6,0.7,1.6,1.6v27.6
			C369.8,741.8,369.1,742.5,368.2,742.5z M341.1,739.3h25.4v-24.3h-25.4V739.3z"/>
	</g>
	<g>
		<rect x="386.9" y="713.3" fill="#E6E7E8" width="28.7" height="27.6"/>
		<path d="M415.5,742.5h-28.7c-0.9,0-1.6-0.7-1.6-1.6v-27.6c0-0.9,0.7-1.6,1.6-1.6h28.7c0.9,0,1.6,0.7,1.6,1.6v27.6
			C417.2,741.8,416.4,742.5,415.5,742.5z M388.5,739.3h25.4v-24.3h-25.4V739.3z"/>
	</g>
	<g>
		<rect x="434.3" y="713.3" fill="#E6E7E8" width="28.7" height="27.6"/>
		<path d="M462.9,742.5h-28.7c-0.9,0-1.6-0.7-1.6-1.6v-27.6c0-0.9,0.7-1.6,1.6-1.6h28.7c0.9,0,1.6,0.7,1.6,1.6v27.6
			C464.6,741.8,463.8,742.5,462.9,742.5z M435.9,739.3h25.4v-24.3h-25.4V739.3z"/>
	</g>
	<g>
		<rect x="481.6" y="713.3" fill="#E6E7E8" width="28.7" height="27.6"/>
		<path d="M510.3,742.5h-28.7c-0.9,0-1.6-0.7-1.6-1.6v-27.6c0-0.9,0.7-1.6,1.6-1.6h28.7c0.9,0,1.6,0.7,1.6,1.6v27.6
			C512,741.8,511.2,742.5,510.3,742.5z M483.3,739.3h25.4v-24.3h-25.4V739.3z"/>
	</g>
	<g>
		<rect x="529" y="713.3" fill="#E6E7E8" width="28.7" height="27.6"/>
		<path d="M557.7,742.5H529c-0.9,0-1.6-0.7-1.6-1.6v-27.6c0-0.9,0.7-1.6,1.6-1.6h28.7c0.9,0,1.6,0.7,1.6,1.6v27.6
			C559.3,741.8,558.6,742.5,557.7,742.5z M530.7,739.3h25.4v-24.3h-25.4V739.3z"/>
	</g>
	<g>
		<rect x="576.4" y="713.3" fill="#E6E7E8" width="28.7" height="27.6"/>
		<path d="M605.1,742.5h-28.7c-0.9,0-1.6-0.7-1.6-1.6v-27.6c0-0.9,0.7-1.6,1.6-1.6h28.7c0.9,0,1.6,0.7,1.6,1.6v27.6
			C606.7,741.8,606,742.5,605.1,742.5z M578.1,739.3h25.4v-24.3h-25.4V739.3z"/>
	</g>
	<g>
		<rect x="623.8" y="713.3" fill="#E6E7E8" width="28.7" height="27.6"/>
		<path d="M652.5,742.5h-28.7c-0.9,0-1.6-0.7-1.6-1.6v-27.6c0-0.9,0.7-1.6,1.6-1.6h28.7c0.9,0,1.6,0.7,1.6,1.6v27.6
			C654.1,741.8,653.4,742.5,652.5,742.5z M625.4,739.3h25.4v-24.3h-25.4V739.3z"/>
	</g>
	<g>
		<rect x="197.3" y="760.2" fill="#E6E7E8" width="28.7" height="27.6"/>
		<path d="M226,789.5h-28.7c-0.9,0-1.6-0.7-1.6-1.6v-27.6c0-0.9,0.7-1.6,1.6-1.6H226c0.9,0,1.6,0.7,1.6,1.6v27.6
			C227.6,788.8,226.9,789.5,226,789.5z M198.9,786.2h25.4v-24.3h-25.4V786.2z"/>
	</g>
	<g>
		<rect x="244.7" y="760.2" fill="#E6E7E8" width="28.7" height="27.6"/>
		<path d="M273.4,789.5h-28.7c-0.9,0-1.6-0.7-1.6-1.6v-27.6c0-0.9,0.7-1.6,1.6-1.6h28.7c0.9,0,1.6,0.7,1.6,1.6v27.6
			C275,788.8,274.3,789.5,273.4,789.5z M246.4,786.2h25.4v-24.3h-25.4V786.2z"/>
	</g>
	<g>
		<rect x="292.1" y="760.2" fill="#E6E7E8" width="28.7" height="27.6"/>
		<path d="M320.8,789.5h-28.7c-0.9,0-1.6-0.7-1.6-1.6v-27.6c0-0.9,0.7-1.6,1.6-1.6h28.7c0.9,0,1.6,0.7,1.6,1.6v27.6
			C322.4,788.8,321.7,789.5,320.8,789.5z M293.7,786.2h25.4v-24.3h-25.4V786.2z"/>
	</g>
	<g>
		<rect x="339.5" y="760.2" fill="#E6E7E8" width="28.7" height="27.6"/>
		<path d="M368.2,789.5h-28.7c-0.9,0-1.6-0.7-1.6-1.6v-27.6c0-0.9,0.7-1.6,1.6-1.6h28.7c0.9,0,1.6,0.7,1.6,1.6v27.6
			C369.8,788.8,369.1,789.5,368.2,789.5z M341.1,786.2h25.4v-24.3h-25.4V786.2z"/>
	</g>
	<g>
		<rect x="386.9" y="760.2" fill="#E6E7E8" width="28.7" height="27.6"/>
		<path d="M415.5,789.5h-28.7c-0.9,0-1.6-0.7-1.6-1.6v-27.6c0-0.9,0.7-1.6,1.6-1.6h28.7c0.9,0,1.6,0.7,1.6,1.6v27.6
			C417.2,788.8,416.4,789.5,415.5,789.5z M388.5,786.2h25.4v-24.3h-25.4V786.2z"/>
	</g>
	<g>
		<rect x="434.3" y="760.2" fill="#E6E7E8" width="28.7" height="27.6"/>
		<path d="M462.9,789.5h-28.7c-0.9,0-1.6-0.7-1.6-1.6v-27.6c0-0.9,0.7-1.6,1.6-1.6h28.7c0.9,0,1.6,0.7,1.6,1.6v27.6
			C464.6,788.8,463.8,789.5,462.9,789.5z M435.9,786.2h25.4v-24.3h-25.4V786.2z"/>
	</g>
	<g>
		<rect x="576.4" y="760.2" fill="#E6E7E8" width="28.7" height="27.6"/>
		<path d="M605.1,789.5h-28.7c-0.9,0-1.6-0.7-1.6-1.6v-27.6c0-0.9,0.7-1.6,1.6-1.6h28.7c0.9,0,1.6,0.7,1.6,1.6v27.6
			C606.7,788.8,606,789.5,605.1,789.5z M578.1,786.2h25.4v-24.3h-25.4V786.2z"/>
	</g>
	<g>
		<rect x="623.8" y="760.2" fill="#E6E7E8" width="28.7" height="27.6"/>
		<path d="M652.5,789.5h-28.7c-0.9,0-1.6-0.7-1.6-1.6v-27.6c0-0.9,0.7-1.6,1.6-1.6h28.7c0.9,0,1.6,0.7,1.6,1.6v27.6
			C654.1,788.8,653.4,789.5,652.5,789.5z M625.4,786.2h25.4v-24.3h-25.4V786.2z"/>
	</g>
	<g>
		<rect x="197.3" y="807.2" fill="#E6E7E8" width="28.7" height="27.6"/>
		<path d="M226,836.4h-28.7c-0.9,0-1.6-0.7-1.6-1.6v-27.6c0-0.9,0.7-1.6,1.6-1.6H226c0.9,0,1.6,0.7,1.6,1.6v27.6
			C227.6,835.7,226.9,836.4,226,836.4z M198.9,833.1h25.4v-24.3h-25.4V833.1z"/>
	</g>
	<g>
		<rect x="244.7" y="807.2" fill="#E6E7E8" width="28.7" height="27.6"/>
		<path d="M273.4,836.4h-28.7c-0.9,0-1.6-0.7-1.6-1.6v-27.6c0-0.9,0.7-1.6,1.6-1.6h28.7c0.9,0,1.6,0.7,1.6,1.6v27.6
			C275,835.7,274.3,836.4,273.4,836.4z M246.4,833.1h25.4v-24.3h-25.4V833.1z"/>
	</g>
	<g>
		<rect x="292.1" y="807.2" fill="#E6E7E8" width="28.7" height="27.6"/>
		<path d="M320.8,836.4h-28.7c-0.9,0-1.6-0.7-1.6-1.6v-27.6c0-0.9,0.7-1.6,1.6-1.6h28.7c0.9,0,1.6,0.7,1.6,1.6v27.6
			C322.4,835.7,321.7,836.4,320.8,836.4z M293.7,833.1h25.4v-24.3h-25.4V833.1z"/>
	</g>
	<g>
		<rect x="339.5" y="807.2" fill="#E6E7E8" width="123.5" height="27.6"/>
		<path d="M462.9,836.4H339.5c-0.9,0-1.6-0.7-1.6-1.6v-27.6c0-0.9,0.7-1.6,1.6-1.6h123.5c0.9,0,1.6,0.7,1.6,1.6v27.6
			C464.6,835.7,463.8,836.4,462.9,836.4z M341.1,833.1h120.2v-24.3H341.1V833.1z"/>
	</g>
	<g>
		<rect x="481.6" y="807.2" fill="#E6E7E8" width="28.7" height="27.6"/>
		<path d="M510.3,836.4h-28.7c-0.9,0-1.6-0.7-1.6-1.6v-27.6c0-0.9,0.7-1.6,1.6-1.6h28.7c0.9,0,1.6,0.7,1.6,1.6v27.6
			C512,835.7,511.2,836.4,510.3,836.4z M483.3,833.1h25.4v-24.3h-25.4V833.1z"/>
	</g>
	<g>
		<polygon fill="#E6E7E8" points="534.8,760.2 529,760.2 481.6,760.2 481.6,787.8 529,787.8 529,834.8 557.7,834.8 557.7,787.8 
			557.7,776.2 557.7,760.2 		"/>
		<path d="M557.7,836.4H529c-0.9,0-1.6-0.7-1.6-1.6v-45.3h-45.7c-0.9,0-1.6-0.7-1.6-1.6v-27.6c0-0.9,0.7-1.6,1.6-1.6h76.1
			c0.9,0,1.6,0.7,1.6,1.6v74.5C559.3,835.7,558.6,836.4,557.7,836.4z M530.7,833.1h25.4v-71.3h-72.8v24.3H529c0.9,0,1.6,0.7,1.6,1.6
			V833.1z"/>
	</g>
	<g>
		<rect x="576.4" y="807.2" fill="#E6E7E8" width="28.7" height="27.6"/>
		<path d="M605.1,836.4h-28.7c-0.9,0-1.6-0.7-1.6-1.6v-27.6c0-0.9,0.7-1.6,1.6-1.6h28.7c0.9,0,1.6,0.7,1.6,1.6v27.6
			C606.7,835.7,606,836.4,605.1,836.4z M578.1,833.1h25.4v-24.3h-25.4V833.1z"/>
	</g>
	<g>
		<rect x="623.8" y="807.2" fill="#E6E7E8" width="28.7" height="27.6"/>
		<path d="M652.5,836.4h-28.7c-0.9,0-1.6-0.7-1.6-1.6v-27.6c0-0.9,0.7-1.6,1.6-1.6h28.7c0.9,0,1.6,0.7,1.6,1.6v27.6
			C654.1,835.7,653.4,836.4,652.5,836.4z M625.4,833.1h25.4v-24.3h-25.4V833.1z"/>
	</g>
	<g>
		<g>
			<path fill="#FFFFFF" d="M259,692.4V482.9c0-22.7,18.5-41.2,41.2-41.2h53.6"/>
			<path d="M259,694c-0.9,0-1.6-0.7-1.6-1.6v-42.7c0-0.9,0.7-1.6,1.6-1.6s1.6,0.7,1.6,1.6v42.7C260.7,693.3,260,694,259,694z
				 M259,608.5c-0.9,0-1.6-0.7-1.6-1.6v-42.7c0-0.9,0.7-1.6,1.6-1.6s1.6,0.7,1.6,1.6v42.7C260.7,607.8,260,608.5,259,608.5z
				 M259,523c-0.9,0-1.6-0.7-1.6-1.6v-38.5c0-1.5,0.1-3,0.2-4.4c0.1-0.9,0.9-1.6,1.8-1.5c0.9,0.1,1.6,0.9,1.5,1.8
				c-0.1,1.3-0.2,2.7-0.2,4.1v38.5C260.7,522.3,260,523,259,523z M283.1,447.1c-0.6,0-1.2-0.4-1.5-1c-0.4-0.8,0-1.8,0.8-2.2
				c5.6-2.6,11.6-3.9,17.9-3.9h25c0.9,0,1.6,0.7,1.6,1.6s-0.7,1.6-1.6,1.6h-25c-5.7,0-11.3,1.2-16.5,3.6
				C283.6,447.1,283.3,447.1,283.1,447.1z"/>
		</g>
		<g>
			<path d="M259,694c-0.9,0-1.6-0.7-1.6-1.6v-42.7c0-0.9,0.7-1.6,1.6-1.6s1.6,0.7,1.6,1.6v42.7C260.7,693.3,260,694,259,694z
				 M259,608.5c-0.9,0-1.6-0.7-1.6-1.6v-42.7c0-0.9,0.7-1.6,1.6-1.6s1.6,0.7,1.6,1.6v42.7C260.7,607.8,260,608.5,259,608.5z
				 M259,523c-0.9,0-1.6-0.7-1.6-1.6v-38.5c0-1.5,0.1-3,0.2-4.4c0.1-0.9,0.9-1.6,1.8-1.5c0.9,0.1,1.6,0.9,1.5,1.8
				c-0.1,1.3-0.2,2.7-0.2,4.1v38.5C260.7,522.3,260,523,259,523z M283.1,447.1c-0.6,0-1.2-0.4-1.5-1c-0.4-0.8,0-1.8,0.8-2.2
				c5.6-2.6,11.6-3.9,17.9-3.9h25c0.9,0,1.6,0.7,1.6,1.6s-0.7,1.6-1.6,1.6h-25c-5.7,0-11.3,1.2-16.5,3.6
				C283.6,447.1,283.3,447.1,283.1,447.1z"/>
		</g>
	</g>
	<g>
		<g>
			<path d="M1183.8,764h-95.9c-0.9,0-1.6-0.7-1.6-1.6v-23.8c0-26,21.1-47.1,47.1-47.1h5c26,0,47.1,21.1,47.1,47.1v23.8
				C1185.5,763.3,1184.7,764,1183.8,764z M1089.6,760.8h92.6v-22.2c0-24.1-19.6-43.8-43.8-43.8h-5c-24.1,0-43.8,19.6-43.8,43.8
				V760.8z"/>
		</g>
		<g>
			<path d="M1138.4,848.7h-5c-26,0-47.1-21.1-47.1-47.1v-39.3c0-0.9,0.7-1.6,1.6-1.6h95.9c0.9,0,1.6,0.7,1.6,1.6v39.3
				C1185.5,827.6,1164.4,848.7,1138.4,848.7z M1089.6,764v37.6c0,24.1,19.6,43.8,43.8,43.8h5c24.1,0,43.8-19.6,43.8-43.8V764H1089.6
				z"/>
		</g>
	</g>
	<g>
		<path d="M1135.9,749.1c-0.9,0-1.6-0.7-1.6-1.6v-36.3c0-0.9,0.7-1.6,1.6-1.6s1.6,0.7,1.6,1.6v36.3
			C1137.5,748.3,1136.8,749.1,1135.9,749.1z"/>
	</g>
	<g>
		<path d="M1133.3,694.8c-0.9,0-1.6-0.7-1.6-1.6v-42.7c0-0.9,0.7-1.6,1.6-1.6c0.9,0,1.6,0.7,1.6,1.6v42.7
			C1135,694.1,1134.3,694.8,1133.3,694.8z M1129.2,609.9c-0.6,0-1.2-0.3-1.5-0.9c-6.1-12.6-18.5-21.1-32.3-22.3
			c-0.9-0.1-1.6-0.9-1.5-1.8c0.1-0.9,0.9-1.6,1.8-1.5c15,1.3,28.4,10.5,35,24.1c0.4,0.8,0.1,1.8-0.8,2.2
			C1129.7,609.9,1129.5,609.9,1129.2,609.9z M1052.8,586.6h-7.4c-0.9,0-1.6-0.7-1.6-1.6s0.7-1.6,1.6-1.6h7.4c0.9,0,1.6,0.7,1.6,1.6
			S1053.8,586.6,1052.8,586.6z"/>
	</g>
	<g>
		<polygon fill="#FFE3AA" points="705.4,833.5 735.2,781.9 765,833.5 		"/>
		<path d="M765.1,835.2C765.1,835.2,765,835.2,765.1,835.2h-59.6c-0.6,0-1.1-0.3-1.4-0.8c-0.3-0.5-0.3-1.1,0-1.6l29.8-51.6
			c0.6-1,2.3-1,2.8,0l29.6,51.3c0.3,0.3,0.5,0.7,0.5,1.2C766.7,834.4,766,835.2,765.1,835.2z M708.3,831.9h53.9l-26.9-46.7
			L708.3,831.9z"/>
	</g>
	<g>
		<rect x="796.2" y="781.9" fill="#4D7C9A" width="51.6" height="51.6"/>
		<path d="M847.8,835.2h-51.6c-0.9,0-1.6-0.7-1.6-1.6v-51.6c0-0.9,0.7-1.6,1.6-1.6h51.6c0.9,0,1.6,0.7,1.6,1.6v51.6
			C849.5,834.4,848.7,835.2,847.8,835.2z M797.9,831.9h48.3v-48.3h-48.3V831.9z"/>
	</g>
	<g>
		<path fill="#FFA99A" d="M936.4,807.7c0,14.9-12.1,27-27,27c-14.9,0-27-12.1-27-27c0-14.9,12.1-27,27-27
			C924.3,780.7,936.4,792.8,936.4,807.7z"/>
		<path d="M909.4,836.4c-15.8,0-28.7-12.9-28.7-28.7c0-15.8,12.9-28.7,28.7-28.7c15.8,0,28.7,12.9,28.7,28.7
			C938.1,823.5,925.2,836.4,909.4,836.4z M909.4,782.3c-14,0-25.4,11.4-25.4,25.4c0,14,11.4,25.4,25.4,25.4
			c14,0,25.4-11.4,25.4-25.4C934.8,793.7,923.4,782.3,909.4,782.3z"/>
	</g>
	<g>
		<g>
			<rect x="1087.9" y="136.4" fill="#A0DFFF" width="228.3" height="47.6"/>
			<path d="M1316.3,185.7h-228.3c-0.9,0-1.6-0.7-1.6-1.6v-47.6c0-0.9,0.7-1.6,1.6-1.6h228.3c0.9,0,1.6,0.7,1.6,1.6V184
				C1317.9,184.9,1317.2,185.7,1316.3,185.7z M1089.6,182.4h225.1v-44.3h-225.1V182.4z"/>
		</g>
		<g>
			<path d="M1316.3,487h-228.3c-0.9,0-1.6-0.7-1.6-1.6V184c0-0.9,0.7-1.6,1.6-1.6h228.3c0.9,0,1.6,0.7,1.6,1.6v301.3
				C1317.9,486.2,1317.2,487,1316.3,487z M1089.6,483.7h225.1v-298h-225.1V483.7z"/>
		</g>
	</g>
	<g>
		<rect x="1253.1" y="150.4" fill="#FFFFFF" width="19.5" height="19.5"/>
		<path d="M1272.7,171.6h-19.5c-0.9,0-1.6-0.7-1.6-1.6v-19.5c0-0.9,0.7-1.6,1.6-1.6h19.5c0.9,0,1.6,0.7,1.6,1.6v19.5
			C1274.3,170.8,1273.6,171.6,1272.7,171.6z M1254.8,168.3h16.2V152h-16.2V168.3z"/>
	</g>
	<g>
		<path fill="#FFFFFF" d="M1303.9,160.2c0,5.4-4.4,9.8-9.8,9.8s-9.8-4.4-9.8-9.8c0-5.4,4.4-9.8,9.8-9.8S1303.9,154.8,1303.9,160.2z"
			/>
		<path d="M1294.2,171.6c-6.3,0-11.4-5.1-11.4-11.4c0-6.3,5.1-11.4,11.4-11.4c6.3,0,11.4,5.1,11.4,11.4
			C1305.6,166.4,1300.5,171.6,1294.2,171.6z M1294.2,152c-4.5,0-8.1,3.6-8.1,8.1c0,4.5,3.6,8.1,8.1,8.1c4.5,0,8.1-3.6,8.1-8.1
			C1302.3,155.7,1298.6,152,1294.2,152z"/>
	</g>
	<g>
		<path d="M929,234.4c-0.9,0-1.6-0.7-1.6-1.6v-31.3c0-4,0.6-8,1.7-11.8c0.3-0.9,1.2-1.4,2-1.1c0.9,0.3,1.4,1.2,1.1,2
			c-1,3.5-1.5,7.2-1.5,10.9v31.3C930.6,233.6,929.9,234.4,929,234.4z M959.8,163.2c-0.7,0-1.4-0.5-1.6-1.2c-0.2-0.9,0.3-1.8,1.2-2
			c3.5-0.9,7.1-1.4,10.8-1.4h32.2c0.9,0,1.6,0.7,1.6,1.6c0,0.9-0.7,1.6-1.6,1.6h-32.2c-3.4,0-6.7,0.4-10,1.3
			C960.1,163.2,959.9,163.2,959.8,163.2z M1087.9,161.9h-42.7c-0.9,0-1.6-0.7-1.6-1.6c0-0.9,0.7-1.6,1.6-1.6h42.7
			c0.9,0,1.6,0.7,1.6,1.6C1089.6,161.1,1088.8,161.9,1087.9,161.9z"/>
	</g>
	<g>
		<path fill="#A0DFFF" d="M411.6,206.2h-0.9c0-33.7-27.4-61.1-61.1-61.1c-6.8,0-13.4,1.2-19.5,3.2c-11.5-37.5-46.4-64.8-87.6-64.8
			c-50.6,0-91.7,41-91.7,91.7c-30.2,0-54.7,24.5-54.7,54.7c0,30.2,24.5,54.7,54.7,54.7h149.6c0.6,0,1.2-0.1,1.8-0.1
			c0.6,0,1.2,0.1,1.8,0.1h107.6c21.7,0,39.2-17.6,39.2-39.2C450.8,223.7,433.2,206.2,411.6,206.2z"/>
		<path d="M411.6,286.2H303.9c-0.4,0-0.8,0-1.3-0.1l-0.6,0l-0.6,0c-0.4,0-0.8,0.1-1.2,0.1H150.7c-31.1,0-56.4-25.3-56.4-56.4
			c0-30.5,24.4-55.5,54.7-56.3c0.9-50.7,42.4-91.7,93.3-91.7c40.7,0,76.2,25.8,88.7,64.4c6.1-1.9,12.3-2.8,18.5-2.8
			c34.1,0,61.9,27.3,62.7,61.1c22.2,0.4,40.1,18.6,40.1,40.9C452.4,267.9,434.1,286.2,411.6,286.2z M302.1,282.9l0.8,0
			c0.3,0,0.7,0,1,0h107.6c20.7,0,37.6-16.9,37.6-37.6c0-20.7-16.9-37.6-37.6-37.6h-0.9c-0.9,0-1.6-0.7-1.6-1.6
			c0-32.8-26.7-59.5-59.5-59.5c-6.4,0-12.8,1.1-19,3.2c-0.4,0.1-0.9,0.1-1.3-0.1c-0.4-0.2-0.7-0.6-0.8-1
			c-11.6-38.1-46.2-63.7-86.1-63.7c-49.6,0-90,40.4-90,90c0,0.9-0.7,1.6-1.6,1.6c-29.3,0-53.1,23.8-53.1,53.1
			c0,29.3,23.8,53.1,53.1,53.1h149.6c0.3,0,0.6,0,0.9,0C301.5,282.9,301.8,282.9,302.1,282.9z"/>
	</g>
	<g>
		<polygon fill="#FFFFFF" points="244,115.9 191.2,207.4 206.7,207.4 206.7,284.6 281.3,284.6 281.3,207.4 296.9,207.4 		"/>
		<path d="M281.3,286.2h-74.6c-0.9,0-1.6-0.7-1.6-1.6V209h-13.9c-0.6,0-1.1-0.3-1.4-0.8c-0.3-0.5-0.3-1.1,0-1.6l52.8-91.5
			c0.6-1,2.3-1,2.8,0l52.8,91.5c0.3,0.5,0.3,1.1,0,1.6c-0.3,0.5-0.8,0.8-1.4,0.8H283v75.5C283,285.5,282.2,286.2,281.3,286.2z
			 M208.4,282.9h71.3v-75.5c0-0.9,0.7-1.6,1.6-1.6H294l-50-86.5l-50,86.5h12.7c0.9,0,1.6,0.7,1.6,1.6V282.9z"/>
	</g>
	<g>
		<path d="M221.5,286.2c-0.9,0-1.6-0.7-1.6-1.6v-75c0-0.9,0.7-1.6,1.6-1.6c0.9,0,1.6,0.7,1.6,1.6v75
			C223.1,285.5,222.4,286.2,221.5,286.2z"/>
	</g>
	<g>
		<path d="M354.6,387.8h-23.4c-0.9,0-1.6-0.7-1.6-1.6c0-0.9,0.7-1.6,1.6-1.6h23.4c0.9,0,1.6,0.7,1.6,1.6
			C356.2,387.1,355.5,387.8,354.6,387.8z M288.4,387.8h-3.2c-13.9,0-27-6.9-35.1-18.3c-0.5-0.7-0.3-1.8,0.4-2.3
			c0.7-0.5,1.8-0.3,2.3,0.4c7.4,10.6,19.6,16.9,32.4,16.9h3.2c0.9,0,1.6,0.7,1.6,1.6C290.1,387.1,289.3,387.8,288.4,387.8z M244,329
			c-0.9,0-1.6-0.7-1.6-1.6v-42.7c0-0.9,0.7-1.6,1.6-1.6c0.9,0,1.6,0.7,1.6,1.6v42.7C245.7,328.2,244.9,329,244,329z"/>
	</g>
	<g>
		<path fill="#4D7C9A" d="M127.4,450.4v120.6c0,15.3,12.4,27.8,27.8,27.8h19.7c15.4,0,27.8-12.4,27.8-27.8V450.4H127.4z"/>
		<path d="M174.9,600.5h-19.7c-16.2,0-29.4-13.2-29.4-29.4V450.4c0-0.9,0.7-1.6,1.6-1.6h75.3c0.9,0,1.6,0.7,1.6,1.6v120.6
			C204.3,587.3,191.1,600.5,174.9,600.5z M129,452.1v119c0,14.4,11.7,26.2,26.1,26.2h19.7c14.4,0,26.1-11.7,26.1-26.2v-119H129z"/>
	</g>
	<g>
		<path d="M193.4,452.1h-56.7c-0.9,0-1.6-0.7-1.6-1.6v-55.6c0-0.9,0.7-1.6,1.6-1.6h56.7c0.9,0,1.6,0.7,1.6,1.6v55.6
			C195,451.3,194.3,452.1,193.4,452.1z M138.3,448.8h53.5v-52.3h-53.5V448.8z"/>
	</g>
	<g>
		<path d="M147.8,436.8c-0.9,0-1.6-0.7-1.6-1.6v-25.1c0-0.9,0.7-1.6,1.6-1.6h11.6c0.9,0,1.6,0.7,1.6,1.6c0,0.9-0.7,1.6-1.6,1.6h-9.9
			v23.4C149.4,436.1,148.7,436.8,147.8,436.8z"/>
	</g>
	<g>
		<path d="M170.7,436.8c-0.9,0-1.6-0.7-1.6-1.6v-25.1c0-0.9,0.7-1.6,1.6-1.6h11.6c0.9,0,1.6,0.7,1.6,1.6c0,0.9-0.7,1.6-1.6,1.6h-9.9
			v23.4C172.3,436.1,171.6,436.8,170.7,436.8z"/>
	</g>
	<g>
		<g>
			<path fill="#FFFFFF" d="M165.2,562.6c-0.9,0-1.6-0.7-1.6-1.6v-60.9c0-0.9,0.7-1.6,1.6-1.6c0.9,0,1.6,0.7,1.6,1.6V561
				C166.9,561.9,166.1,562.6,165.2,562.6z"/>
		</g>
		<g>
			<path fill="#FFFFFF" d="M165.2,548.7c-0.3,0-0.6-0.1-0.8-0.2l-19.8-11.3c-0.5-0.3-0.8-0.8-0.8-1.4v-15.4c0-0.9,0.7-1.6,1.6-1.6
				c0.9,0,1.6,0.7,1.6,1.6v14.5l19,10.8c0.8,0.4,1.1,1.5,0.6,2.2C166.4,548.4,165.8,548.7,165.2,548.7z"/>
		</g>
		<g>
			<path fill="#FFFFFF" d="M165.2,537c-0.5,0-1-0.2-1.3-0.6c-0.6-0.7-0.4-1.8,0.3-2.3l18.8-14.6v-13.6c0-0.9,0.7-1.6,1.6-1.6
				s1.6,0.7,1.6,1.6v14.4c0,0.5-0.2,1-0.6,1.3l-19.4,15.1C165.9,536.8,165.6,537,165.2,537z"/>
		</g>
		<g>
			<path fill="#FFFFFF" d="M172.1,501.7C172.1,501.7,172.1,501.7,172.1,501.7h-13.7c-0.6,0-1.1-0.3-1.4-0.8s-0.3-1.1,0-1.6l6.8-11.8
				c0.6-1,2.3-1,2.8,0l6.6,11.4c0.3,0.3,0.5,0.7,0.5,1.2C173.7,501,173,501.7,172.1,501.7z M161.3,498.4h7.9l-4-6.8L161.3,498.4z"/>
		</g>
	</g>
	<g>
		<g>
			<path d="M1270.7,690.3h-41.6c-0.9,0-1.6-0.7-1.6-1.6v-33.2c0-0.9,0.7-1.6,1.6-1.6h41.6c0.9,0,1.6,0.7,1.6,1.6v33.2
				C1272.4,689.6,1271.7,690.3,1270.7,690.3z M1230.8,687h38.3v-29.9h-38.3V687z"/>
		</g>
		<g>
			<rect x="1220.7" y="608.9" fill="#A7A9AC" width="58.5" height="46.6"/>
			<path d="M1279.2,657.1h-58.5c-0.9,0-1.6-0.7-1.6-1.6v-46.6c0-0.9,0.7-1.6,1.6-1.6h58.5c0.9,0,1.6,0.7,1.6,1.6v46.6
				C1280.8,656.4,1280.1,657.1,1279.2,657.1z M1222.3,653.9h55.2v-43.3h-55.2V653.9z"/>
		</g>
		<g>
			<path d="M1260.8,680.3c-0.9,0-1.6-0.7-1.6-1.6v-11.6h-5.2c-0.9,0-1.6-0.7-1.6-1.6s0.7-1.6,1.6-1.6h6.9c0.9,0,1.6,0.7,1.6,1.6
				v13.2C1262.4,679.6,1261.7,680.3,1260.8,680.3z"/>
		</g>
		<g>
			<path d="M1245.7,680.3c-0.9,0-1.6-0.7-1.6-1.6v-11.6h-5.2c-0.9,0-1.6-0.7-1.6-1.6s0.7-1.6,1.6-1.6h6.9c0.9,0,1.6,0.7,1.6,1.6
				v13.2C1247.3,679.6,1246.6,680.3,1245.7,680.3z"/>
		</g>
	</g>
	<g>
		<path d="M1249.9,610.6c-0.9,0-1.6-0.7-1.6-1.6v-36.5c0-2-0.2-4-0.6-5.9c-0.2-0.9,0.4-1.8,1.3-1.9c0.9-0.2,1.8,0.4,1.9,1.3
			c0.4,2.1,0.6,4.3,0.6,6.5v36.5C1251.6,609.8,1250.8,610.6,1249.9,610.6z M1220.7,539.1c-0.1,0-0.3,0-0.4-0.1
			c-3.7-1-7.6-1.5-11.5-1.5h-30.7c-0.9,0-1.6-0.7-1.6-1.6c0-0.9,0.7-1.6,1.6-1.6h30.7c4.2,0,8.4,0.6,12.4,1.6c0.9,0.2,1.4,1.1,1.2,2
			C1222.1,538.7,1221.4,539.1,1220.7,539.1z M1135.3,537.6h-42.7c-0.9,0-1.6-0.7-1.6-1.6c0-0.9,0.7-1.6,1.6-1.6h42.7
			c0.9,0,1.6,0.7,1.6,1.6C1137,536.8,1136.2,537.6,1135.3,537.6z M1049.8,537.6h-4.4c-0.9,0-1.6-0.7-1.6-1.6c0-0.9,0.7-1.6,1.6-1.6
			h4.4c0.9,0,1.6,0.7,1.6,1.6C1051.5,536.8,1050.7,537.6,1049.8,537.6z"/>
	</g>
	<g>
		<g>
			<path fill="#E6E7E8" d="M580.7,180.9v22.7c0,3.4-1.1,6.5-3,9h203.7v-31.7H580.7z"/>
			<path d="M781.4,214.3H577.8c-0.6,0-1.2-0.3-1.5-0.9c-0.3-0.6-0.2-1.2,0.1-1.7c1.7-2.4,2.7-5.2,2.7-8v-22.7c0-0.9,0.7-1.6,1.6-1.6
				h200.7c0.9,0,1.6,0.7,1.6,1.6v31.7C783.1,213.5,782.4,214.3,781.4,214.3z M580.7,211h199.1v-28.4H582.4v21.1
				C582.4,206.2,581.8,208.7,580.7,211z"/>
		</g>
		<g>
			<path fill="#FFFFFF" d="M580.7,180.9h200.7v-31.7H577.8c1.9,2.5,3,5.6,3,9V180.9z"/>
			<path d="M781.4,182.6H580.7c-0.9,0-1.6-0.7-1.6-1.6v-22.7c0-2.9-0.9-5.6-2.7-8c-0.4-0.5-0.4-1.2-0.1-1.7c0.3-0.6,0.8-0.9,1.5-0.9
				h203.7c0.9,0,1.6,0.7,1.6,1.6v31.7C783.1,181.8,782.4,182.6,781.4,182.6z M582.4,179.3h197.4v-28.4H580.7
				c1.1,2.3,1.7,4.8,1.7,7.3V179.3z"/>
		</g>
		<g>
			<path fill="#FFA99A" d="M577.8,149.2c-2.8-3.8-7.3-6.4-12.4-6.4h-43.5V219h43.5c5.1,0,9.6-2.5,12.4-6.4c1.9-2.5,3-5.6,3-9v-45.4
				C580.7,154.8,579.6,151.7,577.8,149.2z"/>
			<path d="M565.4,220.6h-43.5c-0.9,0-1.6-0.7-1.6-1.6v-76.1c0-0.9,0.7-1.6,1.6-1.6h43.5c5.4,0,10.5,2.6,13.7,7
				c2.1,2.9,3.3,6.4,3.3,10v45.4c0,3.6-1.1,7-3.3,10C575.9,218,570.8,220.6,565.4,220.6z M523.6,217.3h41.8c4.4,0,8.4-2.1,11.1-5.7
				c1.7-2.4,2.7-5.2,2.7-8v-45.4c0-2.9-0.9-5.6-2.7-8c-2.6-3.6-6.7-5.7-11.1-5.7h-41.8V217.3z"/>
		</g>
		<g>
			<polygon fill="#FFE3AA" points="832,167.4 781.4,149.2 781.4,180.9 781.4,212.6 835.4,193.2 			"/>
			<path d="M781.4,214.3c-0.3,0-0.7-0.1-0.9-0.3c-0.4-0.3-0.7-0.8-0.7-1.3v-63.4c0-0.5,0.3-1,0.7-1.3c0.4-0.3,1-0.4,1.5-0.2
				l50.6,18.2c0.6,0.2,1,0.7,1.1,1.3l3.4,25.9c0.1,0.8-0.3,1.5-1.1,1.8l-54,19.4C781.8,214.2,781.6,214.3,781.4,214.3z M783.1,151.5
				v58.8l50.5-18.2l-3.1-23.5L783.1,151.5z"/>
		</g>
		<g>
			<polygon fill="#A7A9AC" points="858.9,180.7 832.5,171.2 834.9,189.4 			"/>
			<path d="M834.9,191c-0.3,0-0.6-0.1-0.9-0.2c-0.4-0.3-0.7-0.7-0.8-1.2l-2.4-18.1c-0.1-0.6,0.2-1.1,0.6-1.5
				c0.4-0.4,1.1-0.5,1.6-0.3l26.4,9.5c0.7,0.2,1.1,0.9,1.1,1.5c0,0.7-0.4,1.3-1.1,1.5l-24,8.6C835.2,191,835.1,191,834.9,191z
				 M834.5,173.7l1.8,13.4l17.8-6.4L834.5,173.7z"/>
		</g>
	</g>
	<g>
		<path d="M1218.1,318.9h-107.6c-0.9,0-1.6-0.7-1.6-1.6V209.6c0-0.9,0.7-1.6,1.6-1.6h107.6c0.9,0,1.6,0.7,1.6,1.6v107.6
			C1219.7,318.1,1219,318.9,1218.1,318.9z M1112.2,315.6h104.3V211.3h-104.3V315.6z"/>
	</g>
	<g>
		<path fill="#FFA99A" d="M1200,281.9c2-3.8,3.4-8,4-12.4l-10.9-3.6c0.1-0.8,0.1-1.7,0.1-2.5c0-0.8-0.1-1.7-0.1-2.5l10.9-3.6
			c-0.7-4.4-2.1-8.6-4-12.4l-10.9,3.6c-0.9-1.4-1.8-2.8-2.9-4l6.8-9.3c-3.1-3.1-6.6-5.7-10.6-7.7l-6.7,9.3c-1.5-0.6-3.1-1.1-4.8-1.5
			v-11.5c-2.1-0.3-4.3-0.5-6.5-0.5c-2.2,0-4.4,0.2-6.5,0.5v11.5c-1.6,0.4-3.2,0.9-4.8,1.5l-6.7-9.3c-3.9,2-7.5,4.6-10.6,7.7l6.8,9.3
			c-1.1,1.3-2.1,2.6-2.9,4l-10.9-3.6c-2,3.8-3.4,8-4,12.4l10.9,3.6c-0.1,0.8-0.1,1.7-0.1,2.5c0,0.8,0.1,1.7,0.1,2.5l-10.9,3.6
			c0.7,4.4,2.1,8.6,4,12.4l10.9-3.6c0.9,1.4,1.8,2.8,2.9,4l-6.8,9.3c3.1,3.1,6.6,5.7,10.6,7.7l6.7-9.3c1.5,0.6,3.1,1.1,4.8,1.5v11.5
			c2.1,0.3,4.3,0.5,6.5,0.5c2.2,0,4.4-0.2,6.5-0.5l0-11.5c1.6-0.4,3.2-0.9,4.8-1.5l6.7,9.3c3.9-2,7.5-4.6,10.6-7.7l-6.8-9.3
			c1.1-1.3,2.1-2.6,2.9-4L1200,281.9z M1164.3,283c-10.8,0-19.6-8.8-19.6-19.6c0-10.8,8.8-19.6,19.6-19.6c10.8,0,19.6,8.8,19.6,19.6
			C1183.9,274.3,1175.1,283,1164.3,283z"/>
		<path d="M1164.3,305.3c-2.2,0-4.5-0.2-6.8-0.6c-0.8-0.1-1.4-0.8-1.4-1.6v-10.2c-0.9-0.2-1.7-0.5-2.5-0.8l-6,8.2
			c-0.5,0.7-1.3,0.9-2.1,0.5c-4.1-2.1-7.8-4.7-11-8c-0.6-0.6-0.6-1.5-0.2-2.1l6-8.3c-0.5-0.7-1.1-1.4-1.6-2.2l-9.7,3.2
			c-0.8,0.2-1.6-0.1-2-0.8c-2.1-4.1-3.5-8.4-4.2-12.9c-0.1-0.8,0.4-1.6,1.1-1.8l9.7-3.2c0-0.4,0-0.9,0-1.3c0-0.4,0-0.9,0-1.3
			l-9.7-3.2c-0.8-0.2-1.2-1-1.1-1.8c0.7-4.5,2.1-8.9,4.2-12.9c0.4-0.7,1.2-1.1,2-0.8l9.7,3.2c0.5-0.7,1-1.5,1.6-2.2l-6-8.3
			c-0.5-0.7-0.4-1.5,0.2-2.1c3.2-3.3,6.9-5.9,11-8c0.7-0.4,1.6-0.1,2.1,0.5l6,8.2c0.8-0.3,1.7-0.6,2.5-0.8v-10.2
			c0-0.8,0.6-1.5,1.4-1.6c4.5-0.7,9-0.7,13.6,0c0.8,0.1,1.4,0.8,1.4,1.6v10.2c0.9,0.2,1.7,0.5,2.5,0.8l6-8.2
			c0.5-0.7,1.3-0.9,2.1-0.5c4.1,2.1,7.8,4.7,11,8c0.6,0.6,0.6,1.5,0.2,2.1l-6,8.3c0.5,0.7,1.1,1.4,1.6,2.2l9.7-3.2
			c0.8-0.2,1.6,0.1,2,0.8c2.1,4.1,3.5,8.4,4.2,12.9c0.1,0.8-0.4,1.6-1.1,1.8l-9.7,3.2c0,0.4,0,0.9,0,1.3c0,0.4,0,0.9,0,1.3l9.7,3.2
			c0.8,0.2,1.2,1,1.1,1.8c-0.7,4.5-2.1,8.9-4.2,12.9c-0.4,0.7-1.2,1.1-2,0.8l-9.7-3.2c-0.5,0.7-1,1.5-1.6,2.2l6,8.3
			c0.5,0.7,0.4,1.5-0.2,2.1c-3.2,3.3-6.9,5.9-11,8c-0.7,0.4-1.6,0.1-2.1-0.5l-6-8.2c-0.8,0.3-1.7,0.6-2.5,0.8l0,10.2
			c0,0.8-0.6,1.5-1.4,1.6C1168.8,305.1,1166.5,305.3,1164.3,305.3z M1159.4,301.7c3.3,0.4,6.5,0.4,9.8,0l0-10.1
			c0-0.8,0.5-1.4,1.3-1.6c1.6-0.4,3.1-0.9,4.5-1.4c0.7-0.3,1.5-0.1,2,0.5l5.9,8.1c2.9-1.6,5.5-3.5,7.9-5.8l-5.9-8.2
			c-0.4-0.6-0.4-1.5,0.1-2c1-1.2,1.9-2.4,2.8-3.8c0.4-0.7,1.2-0.9,1.9-0.7l9.6,3.1c1.4-3,2.4-6.1,3-9.3l-9.6-3.1
			c-0.7-0.2-1.2-0.9-1.1-1.7c0.1-0.8,0.1-1.6,0.1-2.4c0-0.8-0.1-1.6-0.1-2.4c-0.1-0.8,0.4-1.5,1.1-1.7l9.6-3.1
			c-0.6-3.2-1.6-6.3-3-9.3l-9.6,3.1c-0.7,0.2-1.5-0.1-1.9-0.7c-0.8-1.4-1.8-2.6-2.8-3.8c-0.5-0.6-0.5-1.4-0.1-2l5.9-8.2
			c-2.4-2.2-5-4.2-7.9-5.8l-5.9,8.1c-0.5,0.6-1.3,0.8-2,0.5c-1.4-0.6-2.9-1.1-4.5-1.4c-0.7-0.2-1.3-0.8-1.3-1.6v-10.1
			c-3.3-0.4-6.5-0.4-9.8,0v10.1c0,0.8-0.5,1.4-1.3,1.6c-1.6,0.4-3.1,0.9-4.5,1.4c-0.7,0.3-1.5,0.1-2-0.5l-5.9-8.1
			c-2.9,1.6-5.5,3.5-7.9,5.8l5.9,8.1c0.4,0.6,0.4,1.5-0.1,2c-1,1.2-1.9,2.5-2.8,3.8c-0.4,0.7-1.2,1-1.9,0.7l-9.6-3.1
			c-1.4,3-2.4,6.1-3,9.3l9.6,3.1c0.7,0.2,1.2,0.9,1.1,1.7c-0.1,0.8-0.1,1.6-0.1,2.4s0.1,1.6,0.1,2.4c0.1,0.8-0.4,1.5-1.1,1.7
			l-9.6,3.1c0.6,3.2,1.6,6.3,3,9.3l9.6-3.1c0.7-0.2,1.5,0.1,1.9,0.7c0.8,1.4,1.8,2.7,2.8,3.8c0.5,0.6,0.5,1.4,0.1,2l-5.9,8.2
			c2.4,2.2,5,4.2,7.9,5.8l5.9-8.1c0.4-0.6,1.3-0.8,2-0.5c1.4,0.6,2.9,1.1,4.5,1.4c0.7,0.2,1.3,0.8,1.3,1.6V301.7z M1164.3,284.7
			c-11.7,0-21.3-9.5-21.3-21.2c0-11.7,9.5-21.3,21.3-21.3c11.7,0,21.3,9.5,21.3,21.3C1185.6,275.1,1176,284.7,1164.3,284.7z
			 M1164.3,245.5c-9.9,0-18,8.1-18,18c0,9.9,8.1,18,18,18s18-8.1,18-18C1182.3,253.5,1174.2,245.5,1164.3,245.5z"/>
	</g>
	<g>
		<rect x="1231.9" y="223.2" fill="#FFE3AA" width="65.4" height="17"/>
		<path d="M1297.3,241.9h-65.4c-0.9,0-1.6-0.7-1.6-1.6v-17c0-0.9,0.7-1.6,1.6-1.6h65.4c0.9,0,1.6,0.7,1.6,1.6v17
			C1298.9,241.1,1298.2,241.9,1297.3,241.9z M1233.5,238.6h62.1v-13.7h-62.1V238.6z"/>
	</g>
	<g>
		<rect x="1110.5" y="334.7" fill="#FFE3AA" width="152.4" height="17"/>
		<path d="M1262.9,353.3h-152.4c-0.9,0-1.6-0.7-1.6-1.6v-17c0-0.9,0.7-1.6,1.6-1.6h152.4c0.9,0,1.6,0.7,1.6,1.6v17
			C1264.5,352.6,1263.8,353.3,1262.9,353.3z M1112.2,350.1h149.1v-13.7h-149.1V350.1z"/>
	</g>
	<g>
		<rect x="1110.5" y="365.8" fill="#FFE3AA" width="101.1" height="17"/>
		<path d="M1211.6,384.5h-101.1c-0.9,0-1.6-0.7-1.6-1.6v-17c0-0.9,0.7-1.6,1.6-1.6h101.1c0.9,0,1.6,0.7,1.6,1.6v17
			C1213.2,383.7,1212.5,384.5,1211.6,384.5z M1112.2,381.2h97.8v-13.7h-97.8V381.2z"/>
	</g>
	<g>
		<rect x="1233.9" y="365.8" fill="#FFE3AA" width="45.3" height="17"/>
		<path d="M1279.2,384.5h-45.3c-0.9,0-1.6-0.7-1.6-1.6v-17c0-0.9,0.7-1.6,1.6-1.6h45.3c0.9,0,1.6,0.7,1.6,1.6v17
			C1280.8,383.7,1280.1,384.5,1279.2,384.5z M1235.5,381.2h42v-13.7h-42V381.2z"/>
	</g>
	<g>
		<rect x="1110.5" y="396.9" fill="#FFE3AA" width="186.8" height="17"/>
		<path d="M1297.3,415.6h-186.8c-0.9,0-1.6-0.7-1.6-1.6v-17c0-0.9,0.7-1.6,1.6-1.6h186.8c0.9,0,1.6,0.7,1.6,1.6v17
			C1298.9,414.9,1298.2,415.6,1297.3,415.6z M1112.2,412.3h183.5v-13.7h-183.5V412.3z"/>
	</g>
	<g>
		<rect x="1110.5" y="428.1" fill="#FFE3AA" width="113.5" height="17"/>
		<path d="M1224,446.7h-113.5c-0.9,0-1.6-0.7-1.6-1.6v-17c0-0.9,0.7-1.6,1.6-1.6H1224c0.9,0,1.6,0.7,1.6,1.6v17
			C1225.7,446,1224.9,446.7,1224,446.7z M1112.2,443.4h110.2v-13.7h-110.2V443.4z"/>
	</g>
	<g>
		<rect x="1231.9" y="286.6" fill="#FFE3AA" width="52.5" height="17"/>
		<path d="M1284.4,305.3h-52.5c-0.9,0-1.6-0.7-1.6-1.6v-17c0-0.9,0.7-1.6,1.6-1.6h52.5c0.9,0,1.6,0.7,1.6,1.6v17
			C1286,304.6,1285.3,305.3,1284.4,305.3z M1233.5,302h49.2v-13.7h-49.2V302z"/>
	</g>
	<g>
		<rect x="1231.9" y="254.9" fill="#FFE3AA" width="37.9" height="17"/>
		<path d="M1269.8,273.6h-37.9c-0.9,0-1.6-0.7-1.6-1.6v-17c0-0.9,0.7-1.6,1.6-1.6h37.9c0.9,0,1.6,0.7,1.6,1.6v17
			C1271.5,272.9,1270.7,273.6,1269.8,273.6z M1233.5,270.3h34.7v-13.7h-34.7V270.3z"/>
	</g>
	<g>
		<rect x="397.9" y="300.8" fill="#FFFFFF" width="54.8" height="56.6"/>
		<path d="M452.7,359h-54.8c-0.9,0-1.6-0.7-1.6-1.6v-56.6c0-0.9,0.7-1.6,1.6-1.6h54.8c0.9,0,1.6,0.7,1.6,1.6v56.6
			C454.3,358.3,453.6,359,452.7,359z M399.5,355.7h51.5v-53.3h-51.5V355.7z"/>
	</g>
	<g>
		<g>
			<polygon fill="#E6E7E8" points="426.6,346.6 409.1,329.1 426.6,311.6 440.6,311.6 423.2,329.1 440.7,346.5 			"/>
			<path d="M426.6,348.2c-0.4,0-0.9-0.2-1.2-0.5l-17.5-17.5c-0.3-0.3-0.5-0.7-0.5-1.2c0-0.4,0.2-0.9,0.5-1.2l17.5-17.5
				c0.3-0.3,0.7-0.5,1.2-0.5l14.1,0c0.7,0,1.3,0.4,1.5,1c0.3,0.6,0.1,1.3-0.4,1.8l-16.3,16.3l16.4,16.3c0.5,0.5,0.6,1.2,0.4,1.8
				c-0.3,0.6-0.9,1-1.5,1L426.6,348.2C426.6,348.2,426.6,348.2,426.6,348.2z M411.4,329.1l15.8,15.8l9.5,0L422,330.2
				c-0.3-0.3-0.5-0.7-0.5-1.2c0-0.4,0.2-0.9,0.5-1.2l14.7-14.7l-9.4,0L411.4,329.1z"/>
		</g>
	</g>
	<g>
		<rect x="478.7" y="300.8" fill="#FFFFFF" width="54.8" height="56.6"/>
		<path d="M533.5,359h-54.8c-0.9,0-1.6-0.7-1.6-1.6v-56.6c0-0.9,0.7-1.6,1.6-1.6h54.8c0.9,0,1.6,0.7,1.6,1.6v56.6
			C535.1,358.3,534.4,359,533.5,359z M480.3,355.7h51.5v-53.3h-51.5V355.7z"/>
	</g>
	<g>
		<g>
			<polygon fill="#E6E7E8" points="504.4,346.6 521.9,329.1 504.4,311.6 490.3,311.6 507.8,329.1 490.3,346.5 			"/>
			<path d="M504.4,348.2C504.4,348.2,504.4,348.2,504.4,348.2l-14.2,0c-0.7,0-1.3-0.4-1.5-1c-0.3-0.6-0.1-1.3,0.4-1.8l16.4-16.3
				l-16.3-16.3c-0.5-0.5-0.6-1.2-0.4-1.8c0.3-0.6,0.9-1,1.5-1l0,0l14.1,0c0.4,0,0.9,0.2,1.2,0.5l17.5,17.5c0.3,0.3,0.5,0.7,0.5,1.2
				c0,0.4-0.2,0.9-0.5,1.2l-17.5,17.5C505.3,348,504.9,348.2,504.4,348.2z M494.2,344.9l9.5,0l15.8-15.8l-15.8-15.8l-9.4,0
				l14.7,14.7c0.3,0.3,0.5,0.7,0.5,1.2c0,0.4-0.2,0.9-0.5,1.2L494.2,344.9z"/>
		</g>
	</g>
	<g>
		<g>
			<path d="M700,661.2c-20.5,0-39.7-9-52.7-24.8H433.1c-0.9,0-1.6-0.7-1.6-1.6c0-0.9,0.7-1.6,1.6-1.6h215c0.5,0,1,0.2,1.3,0.6
				c12.4,15.4,30.9,24.2,50.7,24.2c19.8,0,38.2-8.8,50.7-24.2c0.3-0.4,0.8-0.6,1.3-0.6h215c0.9,0,1.6,0.7,1.6,1.6
				c0,0.9-0.7,1.6-1.6,1.6H752.7C739.6,652.2,720.5,661.2,700,661.2z"/>
		</g>
		<g>
			<g>
				<path d="M948.7,624.1c-0.2,0-0.5,0-0.7-0.1c-3.1-1.4-6.1-2.7-9.1-4c-67.4-29-124.6-43.8-170-43.8c-50.6,0-67.6,18.8-67.7,19
					c-0.3,0.4-0.8,0.6-1.2,0.6l0,0c-0.5,0-0.9-0.2-1.2-0.6c-0.2-0.2-17.3-19.1-67.9-19.1c-45.3,0-102.4,14.7-169.8,43.8
					c-3,1.3-6.1,2.6-9.1,4c-0.5,0.2-1.1,0.2-1.6-0.1s-0.7-0.8-0.7-1.4v-12.6c0-0.6,0.4-1.2,0.9-1.5c2.8-1.3,5.5-2.6,8.2-3.8v-10.9
					c0-0.6,0.4-1.2,1-1.5c68.1-30.6,125.9-46.2,171.9-46.2c44.5,0,63.5,14.7,68.3,19.2c4.8-4.5,23.8-19.2,68.3-19.2
					c46,0,103.8,15.5,171.9,46.2c0.6,0.3,1,0.9,1,1.5v11c2.7,1.2,5.5,2.5,8.2,3.8c0.6,0.3,0.9,0.9,0.9,1.5v12.6
					c0,0.6-0.3,1.1-0.7,1.4C949.4,624,949.1,624.1,948.7,624.1z M769,572.9c45.8,0,103.4,14.8,171.3,44c2.3,1,4.6,2,6.9,3v-9
					c-2.8-1.3-5.5-2.6-8.2-3.8c-0.6-0.3-1-0.9-1-1.5v-11c-67.3-30.2-124.3-45.4-169.6-45.4c-49.8,0-66.9,19.1-67.1,19.3
					c-0.6,0.7-1.9,0.7-2.5,0c-0.2-0.2-17.3-19.3-67.1-19.3c-45.3,0-102.4,15.3-169.6,45.4v10.9c0,0.6-0.4,1.2-1,1.5
					c-2.7,1.2-5.4,2.5-8.2,3.8v9c2.3-1,4.6-2,6.9-3c67.8-29.3,125.4-44.1,171.1-44.1c45.2,0,64.3,14.6,69.1,19
					C704.8,587.3,723.9,572.9,769,572.9z"/>
			</g>
			<g>
				<path fill="#E6E7E8" d="M948.7,622.4c-3.1-1.4-6.1-2.7-9.2-4C750.1,536.8,700,594,700,594s-49.8-57.6-239.6,24.2
					c-3,1.3-6.1,2.6-9.2,4c-3,1.3-6.1,2.7-9.2,4.1v8.3h9.2h9.2h187.7h103.9h187.7h9.2h9.2v-8.2C954.8,625.1,951.8,623.8,948.7,622.4
					z"/>
				<path d="M957.9,636.4H442.1c-0.9,0-1.6-0.7-1.6-1.6v-8.3c0-0.6,0.4-1.2,1-1.5c3.1-1.4,6.2-2.8,9.2-4.1c3.1-1.4,6.1-2.7,9.2-4
					c67.8-29.3,125.4-44.1,171.1-44.1c45.2,0,64.3,14.6,69.1,19c4.8-4.4,23.9-18.8,69-18.8c45.8,0,103.4,14.8,171.3,44
					c3,1.3,6.1,2.6,9.2,4c3,1.3,6.1,2.7,9.2,4.1c0.6,0.3,1,0.9,1,1.5v8.2C959.5,635.6,958.8,636.4,957.9,636.4z M443.7,633.1h512.5
					v-5.5c-2.8-1.3-5.5-2.5-8.2-3.7c-3.1-1.4-6.1-2.7-9.1-4c-67.4-29-124.6-43.8-170-43.8c-50.4,0-67.6,18.8-67.7,19
					c-0.3,0.4-0.8,0.6-1.2,0.6c0,0,0,0,0,0c-0.5,0-0.9-0.2-1.2-0.6c-0.2-0.2-17.3-19.1-67.9-19.1c-45.3,0-102.4,14.7-169.8,43.8
					c-3,1.3-6.1,2.6-9.1,4c-2.7,1.2-5.4,2.4-8.2,3.7V633.1z"/>
			</g>
			<g>
				<path d="M700,636.4c-0.9,0-1.6-0.7-1.6-1.6v-67.4c0-0.9,0.7-1.6,1.6-1.6s1.6,0.7,1.6,1.6v67.4
					C701.6,635.6,700.9,636.4,700,636.4z"/>
			</g>
			<g>
				<path d="M700,608.4c-0.3,0-0.6-0.1-0.9-0.3c-0.5-0.3-49.4-30.2-145.5-3.2c-0.9,0.2-1.8-0.3-2-1.1c-0.2-0.9,0.3-1.8,1.1-2
					c97.7-27.4,147.7,3.3,148.2,3.6c0.8,0.5,1,1.5,0.5,2.3C701.1,608.1,700.5,608.4,700,608.4z"/>
			</g>
			<g>
				<path d="M700,621.2c-0.2,0-0.4,0-0.6-0.1c-0.4-0.2-43.7-18.1-107.2-6.5c-0.9,0.2-1.7-0.4-1.9-1.3c-0.2-0.9,0.4-1.7,1.3-1.9
					c64.5-11.8,108.6,6.5,109,6.7c0.8,0.4,1.2,1.3,0.9,2.2C701.2,620.8,700.6,621.2,700,621.2z"/>
			</g>
			<g>
				<path d="M700,608.4c-0.5,0-1.1-0.3-1.4-0.8c-0.5-0.8-0.3-1.8,0.5-2.3c0.5-0.3,50.5-31,148.2-3.6c0.9,0.2,1.4,1.2,1.1,2
					c-0.2,0.9-1.2,1.4-2,1.1c-96.2-26.9-145,2.9-145.5,3.2C700.6,608.3,700.3,608.4,700,608.4z"/>
			</g>
			<g>
				<path d="M700,621.2c-0.6,0-1.2-0.4-1.5-1c-0.4-0.8,0-1.8,0.9-2.2c0.4-0.2,44.5-18.5,109-6.7c0.9,0.2,1.5,1,1.3,1.9
					c-0.2,0.9-1,1.5-1.9,1.3c-63.5-11.6-106.7,6.3-107.2,6.5C700.4,621.1,700.2,621.2,700,621.2z"/>
			</g>
		</g>
	</g>
	<g>
		<g>
			<path fill="#6D6E71" d="M700,466.8c39.2,0,70.9,5.6,70.9,12.5v19.5l85.1-28.9l-156-53.1l-156,53.1l85.1,28.9v-19.5
				C629.1,472.4,660.8,466.8,700,466.8z"/>
			<path d="M770.9,500.5c-0.3,0-0.7-0.1-1-0.3c-0.4-0.3-0.7-0.8-0.7-1.3v-19.5c0-4.4-27-10.9-69.3-10.9c-42.3,0-69.3,6.4-69.3,10.9
				v19.5c0,0.5-0.3,1-0.7,1.3s-1,0.4-1.5,0.2l-85.1-28.9c-0.7-0.2-1.1-0.9-1.1-1.6c0-0.7,0.4-1.3,1.1-1.6l156-53.1
				c0.3-0.1,0.7-0.1,1.1,0l156,53.1c0.7,0.2,1.1,0.9,1.1,1.6c0,0.7-0.4,1.3-1.1,1.6l-85.1,28.9C771.3,500.5,771.1,500.5,770.9,500.5
				z M700,465.2c29.2,0,72.6,3.8,72.6,14.2v17.2l78.4-26.6L700,418.6l-150.9,51.3l78.4,26.6v-17.2C627.4,469,670.8,465.2,700,465.2z
				"/>
		</g>
		<g>
			<path fill="#A7A9AC" d="M700,466.8c-39.2,0-70.9,5.6-70.9,12.5v19.5v18.7c0,0,42.3,1.5,70.9,16.6c28.7-15.1,70.9-16.6,70.9-16.6
				v-18.7v-19.5C770.9,472.4,739.2,466.8,700,466.8z"/>
			<path d="M700,535.8c-0.3,0-0.5-0.1-0.8-0.2c-28-14.7-69.8-16.4-70.2-16.4c-0.9,0-1.6-0.8-1.6-1.6v-38.2
				c0-10.4,43.4-14.2,72.6-14.2c29.2,0,72.6,3.8,72.6,14.2v38.2c0,0.9-0.7,1.6-1.6,1.6c-0.4,0-42.2,1.7-70.2,16.4
				C700.5,535.8,700.3,535.8,700,535.8z M630.7,516c7.9,0.5,43.8,3.2,69.3,16.3c25.5-13.1,61.4-15.9,69.3-16.3v-36.7
				c0-4.4-27-10.9-69.3-10.9c-42.3,0-69.3,6.4-69.3,10.9V516z"/>
		</g>
	</g>
	<g>
		<path fill="#4D7C9A" d="M966.9,634.7h-215h-8.5h-85.7h-9.7H434.3v8.3H656c11.7,10.3,27.1,16.6,44,16.6s32.2-6.3,44-16.6h222.9
			V634.7z"/>
		<path d="M700,661.2c-16.4,0-32.2-5.9-44.6-16.6H434.3c-0.9,0-1.6-0.7-1.6-1.6v-8.3c0-0.9,0.7-1.6,1.6-1.6h532.6
			c0.9,0,1.6,0.7,1.6,1.6v8.3c0,0.9-0.7,1.6-1.6,1.6H744.6C732.2,655.3,716.4,661.2,700,661.2z M435.9,641.4H656
			c0.4,0,0.8,0.1,1.1,0.4c11.9,10.4,27.1,16.2,42.9,16.2c15.8,0,31-5.7,42.9-16.2c0.3-0.3,0.7-0.4,1.1-0.4h221.3v-5H435.9V641.4z"/>
	</g>
</g>
</svg>
