<?xml version="1.0" encoding="UTF-8" standalone="no"?>
<svg
   xmlns:dc="http://purl.org/dc/elements/1.1/"
   xmlns:cc="http://creativecommons.org/ns#"
   xmlns:rdf="http://www.w3.org/1999/02/22-rdf-syntax-ns#"
   xmlns:svg="http://www.w3.org/2000/svg"
   xmlns="http://www.w3.org/2000/svg"
   xmlns:sodipodi="http://sodipodi.sourceforge.net/DTD/sodipodi-0.dtd"
   xmlns:inkscape="http://www.inkscape.org/namespaces/inkscape"
   version="1.1"
   id="svg2"
   xml:space="preserve"
   width="2266.6667"
   height="1275"
   viewBox="0 0 2266.6667 1275"
   sodipodi:docname="reach.svg"
   inkscape:version="1.0.1 (0767f8302a, 2020-10-17)"><metadata
     id="metadata8"><rdf:RDF><cc:Work
         rdf:about=""><dc:format>image/svg+xml</dc:format><dc:type
           rdf:resource="http://purl.org/dc/dcmitype/StillImage" /><dc:title /></cc:Work></rdf:RDF></metadata><defs
     id="defs6" /><sodipodi:namedview
     pagecolor="#ffffff"
     bordercolor="#666666"
     borderopacity="1"
     objecttolerance="10"
     gridtolerance="10"
     guidetolerance="10"
     inkscape:pageopacity="0"
     inkscape:pageshadow="2"
     inkscape:window-width="1200"
     inkscape:window-height="1788"
     id="namedview4"
     showgrid="false"
     inkscape:zoom="0.16483418"
     inkscape:cx="1951.4766"
     inkscape:cy="678.81989"
     inkscape:window-x="0"
     inkscape:window-y="27"
     inkscape:window-maximized="1"
     inkscape:current-layer="g10"
     inkscape:document-rotation="0" /><g
     id="g10"
     inkscape:groupmode="layer"
     inkscape:label="ink_ext_XXXXXX"
     transform="matrix(1.3333333,0,0,-1.3333333,0,1275)"><path
       d="m 1502.66,448.766 c 0,156.922 -127.21,284.133 -284.13,284.133 -156.92,0 -284.136,-127.211 -284.136,-284.133 0,-156.921 127.216,-284.132 284.136,-284.132 156.92,0 284.13,127.211 284.13,284.132"
       style="fill:#fdffff;fill-opacity:1;fill-rule:nonzero;stroke:none;stroke-width:0.1"
       id="path18" /><path
       d="m 623.793,433.288 c 0,141.127 -114.407,255.534 -255.534,255.534 -141.128,0 -255.535,-114.407 -255.535,-255.534 0,-141.128 114.407,-255.536 255.535,-255.536 141.127,0 255.534,114.408 255.534,255.536"
       style="fill:#fdffff;fill-opacity:1;fill-rule:nonzero;stroke:none;stroke-width:0.1"
       id="path20" /><path
       d="M 481.889,223.928 H 250.636 c -16.337,0 -29.581,13.244 -29.581,29.581 v 470.158 c 0,16.337 13.244,29.581 29.581,29.581 h 231.253 c 16.337,0 29.58,-13.244 29.58,-29.581 V 253.509 c 0,-16.337 -13.243,-29.581 -29.58,-29.581"
       style="fill:#293444;fill-opacity:1;fill-rule:nonzero;stroke:none;stroke-width:0.1"
       id="path22" /><path
       d="M 491.247,698.258 H 242.642 c -1.094,0 -1.981,-0.862 -1.981,-1.926 V 273.089 c 0,-1.063 0.887,-1.925 1.981,-1.925 h 248.605 c 1.094,0 1.981,0.862 1.981,1.925 v 423.243 c 0,1.064 -0.887,1.926 -1.981,1.926"
       style="fill:#8cd8ff;fill-opacity:1;fill-rule:nonzero;stroke:none;stroke-width:0.1"
       id="path24" /><path
       d="M 240.661,696.333 V 374.639 l 251.026,323.533 c -0.145,0.033 -0.284,0.085 -0.44,0.085 H 242.642 c -1.094,0 -1.981,-0.861 -1.981,-1.924"
       style="fill:#a0dfff;fill-opacity:1;fill-rule:nonzero;stroke:none;stroke-width:0.1"
       id="path26" /><path
       d="m 243.245,271.164 h -0.603 c -1.094,0 -1.981,0.861 -1.981,1.925 v 0 c 0,-1.063 0.887,-1.925 1.981,-1.925 h 0.603 m 249.983,417.882 v 0 7.286 c 0,0.369 -0.107,0.714 -0.292,1.007 0.185,-0.293 0.292,-0.638 0.292,-1.006 v -7.287"
       style="fill:#1f6c85;fill-opacity:1;fill-rule:nonzero;stroke:none;stroke-width:0.1"
       id="path28" /><path
       d="m 243.245,271.164 h -0.603 c -1.094,0 -1.981,0.862 -1.981,1.925 v 101.55 l 5.666,7.302 v -67.293 l -1.253,-0.578 -1.829,-42.906 m 249.983,417.882 h -8.621 l 7.08,9.126 c -0.145,0.033 -0.284,0.085 -0.44,0.085 0.715,0 1.341,-0.367 1.689,-0.918 0.185,-0.293 0.292,-0.638 0.292,-1.007 v -7.286"
       style="fill:#66c8ff;fill-opacity:1;fill-rule:nonzero;stroke:none;stroke-width:0.1"
       id="path30" /><path
       d="m 240.661,374.639 v 321.694 c 0,1.063 0.887,1.924 1.981,1.924 h 248.605 v 0 c 0.156,0 0.295,-0.052 0.44,-0.085 l -7.08,-9.126 H 248.308 c -1.094,0 -1.981,-0.862 -1.981,-1.926 V 381.941 l -5.666,-7.302"
       style="fill:#66c8ff;fill-opacity:1;fill-rule:nonzero;stroke:none;stroke-width:0.1"
       id="path32" /><path
       d="m 332.269,271.164 h -85.942 v 43.484 l 93.92,43.38 c 0.282,1.474 0.604,2.982 1.016,4.489 0.176,0.671 0.351,1.343 0.546,2.031 0.174,0.635 0.366,1.27 0.558,1.903 2.919,9.508 7.986,19.035 15.55,27.758 2.854,3.694 6.152,7.021 9.58,9.958 -0.727,3.186 -1.486,6.466 -2.114,9.815 -0.228,1.109 -0.418,2.237 -0.609,3.345 -0.086,0.574 -0.174,1.109 -0.278,1.665 -0.099,0.683 -0.199,1.365 -0.279,2.048 l -5.047,-1.326 c -3.625,-0.967 -7.264,-1.429 -10.847,-1.429 -14.47,0 -27.995,7.539 -35.635,19.777 -6.189,1.169 -11.991,3.791 -16.926,7.593 l 86.516,111.506 c 49.103,17.002 83.388,34.556 110.95,53.767 V 450.626 c -14.138,-0.477 -29.415,-1.956 -46.358,-4.709 0.009,-0.201 -0.017,-0.401 -0.008,-0.605 -0.025,-0.585 -0.032,-1.191 -0.022,-1.814 0.05,-1.837 0.26,-3.791 0.653,-5.752 0.101,-0.666 0.257,-1.296 0.467,-1.965 l 0.047,-0.187 4.536,0.505 c 0.433,0.048 0.864,0.072 1.29,0.072 5.791,0 10.778,-4.339 11.45,-10.229 l 0.252,-2.269 c 0.525,-4.462 -1.615,-8.609 -5.144,-10.916 5.05,-0.748 9.189,-4.815 9.769,-10.124 l 0.253,-2.249 c 0.358,-3.226 -0.635,-6.284 -2.551,-8.624 4.587,-0.857 8.379,-4.43 9.256,-9.256 l 0.419,-2.239 c 0.742,-4.105 -0.785,-8.058 -3.647,-10.651 3.149,-1.035 5.755,-3.567 6.748,-6.984 l 0.574,-2.006 c 1.085,-3.827 -0.11,-7.776 -2.828,-10.393 3.053,-7.158 5.061,-14.711 4.117,-22.229 -1.833,-14.584 -17.149,-22.664 -33.308,-25.112 -2.035,-0.309 -3.968,-0.449 -5.815,-0.449 -9.202,0 -16.236,3.486 -22.657,6.984 -0.448,0.257 -0.933,0.498 -1.398,0.793 -0.208,-0.156 -0.416,-0.294 -0.643,-0.449 0,0 -0.037,-0.017 -0.151,-0.104 -0.204,-0.047 -0.635,-0.266 -1.306,-0.512 -0.17,-0.104 -0.375,-0.187 -0.598,-0.27 -0.207,-0.101 -0.467,-0.181 -0.728,-0.28 -0.505,-0.217 -1.064,-0.432 -1.699,-0.68 -0.298,-0.115 -0.635,-0.266 -0.989,-0.381 -0.223,-0.081 -0.429,-0.163 -0.652,-0.246 -0.671,-0.246 -1.398,-0.509 -2.181,-0.788 -0.595,-0.213 -1.247,-0.424 -1.935,-0.633 -0.446,-0.146 -0.893,-0.292 -1.376,-0.455 -0.168,-0.046 -0.354,-0.113 -0.522,-0.179 -0.502,-0.145 -1.004,-0.305 -1.543,-0.467 -0.501,-0.143 -1.04,-0.304 -1.561,-0.447 -1.616,-0.481 -3.323,-0.941 -5.103,-1.36 -0.407,-0.094 -0.815,-0.185 -1.222,-0.278 -0.408,-0.093 -0.834,-0.185 -1.26,-0.277 -0.74,-0.152 -1.481,-0.304 -2.221,-0.455 -5.019,-0.988 -10.421,-1.661 -15.829,-1.661 -0.294,0 -0.589,0.002 -0.883,0.006 l -44.652,-29.138"
       style="fill:#66c8ff;fill-opacity:1;fill-rule:nonzero;stroke:none;stroke-width:0.1"
       id="path34" /><path
       d="m 295.762,445.655 c -6.664,5.132 -11.749,12.413 -14.084,21.177 -4.049,15.217 1.31,30.731 12.489,40.328 0.534,18.104 12.81,34.498 31.201,39.402 l 49.867,13.267 c 0.405,0.112 0.812,0.165 1.214,0.165 1.99,0 3.826,-1.313 4.412,-3.322 0.475,0.163 0.945,0.325 1.417,0.489 L 295.762,445.655"
       style="fill:#66c8ff;fill-opacity:1;fill-rule:nonzero;stroke:none;stroke-width:0.1"
       id="path36" /><path
       d="m 246.327,271.164 h -3.082 l 1.829,42.906 1.253,0.578 v -43.484"
       style="fill:#15abc6;fill-opacity:1;fill-rule:nonzero;stroke:none;stroke-width:0.1"
       id="path38" /><path
       d="m 414.608,242.788 h -83.526 c -1.963,0 -3.555,1.589 -3.555,3.55 0,1.961 1.592,3.551 3.555,3.551 h 83.526 c 1.964,0 3.556,-1.59 3.556,-3.551 0,-1.961 -1.592,-3.55 -3.556,-3.55"
       style="fill:#4f586a;fill-opacity:1;fill-rule:nonzero;stroke:none;stroke-width:0.1"
       id="path40" /><path
       d="m 414.608,722.566 h -6.672 c -1.964,0 -3.556,1.59 -3.556,3.551 0,1.961 1.592,3.551 3.556,3.551 h 6.672 c 1.964,0 3.556,-1.59 3.556,-3.551 0,-1.961 -1.592,-3.551 -3.556,-3.551"
       style="fill:#4f586a;fill-opacity:1;fill-rule:nonzero;stroke:none;stroke-width:0.1"
       id="path42" /><path
       d="m 361.84,722.242 c -10.248,0 -20.554,0.109 -30.832,0.325 -1.964,0.042 -3.522,1.664 -3.48,3.625 0.04,1.935 1.624,3.476 3.553,3.476 l 0.076,-10e-4 c 10.23,-0.216 20.49,-0.324 30.688,-0.324 8.114,0 16.187,0.069 24.179,0.205 l 0.063,10e-4 c 1.935,0 3.52,-1.55 3.553,-3.49 0.034,-1.961 -1.53,-3.578 -3.494,-3.611 -8.033,-0.137 -16.151,-0.206 -24.306,-0.206"
       style="fill:#4f586a;fill-opacity:1;fill-rule:nonzero;stroke:none;stroke-width:0.1"
       id="path44" /><path
       d="m 384.093,322.233 -11.054,-7.9 -0.073,-0.056 -60.291,-43.114 H 242.65 c -1.1,0 -1.998,0.861 -1.998,1.924 v 49.33 l 93.214,47.971 0.036,0.019 4.015,2.071 4.894,2.511 39.1,-49.97 2.182,-2.786"
       style="fill:#fed2b5;fill-opacity:1;fill-rule:nonzero;stroke:none;stroke-width:0.1"
       id="path46" /><path
       d="m 423.376,349.583 c 0.11,-4.748 -0.403,-9.166 -1.595,-12.997 -0.11,-0.384 -0.256,-0.77 -0.384,-1.155 -0.074,-0.257 -0.184,-0.476 -0.257,-0.715 -0.092,-0.275 -0.22,-0.531 -0.33,-0.806 -0.587,-1.357 -1.265,-2.604 -2.053,-3.758 -0.22,-0.33 -0.44,-0.642 -0.679,-0.935 -0.182,-0.275 -0.385,-0.513 -0.604,-0.769 -0.165,-0.221 -0.348,-0.405 -0.55,-0.588 -0.257,-0.312 -0.532,-0.586 -0.825,-0.824 -0.22,-0.22 -0.422,-0.422 -0.66,-0.624 -0.165,-0.147 -0.349,-0.275 -0.532,-0.421 -0.201,-0.165 -0.403,-0.312 -0.623,-0.477 0,0 -0.036,-0.018 -0.147,-0.11 -0.201,-0.056 -0.623,-0.293 -1.283,-0.569 -0.165,-0.109 -0.367,-0.201 -0.586,-0.293 -0.202,-0.11 -0.459,-0.202 -0.715,-0.311 -0.495,-0.238 -1.045,-0.477 -1.669,-0.751 -0.293,-0.129 -0.623,-0.294 -0.971,-0.423 -0.22,-0.091 -0.422,-0.182 -0.641,-0.274 -0.661,-0.276 -1.375,-0.569 -2.146,-0.88 -0.586,-0.238 -1.228,-0.477 -1.906,-0.715 -0.44,-0.165 -0.88,-0.33 -1.356,-0.514 -0.165,-0.054 -0.349,-0.128 -0.513,-0.201 -0.496,-0.166 -0.99,-0.348 -1.522,-0.531 -0.495,-0.166 -1.027,-0.349 -1.54,-0.515 -1.595,-0.549 -3.281,-1.081 -5.041,-1.576 -0.403,-0.109 -0.807,-0.22 -1.21,-0.329 -0.403,-0.11 -0.825,-0.22 -1.246,-0.33 -0.733,-0.184 -1.467,-0.367 -2.2,-0.551 -5.243,-1.265 -10.925,-2.199 -16.626,-2.364 -4.308,-0.128 -8.597,0.165 -12.74,1.063 -1.284,0.276 -2.567,0.605 -3.831,1.009 -14.72,4.71 -25.004,25.626 -23.043,49.567 0.128,1.485 0.275,2.988 0.514,4.472 0.219,1.486 0.476,3.006 0.824,4.528 0.147,0.678 0.294,1.357 0.458,2.053 0.147,0.642 0.312,1.283 0.478,1.925 2.511,9.623 7.167,19.357 14.353,28.395 l 0.165,0.183 c 0.109,0.165 0.201,0.293 0.311,0.422 1.907,2.401 4.051,4.747 6.361,7.039 0.807,0.806 1.65,1.539 2.456,2.218 3.979,3.226 8.066,4.968 12.154,5.463 h 0.018 c 1.87,0.202 3.74,0.165 5.591,-0.111 7.736,-1.118 15.343,-6.269 22.071,-13.748 1.741,-1.924 3.446,-4.014 5.022,-6.213 0.679,-0.88 1.339,-1.816 1.962,-2.732 l 0.018,-0.037 c 0.495,-0.733 1.008,-1.485 1.485,-2.255 V 397.5 c 3.447,-5.425 6.489,-11.383 8.964,-17.506 0.715,-1.797 1.393,-3.63 2.016,-5.481 0.111,-0.257 0.202,-0.513 0.257,-0.769 1.357,-4.052 2.456,-8.159 3.226,-12.155 0.129,-0.66 0.238,-1.338 0.349,-1.979 0.11,-0.678 0.22,-1.375 0.329,-2.053 0.111,-0.661 0.184,-1.32 0.257,-1.98 0.018,-0.184 0.037,-0.367 0.055,-0.549 0.018,-0.184 0.037,-0.386 0.055,-0.569 0.165,-1.668 0.257,-3.3 0.275,-4.876"
       style="fill:#fed2b5;fill-opacity:1;fill-rule:nonzero;stroke:none;stroke-width:0.1"
       id="path48" /><path
       d="m 423.376,349.583 c 0.11,-4.748 -0.403,-9.166 -1.595,-12.997 -0.11,-0.384 -0.256,-0.77 -0.384,-1.155 -0.074,-0.257 -0.184,-0.476 -0.257,-0.715 -0.092,-0.275 -0.22,-0.531 -0.33,-0.806 -0.587,-1.357 -1.265,-2.604 -2.053,-3.758 -0.22,-0.33 -0.44,-0.642 -0.679,-0.935 -0.182,-0.275 -0.385,-0.513 -0.604,-0.769 -0.165,-0.221 -0.348,-0.405 -0.55,-0.588 -0.257,-0.312 -0.532,-0.586 -0.825,-0.824 -0.22,-0.22 -0.422,-0.422 -0.66,-0.624 -0.165,-0.147 -0.349,-0.275 -0.532,-0.421 -0.201,-0.165 -0.403,-0.312 -0.623,-0.477 0,0 -0.036,-0.018 -0.147,-0.11 -0.201,-0.056 -0.623,-0.293 -1.283,-0.569 -0.165,-0.109 -0.367,-0.201 -0.586,-0.293 -0.202,-0.11 -0.459,-0.202 -0.715,-0.311 -0.495,-0.238 -1.045,-0.477 -1.669,-0.751 -0.293,-0.129 -0.623,-0.294 -0.971,-0.423 -0.22,-0.091 -0.422,-0.182 -0.641,-0.274 -0.661,-0.276 -1.375,-0.569 -2.146,-0.88 -0.586,-0.238 -1.228,-0.477 -1.906,-0.715 -0.44,-0.165 -0.88,-0.33 -1.356,-0.514 -0.165,-0.054 -0.349,-0.128 -0.513,-0.201 -0.496,-0.166 -0.99,-0.348 -1.522,-0.531 -0.495,-0.166 -1.027,-0.349 -1.54,-0.515 -1.595,-0.512 -3.281,-1.044 -5.023,-1.556 l -0.018,-0.02 c -0.403,-0.109 -0.807,-0.22 -1.21,-0.329 -0.403,-0.11 -0.825,-0.22 -1.246,-0.33 -0.733,-0.184 -1.467,-0.367 -2.2,-0.551 -5.224,-1.209 -10.889,-2.126 -16.553,-2.308 l -0.073,-0.056 -60.291,-43.114 h -7.406 l 54.957,44.177 0.036,0.019 c 0,0 -9.807,7.131 -9.239,16.846 0.496,8.267 20.605,-10.962 30.888,-7.186 1.778,0.66 3.245,1.998 4.29,4.234 4.784,10.468 -5.591,18.534 -4.711,35.196 0.036,0.734 0.311,1.412 0.806,2.035 1.998,2.64 7.644,4.436 15.49,5.591 5.188,0.769 11.31,1.284 17.965,1.558 h 0.018 c 1.026,0.055 2.053,0.074 3.061,0.111 1.357,-4.052 2.456,-8.159 3.226,-12.155 0.129,-0.66 0.238,-1.338 0.349,-1.979 0.11,-0.678 0.22,-1.375 0.329,-2.053 0.092,-0.679 0.184,-1.302 0.239,-1.98 v -0.018 c 0.018,-0.166 0.055,-0.349 0.073,-0.531 0.018,-0.184 0.037,-0.386 0.055,-0.569 0.165,-1.668 0.257,-3.3 0.275,-4.876"
       style="fill:#ffc49c;fill-opacity:1;fill-rule:nonzero;stroke:none;stroke-width:0.1"
       id="path50" /><path
       d="m 346.881,478.047 c -3.447,-12.612 -13.052,-23.262 -26.47,-27.479 -5.848,-1.815 -11.806,-2.218 -17.488,-1.393 -14.647,2.126 -27.497,12.355 -32.208,27.423 -4.693,15.031 0,30.76 10.761,40.824 2.089,1.924 4.38,3.684 6.874,5.132 h 0.018 c 1.961,1.193 4.088,2.2 6.306,3.044 h 0.018 c 0.66,0.257 1.356,0.476 2.072,0.715 13.418,4.161 27.386,0.879 37.395,-7.572 5.609,-4.674 9.954,-10.98 12.3,-18.477 2.328,-7.479 2.365,-15.159 0.422,-22.217"
       style="fill:#1a16c5;fill-opacity:1;fill-rule:nonzero;stroke:none;stroke-width:0.1"
       id="path52" /><path
       d="m 283.53,495.269 c 0.447,-1.429 -1.63,-3.35 -4.638,-4.29 -3.009,-0.94 -5.81,-0.544 -6.257,0.885 -0.446,1.429 1.63,3.349 4.639,4.29 3.009,0.94 5.81,0.544 6.256,-0.885"
       style="fill:#c9e4f2;fill-opacity:1;fill-rule:nonzero;stroke:none;stroke-width:0.1"
       id="path54" /><path
       d="m 287.707,481.907 c 0.446,-1.428 -1.63,-3.349 -4.639,-4.29 -3.008,-0.941 -5.81,-0.544 -6.256,0.885 -0.447,1.429 1.63,3.35 4.638,4.291 3.009,0.939 5.81,0.543 6.257,-0.886"
       style="fill:#c9e4f2;fill-opacity:1;fill-rule:nonzero;stroke:none;stroke-width:0.1"
       id="path56" /><path
       d="m 291.883,468.545 c 0.447,-1.428 -1.63,-3.349 -4.638,-4.29 -3.009,-0.94 -5.81,-0.544 -6.257,0.885 -0.446,1.429 1.63,3.35 4.639,4.29 3.008,0.941 5.81,0.545 6.256,-0.885"
       style="fill:#c9e4f2;fill-opacity:1;fill-rule:nonzero;stroke:none;stroke-width:0.1"
       id="path58" /><path
       d="m 430.122,431.779 c -4.106,0.641 -8.579,1.999 -12.978,4.179 -1.467,0.697 -2.896,1.503 -4.308,2.402 -6.306,3.978 -7.388,10.669 -5.444,17.415 0.531,1.888 1.319,3.758 2.273,5.554 0.788,1.485 1.686,2.933 2.676,4.307 1.026,1.412 2.163,2.768 3.391,4.015 0.403,0.404 0.807,0.825 1.228,1.21 0.293,0.311 0.605,0.604 0.917,0.861 0.953,0.863 1.979,1.669 3.006,2.347 0.348,0.256 0.697,0.495 1.045,0.715 0.33,0.219 0.697,0.403 1.045,0.604 1.045,0.624 2.126,1.118 3.208,1.541 0.348,0.146 0.715,0.275 1.081,0.366 0.349,0.128 0.716,0.238 1.082,0.331 3.684,0.934 7.387,0.622 10.669,-1.486 0,0 -0.367,-0.935 -0.825,-2.512 -0.019,-0.073 -0.037,-0.127 -0.037,-0.237 l -0.037,0.018 c -0.586,-2.218 -1.32,-5.573 -1.429,-9.495 -0.037,-0.368 -0.037,-0.77 -0.056,-1.173 0,-0.184 0,-0.386 0.038,-0.606 0,-0.586 0.018,-1.191 0.054,-1.814 0.11,-1.87 0.385,-3.795 0.899,-5.72 0.128,-0.659 0.311,-1.283 0.549,-1.943 l 0.055,-0.183 c 1.137,-3.428 3.006,-6.855 5.921,-9.99 7.534,-8.084 -1.448,-12.74 -14.023,-10.706"
       style="fill:#e6f7ff;fill-opacity:1;fill-rule:nonzero;stroke:none;stroke-width:0.1"
       id="path60" /><path
       d="m 436.685,463.914 c -0.037,-0.404 -0.037,-0.77 -0.037,-1.173 0.019,-0.202 0,-0.404 0.019,-0.606 0,-0.586 0.018,-1.191 0.054,-1.814 0.128,-1.833 0.422,-3.777 0.899,-5.72 0.128,-0.659 0.311,-1.283 0.549,-1.943 l -21.612,-1.32 -8.817,-0.513 -0.825,2.639 c 0.128,0.771 0.33,1.559 0.55,2.329 v 0.018 c 0.531,1.834 1.283,3.667 2.236,5.444 0.77,1.522 1.668,2.988 2.695,4.4 1.026,1.411 2.126,2.749 3.336,3.996 0.403,0.404 0.807,0.825 1.228,1.21 0.293,0.311 0.605,0.604 0.917,0.861 0.971,0.863 1.979,1.65 3.006,2.347 0.348,0.256 0.697,0.495 1.045,0.715 0.33,0.219 0.697,0.403 1.045,0.604 1.045,0.624 2.126,1.118 3.208,1.541 0.348,0.146 0.715,0.275 1.081,0.366 0.349,0.128 0.716,0.238 1.082,0.331 3.684,0.934 7.387,0.622 10.669,-1.486 0,0 -0.367,-0.935 -0.825,-2.512 -0.019,-0.073 -0.037,-0.127 -0.074,-0.219 -0.586,-2.218 -1.32,-5.573 -1.429,-9.495"
       style="fill:#ceeaf7;fill-opacity:1;fill-rule:nonzero;stroke:none;stroke-width:0.1"
       id="path62" /><path
       d="m 477.27,346.448 c -1.21,-14.647 -16.168,-23.372 -32.208,-26.506 -12.08,-2.365 -20.843,1.448 -28.725,5.315 -0.458,0.239 -0.953,0.458 -1.43,0.734 -15.618,8.267 -25.352,23.996 -32.611,40.493 -0.165,0.386 -0.312,0.733 -0.476,1.099 -0.55,1.266 -1.082,2.512 -1.595,3.777 -5.243,12.758 -15.252,25.608 -18.991,38.88 -0.275,0.99 -0.568,1.999 -0.843,2.988 -0.385,1.302 -0.752,2.604 -1.119,3.923 -0.054,0.146 -0.073,0.293 -0.128,0.44 l -0.018,0.055 c -0.862,3.153 -1.76,6.397 -2.53,9.716 -0.275,1.098 -0.513,2.218 -0.752,3.317 -0.11,0.569 -0.219,1.1 -0.348,1.651 -0.128,0.677 -0.256,1.355 -0.366,2.034 -0.294,1.558 -0.55,3.097 -0.733,4.656 -0.092,0.55 -0.166,1.1 -0.221,1.649 -0.073,0.734 -0.146,1.466 -0.201,2.218 -0.165,1.705 -0.22,3.41 -0.22,5.078 -0.018,0.826 0.018,1.65 0.055,2.475 0.018,0.33 0.037,0.696 0.055,1.045 0.054,0.697 0.11,1.411 0.201,2.107 0.074,0.679 0.184,1.321 0.275,1.999 0.092,0.477 0.165,0.991 0.275,1.486 0.33,1.685 0.807,3.299 1.632,4.802 4.619,8.304 29.751,12.025 39.613,13.198 2.475,0.294 3.978,0.422 3.978,0.422 l 7.644,-11.053 c 0.733,-1.028 1.448,-2.072 2.182,-3.117 l 0.036,-0.074 c 0.953,-1.356 1.888,-2.75 2.878,-4.125 1.32,-1.923 2.658,-3.849 3.978,-5.792 1.045,-1.484 2.09,-2.988 3.116,-4.472 3.483,-5.023 6.966,-10.064 10.449,-15.087 0.642,-0.917 1.265,-1.833 1.888,-2.731 0.312,-0.44 0.642,-0.917 0.953,-1.375 0.349,-0.495 0.715,-0.99 1.082,-1.504 0.22,-0.348 0.495,-0.713 0.751,-1.081 4.18,-5.902 8.469,-11.731 12.722,-17.598 0.697,-0.953 1.393,-1.924 2.053,-2.877 4.015,-5.555 7.919,-11.164 11.622,-16.956 0.568,-0.844 1.1,-1.705 1.595,-2.567 0.696,-1.082 1.357,-2.144 1.998,-3.226 2.53,-4.161 5.188,-8.671 7.424,-13.382 3.355,-7.021 5.683,-14.482 5.06,-22.034"
       style="fill:#1ec200;fill-opacity:1;fill-rule:nonzero;stroke:none;stroke-width:0.1"
       id="path64" /><path
       d="m 434.852,425.088 h -0.056 l -14.591,0.421 h -0.037 l -11.823,0.349 h -0.019 l -0.531,0.018 -7.058,0.203 -23.006,0.677 h -0.018 l -0.109,-0.018 -6.636,0.22 -0.074,-0.018 -14.298,0.422 c -0.275,1.098 -0.513,2.218 -0.752,3.317 -0.11,0.569 -0.219,1.1 -0.348,1.651 -0.128,0.677 -0.256,1.355 -0.366,2.034 -0.294,1.558 -0.55,3.097 -0.733,4.656 -0.092,0.55 -0.166,1.1 -0.221,1.649 -0.073,0.734 -0.146,1.466 -0.201,2.218 -0.165,1.705 -0.22,3.41 -0.22,5.078 -0.018,0.826 0.018,1.65 0.055,2.475 0.018,0.33 0.037,0.696 0.055,1.045 0.054,0.697 0.11,1.411 0.201,2.107 0.074,0.679 0.184,1.321 0.275,1.999 0.092,0.477 0.165,0.991 0.275,1.486 0.33,1.685 0.807,3.299 1.632,4.802 4.619,8.304 29.751,12.025 39.613,13.198 2.475,0.294 3.978,0.422 3.978,0.422 l 7.644,-11.053 c 0.733,-1.028 1.448,-2.072 2.182,-3.117 l 0.036,-0.074 c 0.953,-1.356 1.888,-2.75 2.878,-4.125 1.32,-1.923 2.658,-3.849 3.978,-5.792 1.045,-1.484 2.09,-2.988 3.116,-4.472 3.483,-5.023 6.966,-10.064 10.449,-15.087 0.642,-0.917 1.265,-1.833 1.888,-2.731 0.312,-0.44 0.642,-0.917 0.953,-1.375 0.349,-0.495 0.715,-0.99 1.082,-1.504 l 0.807,-1.081"
       style="fill:#1da600;fill-opacity:1;fill-rule:nonzero;stroke:none;stroke-width:0.1"
       id="path66" /><path
       d="m 666.391,439.405 -0.037,0.018 c -6.196,1.338 -12.171,2.677 -17.982,4.033 -33.913,8.029 -61.446,16.388 -89.493,21.593 -20.677,3.85 -41.629,5.995 -65.643,5.006 -16.993,-0.697 -35.544,-2.97 -56.588,-7.314 h -0.019 c -7.662,-1.596 -15.654,-3.447 -24.05,-5.611 -1.686,-0.402 -3.391,-0.879 -5.114,-1.319 v -0.018 l -0.073,-0.018 c -1.687,-0.44 -3.373,-0.899 -5.078,-1.357 -6.416,-1.778 -13.015,-3.703 -19.871,-5.811 -0.935,-0.293 -1.852,-0.514 -2.786,-0.696 -0.312,-0.074 -0.642,-0.129 -0.99,-0.166 -0.752,-0.146 -1.503,-0.219 -2.273,-0.275 -0.715,-0.054 -1.449,-0.073 -2.164,-0.054 -0.476,0 -0.916,0.018 -1.393,0.037 -0.861,0.054 -1.704,0.164 -2.529,0.311 -0.404,0.073 -0.807,0.147 -1.21,0.22 -0.733,0.165 -1.449,0.349 -2.163,0.567 -5.059,1.504 -9.386,4.547 -12.319,8.526 -1.356,1.813 -2.383,3.848 -3.061,6.011 l -4.674,14.959 -12.722,40.694 -4.693,15.014 c -1.759,5.554 -0.88,11.603 2.053,16.883 l 0.019,0.037 c 0.916,1.686 2.071,3.299 3.428,4.802 2.969,3.318 6.91,6.049 11.639,7.773 6.71,2.438 13.181,4.876 19.376,7.332 60.163,23.61 97.503,47.074 127.255,73.141 25.095,21.997 44.783,45.864 68.191,73.287 1.412,1.632 2.805,3.282 4.235,4.968 1.118,1.283 2.218,2.548 3.336,3.868 l 0.073,0.036 0.019,0.019 v 0.018 c 1.118,1.302 2.236,2.603 3.391,3.923 l 0.018,0.019 c 0.733,0.88 1.485,1.741 2.255,2.62 h 0.018 l 11.256,-35.983 0.44,-1.375 -0.019,-0.037 0.055,-0.147 v -0.017 L 606.577,630.8 v -0.019 l 28.009,-89.657 20.073,-64.195 0.018,-0.055 11.714,-37.469"
       style="fill:#e6f7ff;fill-opacity:1;fill-rule:nonzero;stroke:none;stroke-width:0.1"
       id="path68" /><path
       d="m 666.391,439.405 -0.037,0.018 c -6.196,1.338 -12.171,2.677 -17.982,4.033 -33.913,8.029 -61.446,16.388 -89.493,21.593 -20.677,3.85 -41.629,5.995 -65.643,5.006 -16.993,-0.697 -35.544,-2.97 -56.588,-7.314 h -0.019 c -7.662,-1.596 -15.654,-3.447 -24.05,-5.611 -1.686,-0.402 -3.391,-0.879 -5.114,-1.319 v -0.018 l -0.073,-0.018 c -1.687,-0.44 -3.373,-0.899 -5.078,-1.357 -6.416,-1.778 -13.015,-3.703 -19.871,-5.811 -0.935,-0.293 -1.852,-0.514 -2.786,-0.696 -0.312,-0.074 -0.642,-0.129 -0.99,-0.166 -0.752,-0.146 -1.503,-0.219 -2.273,-0.275 -0.715,-0.054 -1.449,-0.073 -2.164,-0.054 -0.476,0 -0.916,0.018 -1.393,0.037 -0.861,0.054 -1.704,0.164 -2.529,0.311 -0.404,0.073 -0.807,0.147 -1.21,0.22 -5.847,1.283 -10.962,4.564 -14.298,9.018 5.279,0.276 10.558,0.661 15.893,1.229 9.88,1.045 19.577,2.566 29.036,4.527 2.603,0.532 5.188,1.1 7.754,1.688 1.632,0.385 3.245,0.787 4.858,1.19 l 0.055,0.019 c 8.799,2.2 17.378,4.803 25.718,7.754 l 0.037,-0.018 c 19.908,7.021 38.404,16.039 55.085,26.671 37.267,23.72 65.515,55.488 80.436,91.143 2.53,6.012 4.675,12.135 6.398,18.331 0.77,2.713 1.467,5.425 2.053,8.175 v 0.018 c 0.972,4.381 1.742,8.817 2.292,13.272 v 0.018 0.037 c 1.393,10.888 1.539,21.979 0.348,33.161 -0.367,3.263 -0.807,6.471 -1.393,9.661 -2.2,12.592 -6.104,24.673 -11.457,36.093 l -0.018,0.037 -0.019,0.018 c -1.411,3.098 -2.97,6.141 -4.638,9.165 l -0.018,0.019 c -0.495,0.935 -1.027,1.852 -1.558,2.768 1.118,1.283 2.218,2.548 3.336,3.868 l 0.073,0.036 0.019,0.019 v 0.018 c 1.118,1.302 2.236,2.603 3.391,3.923 l 0.018,0.019 c 0.733,0.88 1.485,1.741 2.255,2.62 h 0.018 l 11.256,-35.983 0.44,-1.375 -0.019,-0.037 0.055,-0.164 20.073,-64.122 v -0.019 l 28.009,-89.657 20.073,-64.195 0.018,-0.055 11.714,-37.469"
       style="fill:#d6f2ff;fill-opacity:1;fill-rule:nonzero;stroke:none;stroke-width:0.1"
       id="path70" /><path
       d="m 666.383,439.414 -0.023,0.003 c -4.374,-1.381 -9.999,-3.135 -17.982,4.048 -12.396,11.131 -30.473,43.824 -58.331,132.94 -3.732,11.961 -7.054,22.976 -9.979,33.139 -1.04,3.648 -2.043,7.196 -2.99,10.621 -15.402,55.71 -18.043,83.019 -15.641,96.84 2.186,12.592 8.574,13.996 13.315,15.475 l 0.023,-0.002 c 3.217,0.995 8.107,-3.507 14.028,-12.341 11.001,-16.363 25.554,-47.625 39.75,-86.582 1.238,-3.365 2.448,-6.772 3.649,-10.249 1.335,-3.752 2.661,-7.576 3.955,-11.467 2.086,-6.231 4.155,-12.602 6.186,-19.088 4.457,-14.247 8.437,-28.131 11.902,-41.362 l -0.003,-0.023 c 16.208,-61.744 21.266,-109.001 12.141,-111.952"
       style="fill:#1ec200;fill-opacity:1;fill-rule:nonzero;stroke:none;stroke-width:0.1"
       id="path72" /><path
       d="m 632.555,589.697 c 20.281,-64.885 32.817,-118.707 27.999,-120.213 -4.818,-1.506 -25.165,49.874 -45.447,114.76 -20.281,64.886 -32.817,118.707 -27.999,120.213 4.818,1.506 25.165,-49.873 45.447,-114.76"
       style="fill:#1c9900;fill-opacity:1;fill-rule:nonzero;stroke:none;stroke-width:0.1"
       id="path74" /><path
       d="m 645.976,635.741 -27.413,-3.435 -17.054,-2.152 c 3.941,-14.173 8.556,-29.722 13.621,-45.927 5.066,-16.206 10.11,-31.559 14.942,-45.453 l 15.243,7.944 24.489,12.788 c 7.567,3.953 11.219,12.798 8.661,20.983 l -13.421,42.936 c -2.558,8.185 -10.597,13.373 -19.068,12.316"
       style="fill:#e6f7ff;fill-opacity:1;fill-rule:nonzero;stroke:none;stroke-width:0.1"
       id="path76" /><path
       d="m 650.167,622.577 c 1.003,-3.209 -4.85,-7.895 -13.074,-10.465 -8.223,-2.57 -15.703,-2.053 -16.706,1.157 -1.003,3.209 4.85,7.894 13.074,10.464 8.223,2.571 15.703,2.053 16.706,-1.156"
       style="fill:#ffffff;fill-opacity:1;fill-rule:nonzero;stroke:none;stroke-width:0.1"
       id="path78" /><path
       d="m 399.381,448.204 -44.251,-13.84 -4.986,-1.539 c -18.038,-5.647 -37.047,1.502 -47.221,16.35 -2.292,3.373 -4.143,7.113 -5.426,11.219 l -14.079,45.094 c -1.246,3.978 -1.888,7.974 -1.942,11.934 -0.239,18.111 11.328,35.013 29.494,40.695 l 49.256,15.38 c 2.382,0.769 4.949,-0.532 5.755,-2.915 l 0.056,-0.129 29.824,-95.376 3.868,-12.319 2.585,-8.34 0.128,-0.367 c 0.752,-2.456 -0.605,-5.077 -3.061,-5.847"
       style="fill:#1ec200;fill-opacity:1;fill-rule:nonzero;stroke:none;stroke-width:0.1"
       id="path80" /><path
       d="m 293.092,510.602 -0.118,-0.037 c -1.557,-0.415 -3.157,0.512 -3.572,2.065 -6.176,23.094 14.964,36.309 27.004,40.073 1.536,0.481 3.171,-0.376 3.651,-1.909 0.483,-1.538 -0.372,-3.173 -1.907,-3.658 -1.202,-0.382 -29.382,-9.554 -23.113,-32.995 0.407,-1.52 -0.461,-3.075 -1.945,-3.539"
       style="fill:#1ed600;fill-opacity:1;fill-rule:nonzero;stroke:none;stroke-width:0.1"
       id="path82" /><path
       d="m 334.981,555.453 c -0.61,1.955 -2.691,3.045 -4.647,2.434 -1.956,-0.612 -3.045,-2.692 -2.434,-4.648 0.611,-1.955 2.692,-3.045 4.647,-2.434 1.956,0.612 3.046,2.692 2.434,4.648"
       style="fill:#1ed600;fill-opacity:1;fill-rule:nonzero;stroke:none;stroke-width:0.1"
       id="path84" /><path
       d="m 398.461,560.574 c -3.071,-0.96 -6.339,0.747 -7.305,3.818 -0.968,3.076 0.741,6.35 3.814,7.317 94.351,29.682 140.047,97.41 140.497,98.094 1.781,2.676 5.399,3.419 8.082,1.649 2.687,-1.775 3.43,-5.393 1.657,-8.079 -1.924,-2.917 -48.25,-71.815 -146.734,-102.795 l -0.011,-0.004"
       style="fill:#ffffff;fill-opacity:1;fill-rule:nonzero;stroke:none;stroke-width:0.1"
       id="path86" /><path
       d="m 588.542,606.635 c -1.538,-0.481 -3.173,0.375 -3.654,1.914 -5.567,17.809 -23.317,78.368 -17.962,109.793 0.27,1.589 1.778,2.651 3.366,2.383 1.586,-0.268 2.656,-1.778 2.385,-3.367 -4.08,-23.948 6.51,-71.014 17.779,-107.069 0.481,-1.538 -0.376,-3.174 -1.914,-3.654"
       style="fill:#1ed600;fill-opacity:1;fill-rule:nonzero;stroke:none;stroke-width:0.1"
       id="path88" /><path
       d="m 575.614,727.491 c -0.556,1.78 -2.45,2.773 -4.23,2.216 -1.78,-0.556 -2.772,-2.45 -2.216,-4.23 0.557,-1.781 2.451,-2.772 4.231,-2.216 1.78,0.556 2.772,2.45 2.215,4.23"
       style="fill:#1ed600;fill-opacity:1;fill-rule:nonzero;stroke:none;stroke-width:0.1"
       id="path90" /><path
       d="m 420.883,401.667 -34.465,-10.772 c -1.538,-0.48 -3.173,0.375 -3.654,1.914 -0.482,1.539 0.376,3.174 1.914,3.654 l 34.465,10.773 c 1.537,0.481 3.173,-0.375 3.654,-1.913 0.481,-1.539 -0.376,-3.175 -1.914,-3.656"
       style="fill:#1da600;fill-opacity:1;fill-rule:nonzero;stroke:none;stroke-width:0.1"
       id="path92" /><path
       d="m 436.036,379.971 -34.465,-10.772 c -1.537,-0.481 -3.174,0.375 -3.654,1.914 -0.481,1.539 0.376,3.174 1.914,3.654 l 34.464,10.773 c 1.538,0.481 3.174,-0.375 3.655,-1.915 0.481,-1.538 -0.376,-3.173 -1.914,-3.654"
       style="fill:#1da600;fill-opacity:1;fill-rule:nonzero;stroke:none;stroke-width:0.1"
       id="path94" /><path
       d="m 449.737,357.821 -34.465,-10.773 c -1.537,-0.48 -3.173,0.375 -3.654,1.914 -0.481,1.539 0.376,3.174 1.914,3.655 l 34.465,10.773 c 1.537,0.481 3.173,-0.375 3.654,-1.914 0.481,-1.539 -0.376,-3.174 -1.914,-3.655"
       style="fill:#1da600;fill-opacity:1;fill-rule:nonzero;stroke:none;stroke-width:0.1"
       id="path96" /><path
       d="m 451.569,430.185 c -1.411,-1.027 -3.079,-1.725 -4.912,-2.036 l -12.612,-1.98 -3.611,-0.567 c -2.145,-0.33 -4.253,-0.073 -6.123,0.714 -3.611,1.468 -6.397,4.749 -7.039,8.873 l -0.128,0.769 -0.239,1.503 c -0.55,3.52 0.569,6.93 2.768,9.405 1.724,1.942 4.088,3.336 6.838,3.758 l 11.713,1.851 4.51,0.697 c 6.288,0.971 12.172,-3.318 13.162,-9.606 l 0.348,-2.255 c 0.715,-4.436 -1.246,-8.67 -4.675,-11.126"
       style="fill:#fed2b5;fill-opacity:1;fill-rule:nonzero;stroke:none;stroke-width:0.1"
       id="path98" /><path
       d="m 395.032,404.315 -12.121,7.703 c -5.902,3.75 -7.646,11.574 -3.896,17.476 3.75,5.901 11.574,7.644 17.475,3.894 l 20.697,-13.151 c 5.901,-3.75 9.918,-10.383 6.168,-16.284 -6.141,-9.402 -22.421,-3.388 -28.323,0.362"
       style="fill:#fed2b5;fill-opacity:1;fill-rule:nonzero;stroke:none;stroke-width:0.1"
       id="path100" /><path
       d="m 423.33,447.609 c 0,0 6.363,-4.073 6.445,-12.217 l 4.598,0.926 c 4.005,0.807 6.341,5.003 4.917,8.832 -1.144,3.074 -4.36,4.853 -7.572,4.19 l -8.388,-1.731"
       style="fill:#fed8bf;fill-opacity:1;fill-rule:nonzero;stroke:none;stroke-width:0.1"
       id="path102" /><path
       d="m 459.928,409.526 c -1.741,-2.292 -4.344,-3.96 -7.442,-4.438 l -2.915,-0.475 -23.537,-3.649 c -0.495,-0.054 -0.971,-0.128 -1.448,-0.109 -1.247,-0.073 -2.511,0.128 -3.666,0.477 h -0.019 c -0.165,0.054 -0.329,0.109 -0.495,0.183 h -0.018 c -2.291,0.806 -4.289,2.346 -5.646,4.344 -0.916,1.283 -1.521,2.767 -1.815,4.399 v 0.037 c -0.036,0.091 -0.054,0.184 -0.073,0.293 l -0.348,2.237 c -0.477,3.171 0.385,6.269 2.182,8.671 l 0.164,0.219 c 0.165,0.256 0.385,0.513 0.605,0.752 1.283,1.357 2.897,2.42 4.711,3.042 h 0.037 c 0.605,0.239 1.246,0.367 1.924,0.478 l 2.182,0.329 8.652,1.357 15.655,2.419 c 1.008,0.148 1.98,0.184 2.951,0.093 5.078,-0.532 9.386,-4.418 10.192,-9.697 l 0.348,-2.238 c 0.496,-3.208 -0.366,-6.305 -2.181,-8.724"
       style="fill:#fed2b5;fill-opacity:1;fill-rule:nonzero;stroke:none;stroke-width:0.1"
       id="path104" /><path
       d="m 466.894,387.657 c -1.155,-1.118 -2.53,-2.017 -4.106,-2.567 -0.458,-0.183 -0.916,-0.33 -1.412,-0.422 l -25.81,-5.847 -0.311,-0.092 c -1.302,-0.294 -2.603,-0.349 -3.832,-0.201 -2.859,0.311 -5.462,1.705 -7.35,3.812 -1.247,1.393 -2.163,3.135 -2.622,5.078 l -0.494,2.218 c -0.954,4.272 0.568,8.524 3.629,11.219 1.412,1.228 3.116,2.145 5.06,2.566 l 17.872,4.069 8.268,1.87 c 1.411,0.311 2.804,0.348 4.142,0.166 4.62,-0.661 8.561,-4.07 9.642,-8.855 l 0.514,-2.217 c 0.917,-4.071 -0.44,-8.084 -3.19,-10.797"
       style="fill:#fed2b5;fill-opacity:1;fill-rule:nonzero;stroke:none;stroke-width:0.1"
       id="path106" /><path
       d="m 472.21,368.482 c -1.118,-1.191 -2.529,-2.107 -4.216,-2.676 L 451.79,360.38 h -0.019 l -6.746,-2.274 c -3.281,-1.1 -6.764,-0.458 -9.367,1.431 -1.741,1.228 -3.079,2.988 -3.831,5.132 l -0.642,1.943 c -1.558,4.693 0.367,9.697 4.381,12.209 0.661,0.403 1.394,0.751 2.182,1.008 l 22.987,7.699 c 0.146,0.055 0.311,0.11 0.458,0.129 1.925,0.568 3.887,0.512 5.701,0 3.19,-0.9 5.903,-3.319 7.039,-6.692 l 0.66,-1.979 c 1.246,-3.777 0.22,-7.773 -2.383,-10.504"
       style="fill:#fed2b5;fill-opacity:1;fill-rule:nonzero;stroke:none;stroke-width:0.1"
       id="path108" /><path
       d="m 420.872,421.091 c 0,0 5.192,-4.539 5.337,-15.08 l 3.884,0.667 c 4.542,0.78 7.471,5.244 6.377,9.721 -1.006,4.114 -5.062,6.718 -9.221,5.918 l -6.377,-1.226"
       style="fill:#fed8bf;fill-opacity:1;fill-rule:nonzero;stroke:none;stroke-width:0.1"
       id="path110" /><path
       d="m 429.71,399.124 c 0,0 5.192,-4.54 5.337,-15.081 l 3.885,0.666 c 4.541,0.78 7.471,5.246 6.377,9.722 -1.006,4.114 -5.062,6.717 -9.222,5.918 l -6.377,-1.225"
       style="fill:#fed8bf;fill-opacity:1;fill-rule:nonzero;stroke:none;stroke-width:0.1"
       id="path112" /><path
       d="m 438.03,377.131 c 0,0 4.665,-4.077 4.795,-13.548 l 3.49,0.599 c 4.08,0.7 6.712,4.712 5.729,8.734 -0.903,3.697 -4.547,6.035 -8.284,5.317 l -5.73,-1.102"
       style="fill:#fed8bf;fill-opacity:1;fill-rule:nonzero;stroke:none;stroke-width:0.1"
       id="path114" /><path
       d="m 402.057,421.807 c 0,0 -0.953,-5.39 -2.951,-13.052 -0.44,-1.814 -0.972,-3.775 -1.558,-5.811 v -0.018 c -0.257,-0.898 -0.514,-1.778 -0.789,-2.695 -0.678,-2.218 -1.393,-4.49 -2.181,-6.782 -3.208,-9.385 -7.442,-19.082 -12.758,-25.866 -3.593,-4.564 -7.663,-7.808 -12.227,-8.651 -14.683,-2.695 -26.91,12.904 -26.415,29.457 0.11,4.931 1.375,9.954 4.032,14.592 0.642,1.118 1.32,2.2 2.054,3.281 l 0.128,0.166 c 0.11,0.182 0.22,0.348 0.367,0.53 0.073,0.111 0.164,0.22 0.22,0.331 2.694,3.813 5.847,7.278 9.147,10.357 2.456,2.273 4.967,4.345 7.442,6.196 1.467,1.118 2.933,2.145 4.326,3.098 0.844,0.55 1.669,1.1 2.457,1.576 0.403,0.257 0.806,0.513 1.228,0.77 0.403,0.238 0.788,0.476 1.155,0.715 2.731,1.632 5.004,2.86 6.507,3.629 0.367,0.165 0.66,0.312 0.935,0.459 0.734,0.329 1.137,0.532 1.137,0.532 0.385,0.091 0.77,0.146 1.154,0.182 0.349,0.056 0.697,0.092 1.045,0.147 h 0.037 0.036 0.019 c 3.996,0.349 6.984,-0.659 9.184,-2.328 2.475,-1.796 4.033,-4.344 4.949,-6.543 1.027,-2.366 1.32,-4.272 1.32,-4.272"
       style="fill:#fed2b5;fill-opacity:1;fill-rule:nonzero;stroke:none;stroke-width:0.1"
       id="path116" /><path
       d="m 407.135,422.98 -2.11,-3.453 c -0.903,-1.477 -0.609,-3.37 0.697,-4.506 3.73,-3.244 11.569,-8.751 18.17,-4.709 7.05,4.315 -6.175,11.227 -12.289,14.04 -1.626,0.748 -3.535,0.155 -4.468,-1.372"
       style="fill:#fedec9;fill-opacity:1;fill-rule:nonzero;stroke:none;stroke-width:0.1"
       id="path118" /><path
       d="m 419.765,418.269 -5.077,3.227 -4.95,3.134 h -0.037 l -0.018,0.019 -1.888,1.227 -8.066,5.096 c -1.228,0.789 -2.584,1.358 -3.941,1.65 -1.98,0.459 -4.051,0.404 -5.976,-0.091 -0.715,-0.073 -1.467,-0.147 -2.255,-0.312 0,0 -4.106,-1.851 -9.788,-5.389 l -0.019,0.018 h -0.019 l -0.127,-0.11 c -1.907,-1.173 -3.997,-2.567 -6.16,-4.124 h -0.018 c -3.63,-2.621 -7.479,-5.775 -11.035,-9.386 -2.42,-2.364 -4.657,-4.932 -6.691,-7.735 -0.11,-0.128 -0.202,-0.276 -0.312,-0.405 -0.257,-0.347 -0.495,-0.696 -0.751,-1.062 -3.905,-5.041 -7.058,-10.302 -9.459,-15.637 -2.42,-5.279 -4.143,-10.632 -5.261,-15.911 -0.312,-1.484 -0.55,-2.97 -0.77,-4.454 l -3.795,-2.108 -92.7,-51.969 v 8.47 l 93.214,47.971 0.036,0.019 c 0.22,1.504 0.495,3.006 0.788,4.509 0.147,0.678 0.294,1.357 0.458,2.053 0.147,0.642 0.312,1.283 0.478,1.925 2.493,9.238 6.91,18.588 13.638,27.368 l 0.128,0.166 c 0.11,0.182 0.22,0.348 0.367,0.53 0.073,0.111 0.164,0.22 0.22,0.331 l 0.165,0.183 c 0.109,0.165 0.201,0.293 0.311,0.422 0.642,0.898 1.32,1.76 2.017,2.62 0.219,0.258 0.44,0.496 0.623,0.752 1.925,2.274 3.978,4.363 6.049,6.325 2.438,2.291 4.968,4.38 7.424,6.251 l 0.055,0.018 c 1.485,1.1 2.915,2.144 4.345,3.098 0.806,0.532 1.613,1.063 2.383,1.558 0.403,0.257 0.806,0.513 1.228,0.77 0.403,0.238 0.788,0.476 1.155,0.715 2.731,1.632 5.004,2.86 6.507,3.629 0.367,0.165 0.66,0.312 0.935,0.459 0.734,0.329 1.137,0.532 1.137,0.532 0.385,0.091 0.77,0.146 1.154,0.182 0.349,0.056 0.697,0.092 1.045,0.147 h 0.037 0.036 0.019 l 0.019,0.019 c 0.329,0.073 0.714,0.147 1.063,0.22 h 0.018 0.037 c 0.275,0.037 0.568,0.072 0.824,0.11 1.559,0.128 3.153,-0.018 4.657,-0.458 0.348,-0.092 0.678,-0.203 0.989,-0.331 0.331,-0.128 0.679,-0.257 1.009,-0.421 0.165,-0.074 0.311,-0.147 0.476,-0.238 0.275,-0.146 0.532,-0.294 0.788,-0.458 l 11.842,-7.535 h 0.019 l 1.869,-1.173 0.019,-0.018 4.619,-2.952 2.328,-1.484 c 0.477,-0.294 0.917,-0.606 1.338,-0.936 0.441,-0.348 0.844,-0.677 1.247,-1.026"
       style="fill:#fedfcb;fill-opacity:1;fill-rule:nonzero;stroke:none;stroke-width:0.1"
       id="path120" /><path
       d="m 699.307,761.827 -28.614,-36.525 c -1.437,-1.847 -3.648,-2.713 -5.791,-2.531 -1.254,0.114 -2.463,0.571 -3.511,1.391 -2.896,2.258 -3.397,6.43 -1.14,9.302 l 28.613,36.549 c 2.258,2.894 6.43,3.397 9.303,1.14 2.895,-2.258 3.396,-6.43 1.14,-9.326"
       style="fill:#b2b2b2;fill-opacity:1;fill-rule:nonzero;stroke:none;stroke-width:0.1"
       id="path122" /><path
       d="m 762.165,685.563 -41.108,-21.546 c -1.162,-0.592 -2.439,-0.82 -3.648,-0.729 -2.188,0.181 -4.218,1.458 -5.312,3.533 -1.687,3.238 -0.456,7.251 2.804,8.961 l 41.108,21.523 c 3.238,1.686 7.25,0.455 8.96,-2.804 1.687,-3.238 0.433,-7.251 -2.804,-8.938"
       style="fill:#b2b2b2;fill-opacity:1;fill-rule:nonzero;stroke:none;stroke-width:0.1"
       id="path124" /><path
       d="m 790.847,614.086 -45.576,-8.778 c -0.616,-0.113 -1.232,-0.159 -1.825,-0.091 -2.872,0.25 -5.358,2.371 -5.927,5.358 -0.707,3.579 1.664,7.068 5.244,7.752 l 45.576,8.778 c 3.602,0.707 7.068,-1.643 7.774,-5.245 0.684,-3.601 -1.664,-7.09 -5.266,-7.774"
       style="fill:#b2b2b2;fill-opacity:1;fill-rule:nonzero;stroke:none;stroke-width:0.1"
       id="path126" /><path
       d="m 797.709,538.87 c -0.364,-3.602 -3.579,-6.246 -7.182,-5.951 l -0.09,0.023 -46.17,4.72 c -3.648,0.365 -6.292,3.625 -5.928,7.25 0.365,3.648 3.625,6.339 7.273,5.928 l 46.17,-4.697 c 3.648,-0.388 6.292,-3.625 5.927,-7.273"
       style="fill:#b2b2b2;fill-opacity:1;fill-rule:nonzero;stroke:none;stroke-width:0.1"
       id="path128" /><path
       d="m 781.339,453.395 c -1.14,-2.736 -3.899,-4.31 -6.68,-4.081 -0.684,0.067 -1.345,0.228 -1.984,0.501 l -42.863,17.784 c -3.374,1.412 -4.993,5.289 -3.579,8.687 1.413,3.374 5.289,4.993 8.663,3.579 l 42.864,-17.807 c 3.374,-1.414 4.993,-5.289 3.579,-8.663"
       style="fill:#b2b2b2;fill-opacity:1;fill-rule:nonzero;stroke:none;stroke-width:0.1"
       id="path130" /><path
       d="M 1526.23,684.776 H 908.524 c -12.034,0 -21.801,-9.766 -21.801,-21.8 V 266.195 c 0,-3.608 0.874,-7.022 2.428,-10.016 1.667,-3.22 4.117,-5.977 7.089,-8.008 3.505,-2.393 7.724,-3.788 12.284,-3.788 h 617.706 c 4.56,0 8.78,1.395 12.29,3.788 2.97,2.031 5.42,4.788 7.09,8.008 1.55,2.994 2.42,6.408 2.42,10.016 v 396.781 c 0,12.034 -9.76,21.8 -21.8,21.8"
       style="fill:#293444;fill-opacity:1;fill-rule:nonzero;stroke:none;stroke-width:0.1"
       id="path132" /><path
       d="m 1615.77,253.125 c 0,1.688 -2.07,3.057 -4.63,3.057 H 823.611 c -2.553,0 -4.623,-1.369 -4.623,-3.057 v -5.351 c 0,-3.036 1.26,-5.947 3.724,-8.654 8.721,-10.066 30.961,-17.278 46.777,-17.278 h 29.84 636.101 29.84 c 15.81,0 38.05,7.212 46.77,17.278 2.47,2.707 3.73,5.618 3.73,8.654 v 5.351"
       style="fill:#dae3ea;fill-opacity:1;fill-rule:nonzero;stroke:none;stroke-width:0.1"
       id="path134" /><path
       d="m 827.214,235.005 c 10.435,-7.857 28.713,-13.163 42.275,-13.163 h 29.84 636.101 29.84 c 13.56,0 31.83,5.306 42.27,13.163 H 827.214"
       style="fill:#b9ccdb;fill-opacity:1;fill-rule:nonzero;stroke:none;stroke-width:0.1"
       id="path136" /><path
       d="M 1611.14,256.182 H 823.611 c -2.553,0 -4.623,-1.369 -4.623,-3.057 v -4.956 h 796.782 v 4.956 c 0,1.688 -2.07,3.057 -4.63,3.057"
       style="fill:#ffffff;fill-opacity:1;fill-rule:nonzero;stroke:none;stroke-width:0.1"
       id="path138" /><path
       d="m 1261.46,256.182 h -88.17 c 0,-4.425 3.59,-8.013 8.01,-8.013 h 72.15 c 4.43,0 8.01,3.588 8.01,8.013"
       style="fill:#b9ccdb;fill-opacity:1;fill-rule:nonzero;stroke:none;stroke-width:0.1"
       id="path140" /><path
       d="m 1283.77,669.389 h -6.67 c -1.97,0 -3.56,1.589 -3.56,3.55 0,1.961 1.59,3.551 3.56,3.551 h 6.67 c 1.96,0 3.56,-1.59 3.56,-3.551 0,-1.961 -1.6,-3.55 -3.56,-3.55"
       style="fill:#4f586a;fill-opacity:1;fill-rule:nonzero;stroke:none;stroke-width:0.1"
       id="path142" /><path
       d="M 1521.07,662.25 H 913.684 c -1.645,0 -2.983,-1.338 -2.983,-2.983 V 293.043 c 0,-1.645 1.338,-2.984 2.983,-2.984 h 607.386 c 1.65,0 2.97,1.339 2.97,2.984 v 366.224 c 0,1.645 -1.32,2.983 -2.97,2.983"
       style="fill:#8cd8ff;fill-opacity:1;fill-rule:nonzero;stroke:none;stroke-width:0.1"
       id="path144" /><path
       d="M 1456.12,662.251 H 913.685 c -1.646,0 -2.984,-1.338 -2.984,-2.984 V 293.043 c 0,-1.646 1.338,-2.984 2.984,-2.984 h 205.445 l 336.99,372.192"
       style="fill:#a0dfff;fill-opacity:1;fill-rule:nonzero;stroke:none;stroke-width:0.1"
       id="path146" /><path
       d="m 1524.04,659.267 c 0,1.645 -1.32,2.983 -2.97,2.983 h -64.95 v 10e-4 h 64.95 c 1.65,0 2.97,-1.338 2.97,-2.984"
       style="fill:#1f6c85;fill-opacity:1;fill-rule:nonzero;stroke:none;stroke-width:0.1"
       id="path148" /><path
       d="m 1524.04,647.427 h -81.34 l 13.42,14.824 64.95,-10e-4 c 1.65,0 2.97,-1.338 2.97,-2.983 v 0 -11.84"
       style="fill:#66c8ff;fill-opacity:1;fill-rule:nonzero;stroke:none;stroke-width:0.1"
       id="path150" /><path
       d="m 923.192,290.059 h -9.507 c -1.646,0 -2.984,1.338 -2.984,2.984 v 366.224 c 0,1.646 1.338,2.984 2.984,2.984 h 542.435 l -13.42,-14.824 h -160.39 c -5.12,4.84 -10.04,9.779 -14.87,14.824 h -97.95 c -1.99,-4.751 -3.99,-9.698 -6.01,-14.824 H 926.175 c -1.645,0 -2.983,-1.338 -2.983,-2.982 V 290.059"
       style="fill:#66c8ff;fill-opacity:1;fill-rule:nonzero;stroke:none;stroke-width:0.1"
       id="path152" /><path
       d="m 1521.07,290.059 h -82.03 82.03 c 1.65,0 2.97,1.339 2.97,2.984 v 34.931 -34.931 c 0,-1.646 -1.32,-2.984 -2.97,-2.984"
       style="fill:#1f6c85;fill-opacity:1;fill-rule:nonzero;stroke:none;stroke-width:0.1"
       id="path154" /><path
       d="m 1521.07,290.059 h -82.03 l -27.06,19.351 c -5.7,0.167 -11.38,1.099 -16.62,2.364 -0.73,0.185 -1.47,0.367 -2.2,0.552 -0.42,0.109 -0.84,0.219 -1.25,0.33 -0.4,0.109 -0.8,0.218 -1.21,0.329 -1.76,0.494 -3.44,1.026 -5.04,1.577 -0.51,0.164 -1.04,0.347 -1.54,0.512 -0.53,0.184 -1.03,0.367 -1.52,0.532 -0.16,0.073 -0.35,0.147 -0.51,0.202 -0.48,0.183 -0.92,0.348 -1.36,0.513 -0.68,0.238 -1.32,0.476 -1.91,0.715 -0.77,0.311 -1.48,0.605 -2.14,0.879 -0.22,0.093 -0.42,0.184 -0.64,0.276 -0.35,0.129 -0.68,0.294 -0.97,0.423 -0.63,0.273 -1.18,0.512 -1.67,0.75 -0.26,0.109 -0.51,0.201 -0.72,0.312 -0.22,0.091 -0.42,0.183 -0.58,0.294 -0.66,0.274 -1.08,0.512 -1.29,0.568 -0.11,0.09 -0.14,0.109 -0.14,0.109 -0.22,0.164 -0.42,0.312 -0.63,0.476 -0.47,-0.274 -0.97,-0.495 -1.43,-0.733 -6.19,-3.039 -12.93,-6.045 -21.39,-6.045 -2.31,0 -4.75,0.223 -7.33,0.729 -16.04,3.135 -31,11.86 -32.21,26.509 -0.62,7.552 1.71,15.011 5.06,22.034 -2.6,2.729 -3.63,6.725 -2.38,10.502 l 0.66,1.979 c 1.13,3.373 3.85,5.793 7.04,6.691 -2.75,2.714 -4.11,6.728 -3.19,10.798 l 0.51,2.218 c 1.08,4.786 5.02,8.194 9.64,8.854 -1.81,2.419 -2.67,5.518 -2.18,8.724 l 0.35,2.239 c 0.81,5.278 5.11,9.164 10.19,9.696 -3.43,2.456 -5.39,6.69 -4.67,11.128 l 0.35,2.253 c 0.89,5.689 5.79,9.743 11.38,9.743 0.58,0 1.18,-0.045 1.78,-0.138 l 4.51,-0.697 0.05,0.186 c 0.24,0.659 0.42,1.282 0.55,1.941 0.48,1.943 0.77,3.888 0.9,5.72 0.04,0.623 0.05,1.229 0.05,1.814 0.02,0.203 0,0.404 0.02,0.606 -21.04,4.344 -39.59,6.617 -56.58,7.314 -3.95,0.163 -7.8,0.241 -11.59,0.241 -0.75,0 -1.49,-0.003 -2.23,-0.009 l 104.81,115.749 c 11.11,-5.164 23.14,-10.305 36.26,-15.454 0.65,1.918 2.44,3.137 4.36,3.137 0.46,0 0.93,-0.072 1.39,-0.222 l 49.26,-15.379 c 18.17,-5.684 29.73,-22.585 29.5,-40.696 10.76,-10.064 15.45,-25.792 10.76,-40.823 -4.71,-15.07 -17.57,-25.298 -32.21,-27.422 -7.82,-11.415 -20.86,-18.279 -34.67,-18.279 -4.16,0 -8.38,0.622 -12.55,1.928 l -4.99,1.538 c -0.11,-0.679 -0.24,-1.356 -0.37,-2.036 -0.12,-0.549 -0.23,-1.082 -0.34,-1.649 -0.24,-1.1 -0.48,-2.218 -0.76,-3.317 -0.77,-3.318 -1.66,-6.562 -2.53,-9.717 3.3,-3.077 6.46,-6.544 9.15,-10.356 7.19,-9.037 11.84,-18.771 14.36,-28.394 0.16,-0.642 0.33,-1.283 0.47,-1.927 0.17,-0.694 0.31,-1.373 0.46,-2.052 0.35,-1.521 0.61,-3.042 0.83,-4.527 l 72.95,-37.548 v -34.931 c 0,-1.645 -1.32,-2.984 -2.97,-2.984"
       style="fill:#66c8ff;fill-opacity:1;fill-rule:nonzero;stroke:none;stroke-width:0.1"
       id="path156" /><path
       d="m 1124.97,433.302 c -2.41,0 -4.51,0.657 -6.38,1.246 h -0.01 l -0.02,-0.01 v 0.01 c -9.12,2.966 -4.06,50.218 12.15,111.95 v 0.016 l -15.56,8.125 c -7.57,3.954 -11.22,12.798 -8.66,20.982 l 13.42,42.939 c 2.33,7.475 9.24,12.45 16.88,12.45 0.72,0 1.45,-0.044 2.18,-0.135 l 17.43,-2.184 c 2.36,6.469 4.72,12.725 7.08,18.736 h 118.83 c 3.06,-2.891 6.18,-5.748 9.41,-8.571 23.26,-20.382 51.16,-39.174 90.99,-57.687 L 1277.9,465.42 c -18.41,-0.149 -35.21,-2.143 -51.83,-5.237 -28.05,-5.206 -55.58,-13.564 -89.49,-21.593 l -0.02,-0.007 c -4.57,-4.102 -8.36,-5.281 -11.59,-5.281"
       style="fill:#66c8ff;fill-opacity:1;fill-rule:nonzero;stroke:none;stroke-width:0.1"
       id="path158" /><path
       d="m 1282.31,647.427 h -118.83 c 2.02,5.126 4.02,10.073 6.01,14.824 h 97.95 c 4.83,-5.045 9.75,-9.984 14.87,-14.824"
       style="fill:#15aec9;fill-opacity:1;fill-rule:nonzero;stroke:none;stroke-width:0.1"
       id="path160" /><path
       d="m 1380.6,341.129 11.06,-7.901 0.07,-0.055 60.29,-43.114 h 70.03 c 1.1,0 1.99,0.861 1.99,1.925 v 49.329 l -93.21,47.972 -0.04,0.018 -4.01,2.072 -4.89,2.51 -39.11,-49.969 -2.18,-2.787"
       style="fill:#fed2b5;fill-opacity:1;fill-rule:nonzero;stroke:none;stroke-width:0.1"
       id="path162" /><path
       d="m 1341.32,368.479 c -0.11,-4.747 0.4,-9.165 1.59,-12.996 0.11,-0.385 0.26,-0.771 0.39,-1.156 0.07,-0.256 0.18,-0.476 0.26,-0.714 0.09,-0.276 0.22,-0.531 0.33,-0.807 0.58,-1.356 1.26,-2.603 2.05,-3.758 0.22,-0.33 0.44,-0.642 0.68,-0.934 0.18,-0.277 0.38,-0.514 0.6,-0.77 0.17,-0.22 0.35,-0.404 0.55,-0.588 0.26,-0.311 0.53,-0.586 0.83,-0.824 0.22,-0.22 0.42,-0.422 0.66,-0.624 0.16,-0.146 0.35,-0.274 0.53,-0.421 0.2,-0.165 0.4,-0.311 0.62,-0.476 0,0 0.04,-0.019 0.15,-0.111 0.2,-0.055 0.62,-0.293 1.28,-0.568 0.17,-0.109 0.37,-0.201 0.59,-0.293 0.2,-0.11 0.46,-0.202 0.71,-0.312 0.5,-0.238 1.05,-0.476 1.67,-0.751 0.29,-0.128 0.63,-0.293 0.97,-0.422 0.22,-0.091 0.42,-0.183 0.64,-0.275 0.66,-0.275 1.38,-0.568 2.15,-0.88 0.59,-0.238 1.23,-0.476 1.91,-0.715 0.44,-0.165 0.88,-0.33 1.35,-0.513 0.17,-0.055 0.35,-0.128 0.52,-0.201 0.49,-0.166 0.99,-0.349 1.52,-0.532 0.49,-0.166 1.02,-0.348 1.54,-0.514 1.59,-0.549 3.28,-1.081 5.04,-1.576 0.4,-0.11 0.8,-0.22 1.21,-0.33 0.4,-0.11 0.82,-0.219 1.24,-0.33 0.74,-0.183 1.47,-0.367 2.2,-0.55 5.25,-1.265 10.93,-2.2 16.63,-2.365 4.31,-0.128 8.6,0.165 12.74,1.064 1.28,0.275 2.57,0.604 3.83,1.008 14.72,4.711 25.01,25.627 23.04,49.567 -0.12,1.485 -0.27,2.988 -0.51,4.473 -0.22,1.485 -0.48,3.006 -0.82,4.527 -0.15,0.679 -0.3,1.357 -0.46,2.054 -0.15,0.641 -0.31,1.283 -0.48,1.924 -2.51,9.624 -7.17,19.358 -14.35,28.395 l -0.17,0.184 c -0.11,0.165 -0.2,0.293 -0.31,0.422 -1.91,2.401 -4.05,4.747 -6.36,7.039 -0.81,0.805 -1.65,1.539 -2.46,2.217 -3.97,3.227 -8.06,4.968 -12.15,5.462 h -0.02 c -1.87,0.203 -3.74,0.166 -5.59,-0.109 -7.73,-1.118 -15.34,-6.27 -22.07,-13.749 -1.74,-1.924 -3.45,-4.014 -5.02,-6.213 -0.68,-0.88 -1.34,-1.815 -1.96,-2.732 l -0.02,-0.037 c -0.5,-0.733 -1.01,-1.485 -1.49,-2.254 v -0.018 c -3.44,-5.426 -6.49,-11.384 -8.96,-17.507 -0.72,-1.797 -1.39,-3.63 -2.02,-5.48 -0.11,-0.257 -0.2,-0.514 -0.25,-0.77 -1.36,-4.052 -2.46,-8.158 -3.23,-12.154 -0.13,-0.66 -0.24,-1.339 -0.35,-1.98 -0.11,-0.678 -0.22,-1.375 -0.33,-2.052 -0.11,-0.662 -0.18,-1.321 -0.26,-1.981 -0.01,-0.183 -0.03,-0.367 -0.05,-0.55 -0.02,-0.182 -0.04,-0.384 -0.05,-0.568 -0.17,-1.668 -0.26,-3.3 -0.28,-4.876"
       style="fill:#fed2b5;fill-opacity:1;fill-rule:nonzero;stroke:none;stroke-width:0.1"
       id="path164" /><path
       d="m 1341.32,368.479 c -0.11,-4.747 0.4,-9.165 1.59,-12.996 0.11,-0.385 0.26,-0.771 0.39,-1.156 0.07,-0.256 0.18,-0.476 0.26,-0.714 0.09,-0.276 0.22,-0.531 0.33,-0.807 0.58,-1.356 1.26,-2.603 2.05,-3.758 0.22,-0.33 0.44,-0.642 0.68,-0.934 0.18,-0.277 0.38,-0.514 0.6,-0.77 0.17,-0.22 0.35,-0.404 0.55,-0.588 0.26,-0.311 0.53,-0.586 0.83,-0.824 0.22,-0.22 0.42,-0.422 0.66,-0.624 0.16,-0.146 0.35,-0.274 0.53,-0.421 0.2,-0.165 0.4,-0.311 0.62,-0.476 0,0 0.04,-0.019 0.15,-0.111 0.2,-0.055 0.62,-0.293 1.28,-0.568 0.17,-0.109 0.37,-0.201 0.59,-0.293 0.2,-0.11 0.46,-0.202 0.71,-0.312 0.5,-0.238 1.05,-0.476 1.67,-0.751 0.29,-0.128 0.63,-0.293 0.97,-0.422 0.22,-0.091 0.42,-0.183 0.64,-0.275 0.66,-0.275 1.38,-0.568 2.15,-0.88 0.59,-0.238 1.23,-0.476 1.91,-0.715 0.44,-0.165 0.88,-0.33 1.35,-0.513 0.17,-0.055 0.35,-0.128 0.52,-0.201 0.49,-0.166 0.99,-0.349 1.52,-0.532 0.49,-0.166 1.02,-0.348 1.54,-0.514 1.59,-0.513 3.28,-1.044 5.02,-1.557 l 0.02,-0.019 c 0.4,-0.11 0.8,-0.22 1.21,-0.33 0.4,-0.11 0.82,-0.219 1.24,-0.33 0.74,-0.183 1.47,-0.367 2.2,-0.55 5.23,-1.209 10.89,-2.126 16.56,-2.31 l 0.07,-0.055 60.29,-43.114 h 7.41 l -54.96,44.178 -0.04,0.018 c 0,0 9.81,7.131 9.24,16.846 -0.49,8.268 -20.6,-10.962 -30.89,-7.185 -1.77,0.66 -3.24,1.998 -4.28,4.234 -4.79,10.468 5.59,18.533 4.71,35.195 -0.04,0.735 -0.31,1.412 -0.81,2.035 -2,2.64 -7.64,4.437 -15.49,5.591 -5.19,0.77 -11.31,1.283 -17.96,1.559 h -0.02 c -1.03,0.054 -2.06,0.073 -3.06,0.11 -1.36,-4.052 -2.46,-8.158 -3.23,-12.154 -0.13,-0.66 -0.24,-1.339 -0.35,-1.98 -0.11,-0.678 -0.22,-1.375 -0.33,-2.052 -0.09,-0.679 -0.18,-1.302 -0.24,-1.981 v -0.017 c -0.02,-0.166 -0.05,-0.35 -0.07,-0.533 -0.02,-0.182 -0.04,-0.384 -0.05,-0.568 -0.17,-1.668 -0.26,-3.3 -0.28,-4.876"
       style="fill:#ffc49c;fill-opacity:1;fill-rule:nonzero;stroke:none;stroke-width:0.1"
       id="path166" /><path
       d="m 1417.82,496.943 c 3.44,-12.611 13.05,-23.262 26.47,-27.479 5.84,-1.814 11.8,-2.217 17.48,-1.392 14.65,2.126 27.5,12.355 32.21,27.423 4.69,15.031 0,30.759 -10.76,40.823 -2.09,1.925 -4.38,3.684 -6.87,5.133 h -0.02 c -1.96,1.192 -4.09,2.2 -6.31,3.043 H 1470 c -0.66,0.257 -1.35,0.476 -2.07,0.715 -13.42,4.161 -27.38,0.88 -37.39,-7.571 -5.61,-4.674 -9.96,-10.98 -12.3,-18.477 -2.33,-7.479 -2.37,-15.16 -0.42,-22.218"
       style="fill:#1a16c5;fill-opacity:1;fill-rule:nonzero;stroke:none;stroke-width:0.1"
       id="path168" /><path
       d="m 1481.17,514.166 c -0.45,-1.43 1.63,-3.351 4.64,-4.291 3,-0.94 5.8,-0.544 6.25,0.885 0.45,1.429 -1.63,3.35 -4.64,4.29 -3.01,0.941 -5.81,0.545 -6.25,-0.884"
       style="fill:#c9e4f2;fill-opacity:1;fill-rule:nonzero;stroke:none;stroke-width:0.1"
       id="path170" /><path
       d="m 1476.99,500.804 c -0.45,-1.429 1.63,-3.35 4.64,-4.29 3.01,-0.941 5.81,-0.545 6.25,0.884 0.45,1.43 -1.63,3.35 -4.63,4.291 -3.01,0.94 -5.81,0.544 -6.26,-0.885"
       style="fill:#c9e4f2;fill-opacity:1;fill-rule:nonzero;stroke:none;stroke-width:0.1"
       id="path172" /><path
       d="m 1472.81,487.442 c -0.44,-1.429 1.63,-3.35 4.64,-4.29 3.01,-0.941 5.81,-0.545 6.26,0.885 0.44,1.429 -1.63,3.35 -4.64,4.29 -3.01,0.941 -5.81,0.544 -6.26,-0.885"
       style="fill:#c9e4f2;fill-opacity:1;fill-rule:nonzero;stroke:none;stroke-width:0.1"
       id="path174" /><path
       d="m 1334.57,450.675 c 4.11,0.642 8.58,1.999 12.98,4.18 1.47,0.696 2.9,1.503 4.31,2.401 6.31,3.979 7.39,10.669 5.45,17.415 -0.54,1.888 -1.33,3.758 -2.28,5.554 -0.79,1.485 -1.68,2.933 -2.68,4.308 -1.02,1.412 -2.16,2.768 -3.39,4.014 -0.4,0.404 -0.8,0.826 -1.22,1.211 -0.3,0.311 -0.61,0.604 -0.92,0.861 -0.95,0.861 -1.98,1.668 -3.01,2.347 -0.35,0.256 -0.69,0.494 -1.04,0.714 -0.33,0.22 -0.7,0.404 -1.05,0.605 -1.04,0.624 -2.12,1.118 -3.2,1.54 -0.35,0.146 -0.72,0.275 -1.09,0.366 -0.34,0.128 -0.71,0.239 -1.08,0.331 -3.68,0.934 -7.38,0.623 -10.67,-1.485 0,0 0.37,-0.935 0.83,-2.512 0.02,-0.073 0.04,-0.128 0.04,-0.238 l 0.03,0.018 c 0.59,-2.218 1.32,-5.572 1.43,-9.495 0.04,-0.367 0.04,-0.769 0.06,-1.173 0,-0.184 0,-0.385 -0.04,-0.605 0,-0.587 -0.02,-1.192 -0.05,-1.815 -0.12,-1.869 -0.39,-3.795 -0.9,-5.719 -0.13,-0.66 -0.31,-1.284 -0.55,-1.944 l -0.06,-0.182 c -1.13,-3.428 -3,-6.856 -5.92,-9.991 -7.53,-8.084 1.45,-12.74 14.02,-10.706"
       style="fill:#e6f7ff;fill-opacity:1;fill-rule:nonzero;stroke:none;stroke-width:0.1"
       id="path176" /><path
       d="m 1328.01,482.81 c 0.04,-0.404 0.04,-0.769 0.04,-1.173 -0.02,-0.202 0,-0.403 -0.02,-0.605 0,-0.587 -0.02,-1.192 -0.05,-1.815 -0.13,-1.833 -0.43,-3.776 -0.9,-5.719 -0.13,-0.66 -0.31,-1.284 -0.55,-1.944 l 21.61,-1.319 8.82,-0.514 0.82,2.64 c -0.13,0.769 -0.33,1.558 -0.55,2.328 v 0.019 c -0.53,1.834 -1.28,3.666 -2.24,5.444 -0.76,1.521 -1.66,2.988 -2.69,4.399 -1.03,1.411 -2.13,2.75 -3.34,3.996 -0.4,0.404 -0.8,0.826 -1.22,1.211 -0.3,0.311 -0.61,0.604 -0.92,0.861 -0.97,0.861 -1.98,1.65 -3.01,2.347 -0.35,0.256 -0.69,0.494 -1.04,0.714 -0.33,0.22 -0.7,0.404 -1.05,0.605 -1.04,0.624 -2.12,1.118 -3.2,1.54 -0.35,0.146 -0.72,0.275 -1.09,0.366 -0.34,0.128 -0.71,0.239 -1.08,0.331 -3.68,0.934 -7.38,0.623 -10.67,-1.485 0,0 0.37,-0.935 0.83,-2.512 0.02,-0.073 0.04,-0.128 0.07,-0.22 0.59,-2.218 1.32,-5.572 1.43,-9.495"
       style="fill:#ceeaf7;fill-opacity:1;fill-rule:nonzero;stroke:none;stroke-width:0.1"
       id="path178" /><path
       d="m 1287.43,365.344 c 1.21,-14.646 16.17,-23.372 32.2,-26.506 12.08,-2.365 20.85,1.449 28.73,5.316 0.46,0.238 0.95,0.458 1.43,0.733 15.62,8.268 25.35,23.995 32.61,40.493 0.16,0.385 0.31,0.734 0.48,1.1 0.55,1.266 1.08,2.512 1.59,3.776 5.24,12.758 15.25,25.609 18.99,38.88 0.28,0.99 0.57,1.999 0.85,2.989 0.38,1.301 0.75,2.603 1.11,3.922 0.06,0.147 0.08,0.293 0.13,0.441 l 0.02,0.054 c 0.86,3.154 1.76,6.398 2.53,9.716 0.28,1.099 0.51,2.218 0.75,3.318 0.11,0.568 0.22,1.099 0.35,1.65 0.13,0.678 0.26,1.356 0.37,2.034 0.29,1.559 0.55,3.098 0.73,4.657 0.09,0.549 0.17,1.099 0.22,1.649 0.07,0.733 0.15,1.466 0.2,2.218 0.17,1.705 0.22,3.41 0.22,5.078 0.02,0.825 -0.02,1.649 -0.05,2.474 -0.02,0.331 -0.04,0.697 -0.06,1.045 -0.05,0.698 -0.11,1.412 -0.2,2.108 -0.07,0.679 -0.18,1.32 -0.28,1.999 -0.09,0.476 -0.16,0.99 -0.27,1.485 -0.33,1.686 -0.81,3.299 -1.63,4.802 -4.62,8.304 -29.75,12.025 -39.62,13.199 -2.47,0.293 -3.97,0.421 -3.97,0.421 l -7.65,-11.053 c -0.73,-1.027 -1.44,-2.072 -2.18,-3.117 l -0.04,-0.073 c -0.95,-1.356 -1.88,-2.75 -2.87,-4.125 -1.32,-1.924 -2.66,-3.85 -3.98,-5.792 -1.05,-1.484 -2.09,-2.988 -3.12,-4.474 -3.48,-5.021 -6.96,-10.062 -10.45,-15.086 -0.64,-0.917 -1.26,-1.833 -1.88,-2.73 -0.32,-0.441 -0.65,-0.917 -0.96,-1.375 -0.35,-0.495 -0.71,-0.99 -1.08,-1.504 -0.22,-0.349 -0.49,-0.714 -0.75,-1.081 -4.18,-5.902 -8.47,-11.733 -12.72,-17.599 -0.7,-0.953 -1.4,-1.924 -2.05,-2.877 -4.02,-5.554 -7.92,-11.164 -11.63,-16.956 -0.56,-0.844 -1.1,-1.706 -1.59,-2.566 -0.7,-1.082 -1.36,-2.145 -2,-3.227 -2.53,-4.161 -5.19,-8.671 -7.42,-13.382 -3.36,-7.02 -5.69,-14.481 -5.06,-22.034"
       style="fill:#1ec200;fill-opacity:1;fill-rule:nonzero;stroke:none;stroke-width:0.1"
       id="path180" /><path
       d="m 1329.84,443.985 h 0.06 l 14.59,0.421 h 0.04 l 11.82,0.348 h 0.02 l 0.53,0.019 7.06,0.201 23,0.679 h 0.02 l 0.11,-0.019 6.64,0.22 0.07,-0.018 14.3,0.422 c 0.28,1.099 0.51,2.218 0.75,3.318 0.11,0.568 0.22,1.099 0.35,1.65 0.13,0.678 0.26,1.356 0.37,2.034 0.29,1.559 0.55,3.098 0.73,4.657 0.09,0.549 0.17,1.099 0.22,1.649 0.07,0.733 0.15,1.466 0.2,2.218 0.17,1.705 0.22,3.41 0.22,5.078 0.02,0.825 -0.02,1.649 -0.05,2.474 -0.02,0.331 -0.04,0.697 -0.06,1.045 -0.05,0.698 -0.11,1.412 -0.2,2.108 -0.07,0.679 -0.18,1.32 -0.28,1.999 -0.09,0.476 -0.16,0.99 -0.27,1.485 -0.33,1.686 -0.81,3.299 -1.63,4.802 -4.62,8.304 -29.75,12.025 -39.62,13.199 -2.47,0.293 -3.97,0.421 -3.97,0.421 l -7.65,-11.053 c -0.73,-1.027 -1.44,-2.072 -2.18,-3.117 l -0.04,-0.073 c -0.95,-1.356 -1.88,-2.75 -2.87,-4.125 -1.32,-1.924 -2.66,-3.85 -3.98,-5.792 -1.05,-1.484 -2.09,-2.988 -3.12,-4.474 -3.48,-5.021 -6.96,-10.062 -10.45,-15.086 -0.64,-0.917 -1.26,-1.833 -1.88,-2.73 -0.32,-0.441 -0.65,-0.917 -0.96,-1.375 -0.35,-0.495 -0.71,-0.99 -1.08,-1.504 l -0.81,-1.081"
       style="fill:#1da600;fill-opacity:1;fill-rule:nonzero;stroke:none;stroke-width:0.1"
       id="path182" /><path
       d="m 1098.31,458.301 0.03,0.019 c 6.2,1.338 12.17,2.677 17.98,4.032 33.92,8.029 61.45,16.388 89.5,21.594 20.67,3.85 41.63,5.995 65.64,5.005 16.99,-0.697 35.54,-2.97 56.59,-7.314 h 0.02 c 7.66,-1.595 15.65,-3.447 24.05,-5.61 1.68,-0.402 3.39,-0.88 5.11,-1.319 v -0.019 l 0.08,-0.018 c 1.68,-0.44 3.37,-0.898 5.07,-1.357 6.42,-1.777 13.02,-3.702 19.87,-5.811 0.94,-0.293 1.85,-0.513 2.79,-0.696 0.31,-0.073 0.64,-0.129 0.99,-0.166 0.75,-0.145 1.5,-0.219 2.27,-0.274 0.72,-0.055 1.45,-0.074 2.17,-0.055 0.47,0 0.91,0.018 1.39,0.037 0.86,0.055 1.7,0.164 2.53,0.312 0.4,0.073 0.8,0.146 1.21,0.219 0.73,0.165 1.45,0.349 2.16,0.568 5.06,1.504 9.39,4.547 12.32,8.525 1.36,1.814 2.38,3.848 3.06,6.012 l 4.68,14.958 12.72,40.695 4.69,15.014 c 1.76,5.554 0.88,11.602 -2.05,16.883 l -0.02,0.036 c -0.92,1.686 -2.07,3.3 -3.43,4.802 -2.97,3.318 -6.91,6.05 -11.64,7.773 -6.71,2.438 -13.18,4.876 -19.38,7.333 -60.16,23.61 -97.5,47.073 -127.25,73.14 -25.1,21.997 -44.78,45.864 -68.19,73.288 -1.41,1.632 -2.81,3.281 -4.24,4.968 -1.11,1.283 -2.21,2.548 -3.33,3.868 l -0.08,0.036 -0.01,0.018 v 0.018 c -1.12,1.303 -2.24,2.604 -3.39,3.923 l -0.02,0.019 c -0.74,0.88 -1.49,1.741 -2.26,2.621 h -0.02 l -11.25,-35.983 -0.44,-1.375 0.02,-0.037 -0.06,-0.147 v -0.018 l -20.07,-64.122 v -0.019 l -28.01,-89.657 -20.07,-64.195 -0.02,-0.055 -11.71,-37.469"
       style="fill:#e6f7ff;fill-opacity:1;fill-rule:nonzero;stroke:none;stroke-width:0.1"
       id="path184" /><path
       d="m 1098.31,458.301 0.03,0.019 c 6.2,1.338 12.17,2.677 17.98,4.032 33.92,8.029 61.45,16.388 89.5,21.594 20.67,3.85 41.63,5.995 65.64,5.005 16.99,-0.697 35.54,-2.97 56.59,-7.314 h 0.02 c 7.66,-1.595 15.65,-3.447 24.05,-5.61 1.68,-0.402 3.39,-0.88 5.11,-1.319 v -0.019 l 0.08,-0.018 c 1.68,-0.44 3.37,-0.898 5.07,-1.357 6.42,-1.777 13.02,-3.702 19.87,-5.811 0.94,-0.293 1.85,-0.513 2.79,-0.696 0.31,-0.073 0.64,-0.129 0.99,-0.166 0.75,-0.145 1.5,-0.219 2.27,-0.274 0.72,-0.055 1.45,-0.074 2.17,-0.055 0.47,0 0.91,0.018 1.39,0.037 0.86,0.055 1.7,0.164 2.53,0.312 0.4,0.073 0.8,0.146 1.21,0.219 5.85,1.284 10.96,4.565 14.3,9.019 -5.28,0.275 -10.56,0.66 -15.9,1.228 -9.88,1.045 -19.57,2.566 -29.03,4.528 -2.61,0.531 -5.19,1.099 -7.76,1.687 -1.63,0.385 -3.24,0.787 -4.86,1.191 l -0.05,0.018 c -8.8,2.2 -17.38,4.803 -25.72,7.754 l -0.03,-0.018 c -19.91,7.021 -38.41,16.04 -55.09,26.672 -37.27,23.72 -65.51,55.488 -80.44,91.142 -2.53,6.012 -4.67,12.135 -6.39,18.331 -0.77,2.713 -1.47,5.426 -2.06,8.175 v 0.019 c -0.97,4.381 -1.74,8.817 -2.29,13.271 v 0.019 0.036 c -1.39,10.889 -1.54,21.98 -0.35,33.162 0.37,3.262 0.81,6.47 1.4,9.66 2.2,12.593 6.1,24.674 11.45,36.094 l 0.02,0.037 0.02,0.017 c 1.41,3.099 2.97,6.141 4.64,9.166 l 0.02,0.019 c 0.49,0.934 1.02,1.851 1.55,2.768 -1.11,1.283 -2.21,2.548 -3.33,3.868 l -0.08,0.036 -0.01,0.018 v 0.018 c -1.12,1.303 -2.24,2.604 -3.39,3.923 l -0.02,0.019 c -0.74,0.88 -1.49,1.741 -2.26,2.621 h -0.02 l -11.25,-35.983 -0.44,-1.375 0.02,-0.037 -0.06,-0.165 -20.07,-64.122 v -0.019 l -28.01,-89.657 -20.07,-64.195 -0.02,-0.055 -11.71,-37.469"
       style="fill:#d6f2ff;fill-opacity:1;fill-rule:nonzero;stroke:none;stroke-width:0.1"
       id="path186" /><path
       d="m 1098.31,458.31 0.03,0.002 c 4.37,-1.38 9.99,-3.134 17.98,4.05 12.39,11.131 30.47,43.824 58.33,132.94 3.73,11.961 7.05,22.975 9.98,33.138 1.04,3.648 2.04,7.197 2.99,10.622 15.4,55.709 18.04,83.019 15.64,96.84 -2.19,12.592 -8.57,13.996 -13.32,15.474 l -0.02,-0.002 c -3.22,0.995 -8.11,-3.507 -14.03,-12.341 -11,-16.363 -25.55,-47.625 -39.75,-86.582 -1.24,-3.364 -2.44,-6.771 -3.65,-10.249 -1.33,-3.752 -2.66,-7.576 -3.95,-11.467 -2.09,-6.231 -4.15,-12.601 -6.19,-19.087 -4.45,-14.248 -8.43,-28.131 -11.9,-41.363 v -0.022 c -16.2,-61.745 -21.26,-109.002 -12.14,-111.953"
       style="fill:#1ec200;fill-opacity:1;fill-rule:nonzero;stroke:none;stroke-width:0.1"
       id="path188" /><path
       d="m 1132.14,608.594 c -20.28,-64.886 -32.82,-118.708 -28,-120.214 4.82,-1.505 25.17,49.874 45.45,114.76 20.28,64.886 32.82,118.708 28,120.214 -4.82,1.505 -25.17,-49.874 -45.45,-114.76"
       style="fill:#1c9900;fill-opacity:1;fill-rule:nonzero;stroke:none;stroke-width:0.1"
       id="path190" /><path
       d="m 1118.72,654.637 27.41,-3.435 17.06,-2.151 c -3.94,-14.173 -8.56,-29.722 -13.62,-45.928 -5.07,-16.205 -10.11,-31.559 -14.95,-45.452 l -15.24,7.943 -24.49,12.788 c -7.56,3.953 -11.22,12.799 -8.66,20.983 l 13.42,42.937 c 2.56,8.184 10.6,13.372 19.07,12.315"
       style="fill:#e6f7ff;fill-opacity:1;fill-rule:nonzero;stroke:none;stroke-width:0.1"
       id="path192" /><path
       d="m 1114.53,641.473 c -1,-3.209 4.85,-7.894 13.07,-10.465 8.23,-2.57 15.71,-2.052 16.71,1.157 1,3.209 -4.85,7.895 -13.07,10.465 -8.23,2.57 -15.71,2.053 -16.71,-1.157"
       style="fill:#ffffff;fill-opacity:1;fill-rule:nonzero;stroke:none;stroke-width:0.1"
       id="path194" /><path
       d="m 1365.32,467.1 44.25,-13.84 4.98,-1.539 c 18.04,-5.646 37.05,1.502 47.22,16.351 2.29,3.373 4.15,7.112 5.43,11.219 l 14.08,45.093 c 1.24,3.979 1.89,7.974 1.94,11.934 0.24,18.111 -11.33,35.013 -29.49,40.696 l -49.26,15.379 c -2.38,0.77 -4.95,-0.532 -5.76,-2.914 l -0.05,-0.129 -29.83,-95.376 -3.86,-12.319 -2.59,-8.341 -0.13,-0.366 c -0.75,-2.456 0.61,-5.077 3.07,-5.848"
       style="fill:#1ec200;fill-opacity:1;fill-rule:nonzero;stroke:none;stroke-width:0.1"
       id="path196" /><path
       d="m 1471.6,529.499 0.12,-0.038 c 1.56,-0.415 3.16,0.512 3.57,2.066 6.18,23.093 -14.96,36.309 -27,40.073 -1.54,0.48 -3.17,-0.376 -3.65,-1.91 -0.48,-1.538 0.37,-3.172 1.91,-3.658 1.2,-0.382 29.38,-9.554 23.11,-32.995 -0.41,-1.52 0.46,-3.075 1.94,-3.538"
       style="fill:#1ed600;fill-opacity:1;fill-rule:nonzero;stroke:none;stroke-width:0.1"
       id="path198" /><path
       d="m 1429.71,574.349 c 0.62,1.956 2.7,3.046 4.65,2.434 1.96,-0.611 3.05,-2.692 2.44,-4.647 -0.61,-1.956 -2.7,-3.046 -4.65,-2.434 -1.96,0.611 -3.05,2.692 -2.44,4.647"
       style="fill:#1ed600;fill-opacity:1;fill-rule:nonzero;stroke:none;stroke-width:0.1"
       id="path200" /><path
       d="m 1366.23,579.471 c 3.08,-0.96 6.34,0.746 7.31,3.817 0.97,3.076 -0.74,6.35 -3.81,7.317 -94.35,29.683 -140.05,97.41 -140.5,98.094 -1.78,2.676 -5.4,3.419 -8.08,1.649 -2.69,-1.775 -3.43,-5.393 -1.66,-8.078 1.92,-2.918 48.25,-71.816 146.73,-102.796 l 0.01,-0.003"
       style="fill:#ffffff;fill-opacity:1;fill-rule:nonzero;stroke:none;stroke-width:0.1"
       id="path202" /><path
       d="m 1176.15,625.531 c 1.54,-0.481 3.18,0.375 3.66,1.914 5.57,17.81 23.32,78.368 17.96,109.793 -0.27,1.589 -1.78,2.651 -3.37,2.384 -1.58,-0.268 -2.65,-1.779 -2.38,-3.368 4.08,-23.947 -6.51,-71.013 -17.78,-107.068 -0.48,-1.539 0.38,-3.174 1.91,-3.655"
       style="fill:#1ed600;fill-opacity:1;fill-rule:nonzero;stroke:none;stroke-width:0.1"
       id="path204" /><path
       d="m 1189.08,746.388 c 0.56,1.78 2.45,2.772 4.23,2.216 1.78,-0.557 2.77,-2.451 2.22,-4.231 -0.56,-1.78 -2.45,-2.772 -4.23,-2.216 -1.78,0.557 -2.78,2.451 -2.22,4.231"
       style="fill:#1ed600;fill-opacity:1;fill-rule:nonzero;stroke:none;stroke-width:0.1"
       id="path206" /><path
       d="m 1343.81,420.564 34.47,-10.772 c 1.54,-0.481 3.17,0.375 3.65,1.914 0.48,1.539 -0.37,3.173 -1.91,3.654 l -34.47,10.772 c -1.53,0.482 -3.17,-0.375 -3.65,-1.914 -0.48,-1.538 0.38,-3.174 1.91,-3.654"
       style="fill:#1da600;fill-opacity:1;fill-rule:nonzero;stroke:none;stroke-width:0.1"
       id="path208" /><path
       d="m 1328.66,398.868 34.47,-10.773 c 1.53,-0.48 3.17,0.375 3.65,1.914 0.48,1.539 -0.38,3.174 -1.91,3.655 l -34.47,10.772 c -1.54,0.481 -3.17,-0.375 -3.65,-1.914 -0.48,-1.539 0.37,-3.174 1.91,-3.654"
       style="fill:#1da600;fill-opacity:1;fill-rule:nonzero;stroke:none;stroke-width:0.1"
       id="path210" /><path
       d="m 1314.96,376.717 34.46,-10.772 c 1.54,-0.481 3.18,0.375 3.66,1.914 0.48,1.539 -0.38,3.174 -1.92,3.654 l -34.46,10.774 c -1.54,0.48 -3.17,-0.375 -3.65,-1.914 -0.49,-1.54 0.37,-3.175 1.91,-3.656"
       style="fill:#1da600;fill-opacity:1;fill-rule:nonzero;stroke:none;stroke-width:0.1"
       id="path212" /><path
       d="m 1313.13,449.082 c 1.41,-1.028 3.08,-1.725 4.91,-2.037 l 12.61,-1.979 3.61,-0.567 c 2.15,-0.331 4.26,-0.074 6.13,0.713 3.61,1.467 6.39,4.749 7.03,8.873 l 0.13,0.77 0.24,1.503 c 0.55,3.519 -0.57,6.93 -2.77,9.403 -1.72,1.944 -4.08,3.337 -6.83,3.759 l -11.72,1.852 -4.51,0.697 c -6.28,0.971 -12.17,-3.318 -13.16,-9.607 l -0.35,-2.254 c -0.71,-4.436 1.25,-8.67 4.68,-11.126"
       style="fill:#fed2b5;fill-opacity:1;fill-rule:nonzero;stroke:none;stroke-width:0.1"
       id="path214" /><path
       d="m 1369.66,423.211 12.13,7.704 c 5.9,3.75 7.64,11.574 3.89,17.475 -3.75,5.901 -11.57,7.645 -17.47,3.895 l -20.7,-13.152 c -5.9,-3.75 -9.92,-10.383 -6.17,-16.284 6.14,-9.401 22.42,-3.388 28.32,0.362"
       style="fill:#fed2b5;fill-opacity:1;fill-rule:nonzero;stroke:none;stroke-width:0.1"
       id="path216" /><path
       d="m 1341.37,466.505 c 0,0 -6.37,-4.073 -6.45,-12.216 l -4.6,0.925 c -4,0.807 -6.34,5.003 -4.91,8.832 1.14,3.075 4.36,4.854 7.57,4.191 l 8.39,-1.732"
       style="fill:#fed8bf;fill-opacity:1;fill-rule:nonzero;stroke:none;stroke-width:0.1"
       id="path218" /><path
       d="m 1304.77,428.422 c 1.74,-2.292 4.34,-3.96 7.44,-4.437 l 2.92,-0.476 23.53,-3.648 c 0.5,-0.055 0.97,-0.128 1.45,-0.11 1.25,-0.073 2.51,0.128 3.67,0.477 h 0.01 c 0.17,0.055 0.33,0.109 0.5,0.183 h 0.02 c 2.29,0.806 4.29,2.346 5.64,4.344 0.92,1.284 1.53,2.768 1.82,4.4 v 0.037 c 0.04,0.091 0.05,0.183 0.07,0.293 l 0.35,2.236 c 0.48,3.171 -0.38,6.27 -2.18,8.671 l -0.17,0.22 c -0.16,0.256 -0.38,0.513 -0.6,0.752 -1.28,1.356 -2.9,2.42 -4.71,3.042 h -0.04 c -0.6,0.238 -1.25,0.367 -1.92,0.477 l -2.18,0.329 -8.66,1.358 -15.65,2.419 c -1.01,0.147 -1.98,0.183 -2.95,0.093 -5.08,-0.533 -9.39,-4.419 -10.19,-9.698 l -0.35,-2.237 c -0.5,-3.208 0.36,-6.306 2.18,-8.725"
       style="fill:#fed2b5;fill-opacity:1;fill-rule:nonzero;stroke:none;stroke-width:0.1"
       id="path220" /><path
       d="m 1297.8,406.553 c 1.16,-1.118 2.53,-2.016 4.11,-2.566 0.46,-0.184 0.91,-0.33 1.41,-0.422 l 25.81,-5.848 0.31,-0.092 c 1.3,-0.293 2.6,-0.348 3.83,-0.201 2.86,0.312 5.47,1.705 7.35,3.813 1.25,1.392 2.17,3.135 2.62,5.078 l 0.5,2.218 c 0.95,4.271 -0.57,8.523 -3.63,11.218 -1.41,1.229 -3.12,2.145 -5.06,2.567 l -17.87,4.068 -8.27,1.87 c -1.41,0.312 -2.8,0.349 -4.14,0.166 -4.62,-0.661 -8.56,-4.07 -9.64,-8.854 l -0.52,-2.218 c -0.91,-4.07 0.44,-8.084 3.19,-10.797"
       style="fill:#fed2b5;fill-opacity:1;fill-rule:nonzero;stroke:none;stroke-width:0.1"
       id="path222" /><path
       d="m 1292.49,387.378 c 1.11,-1.191 2.53,-2.107 4.21,-2.675 l 16.21,-5.427 h 0.02 l 6.74,-2.274 c 3.28,-1.099 6.77,-0.458 9.37,1.431 1.74,1.229 3.08,2.988 3.83,5.133 l 0.64,1.942 c 1.56,4.694 -0.37,9.698 -4.38,12.209 -0.66,0.404 -1.39,0.751 -2.18,1.008 l -22.99,7.699 c -0.15,0.055 -0.31,0.111 -0.46,0.129 -1.92,0.569 -3.88,0.513 -5.7,0 -3.19,-0.899 -5.9,-3.318 -7.04,-6.691 l -0.66,-1.98 c -1.24,-3.776 -0.22,-7.772 2.39,-10.504"
       style="fill:#fed2b5;fill-opacity:1;fill-rule:nonzero;stroke:none;stroke-width:0.1"
       id="path224" /><path
       d="m 1343.82,439.988 c 0,0 -5.19,-4.539 -5.33,-15.08 l -3.89,0.667 c -4.54,0.779 -7.47,5.244 -6.37,9.72 1,4.115 5.06,6.718 9.22,5.918 l 6.37,-1.225"
       style="fill:#fed8bf;fill-opacity:1;fill-rule:nonzero;stroke:none;stroke-width:0.1"
       id="path226" /><path
       d="m 1334.99,418.019 c 0,0 -5.2,-4.538 -5.34,-15.079 l -3.89,0.666 c -4.54,0.779 -7.47,5.245 -6.37,9.722 1,4.114 5.06,6.716 9.22,5.918 l 6.38,-1.227"
       style="fill:#fed8bf;fill-opacity:1;fill-rule:nonzero;stroke:none;stroke-width:0.1"
       id="path228" /><path
       d="m 1326.67,396.028 c 0,0 -4.67,-4.077 -4.8,-13.548 l -3.49,0.599 c -4.08,0.7 -6.71,4.712 -5.73,8.733 0.91,3.697 4.55,6.035 8.29,5.317 l 5.73,-1.101"
       style="fill:#fed8bf;fill-opacity:1;fill-rule:nonzero;stroke:none;stroke-width:0.1"
       id="path230" /><path
       d="m 1362.64,440.704 c 0,0 0.95,-5.39 2.95,-13.053 0.44,-1.814 0.97,-3.776 1.56,-5.811 v -0.017 c 0.25,-0.899 0.51,-1.779 0.79,-2.696 0.67,-2.217 1.39,-4.49 2.18,-6.782 3.21,-9.386 7.44,-19.082 12.76,-25.865 3.59,-4.564 7.66,-7.809 12.22,-8.652 14.69,-2.695 26.91,12.905 26.42,29.458 -0.11,4.93 -1.38,9.954 -4.03,14.591 -0.65,1.119 -1.32,2.201 -2.06,3.282 l -0.13,0.165 c -0.11,0.182 -0.22,0.348 -0.36,0.531 -0.08,0.11 -0.17,0.22 -0.22,0.33 -2.7,3.814 -5.85,7.278 -9.15,10.357 -2.46,2.274 -4.97,4.345 -7.44,6.197 -1.47,1.118 -2.94,2.144 -4.33,3.097 -0.84,0.55 -1.67,1.1 -2.45,1.577 -0.41,0.256 -0.81,0.512 -1.23,0.769 -0.41,0.238 -0.79,0.477 -1.16,0.716 -2.73,1.632 -5,2.859 -6.51,3.629 -0.36,0.165 -0.65,0.311 -0.93,0.459 -0.73,0.329 -1.14,0.531 -1.14,0.531 -0.38,0.092 -0.77,0.147 -1.15,0.183 -0.35,0.055 -0.7,0.092 -1.05,0.146 h -0.03 -0.04 -0.02 c -3.99,0.35 -6.98,-0.659 -9.18,-2.328 -2.48,-1.796 -4.03,-4.344 -4.95,-6.544 -1.03,-2.364 -1.32,-4.27 -1.32,-4.27"
       style="fill:#fed2b5;fill-opacity:1;fill-rule:nonzero;stroke:none;stroke-width:0.1"
       id="path232" /><path
       d="m 1357.56,441.876 2.11,-3.453 c 0.9,-1.476 0.61,-3.37 -0.7,-4.506 -3.73,-3.244 -11.57,-8.75 -18.17,-4.709 -7.05,4.316 6.18,11.227 12.29,14.041 1.63,0.748 3.54,0.155 4.47,-1.373"
       style="fill:#fedec9;fill-opacity:1;fill-rule:nonzero;stroke:none;stroke-width:0.1"
       id="path234" /><path
       d="m 1344.93,437.166 5.08,3.226 4.95,3.134 h 0.03 l 0.02,0.019 1.89,1.228 8.07,5.096 c 1.23,0.789 2.58,1.357 3.94,1.649 1.98,0.459 4.05,0.404 5.97,-0.091 0.72,-0.073 1.47,-0.146 2.26,-0.311 0,0 4.1,-1.852 9.79,-5.39 l 0.02,0.019 h 0.01 l 0.13,-0.111 c 1.91,-1.173 4,-2.566 6.16,-4.125 h 0.02 c 3.63,-2.62 7.48,-5.773 11.04,-9.384 2.42,-2.365 4.65,-4.932 6.69,-7.736 0.11,-0.128 0.2,-0.275 0.31,-0.404 0.25,-0.348 0.49,-0.696 0.75,-1.063 3.9,-5.041 7.06,-10.301 9.46,-15.636 2.42,-5.28 4.14,-10.632 5.26,-15.911 0.31,-1.485 0.55,-2.97 0.77,-4.455 l 3.79,-2.108 92.7,-51.969 v 8.47 l -93.21,47.972 -0.04,0.018 c -0.22,1.504 -0.49,3.006 -0.78,4.509 -0.15,0.679 -0.3,1.357 -0.46,2.054 -0.15,0.641 -0.31,1.283 -0.48,1.924 -2.49,9.239 -6.91,18.588 -13.64,27.369 l -0.13,0.165 c -0.11,0.182 -0.22,0.348 -0.36,0.531 -0.08,0.11 -0.17,0.22 -0.22,0.33 l -0.17,0.184 c -0.11,0.165 -0.2,0.293 -0.31,0.422 -0.64,0.897 -1.32,1.759 -2.02,2.62 -0.22,0.256 -0.44,0.496 -0.62,0.752 -1.92,2.273 -3.98,4.363 -6.05,6.325 -2.44,2.291 -4.97,4.38 -7.42,6.251 l -0.06,0.017 c -1.48,1.101 -2.91,2.145 -4.34,3.098 -0.81,0.532 -1.61,1.064 -2.38,1.559 -0.41,0.256 -0.81,0.512 -1.23,0.769 -0.41,0.238 -0.79,0.477 -1.16,0.716 -2.73,1.632 -5,2.859 -6.51,3.629 -0.36,0.165 -0.65,0.311 -0.93,0.459 -0.73,0.329 -1.14,0.531 -1.14,0.531 -0.38,0.092 -0.77,0.147 -1.15,0.183 -0.35,0.055 -0.7,0.092 -1.05,0.146 h -0.03 -0.04 -0.02 l -0.02,0.02 c -0.33,0.073 -0.71,0.146 -1.06,0.219 h -0.02 -0.03 c -0.28,0.038 -0.57,0.073 -0.83,0.111 -1.56,0.128 -3.15,-0.019 -4.65,-0.458 -0.35,-0.093 -0.68,-0.203 -1,-0.331 -0.33,-0.128 -0.67,-0.257 -1,-0.421 -0.17,-0.074 -0.32,-0.148 -0.48,-0.238 -0.27,-0.148 -0.53,-0.294 -0.79,-0.458 l -11.84,-7.536 h -0.02 l -1.87,-1.172 -0.02,-0.019 -4.62,-2.951 -2.32,-1.485 c -0.48,-0.294 -0.92,-0.605 -1.34,-0.935 -0.44,-0.349 -0.85,-0.678 -1.25,-1.026"
       style="fill:#fedfcb;fill-opacity:1;fill-rule:nonzero;stroke:none;stroke-width:0.1"
       id="path236" /><path
       d="m 1071.97,778.13 28.62,-36.525 c 1.43,-1.847 3.64,-2.713 5.79,-2.531 1.25,0.114 2.46,0.571 3.51,1.391 2.89,2.258 3.4,6.43 1.14,9.302 l -28.61,36.548 c -2.26,2.895 -6.43,3.397 -9.31,1.141 -2.89,-2.258 -3.39,-6.431 -1.14,-9.326"
       style="fill:#b2b2b2;fill-opacity:1;fill-rule:nonzero;stroke:none;stroke-width:0.1"
       id="path238" /><path
       d="m 1009.11,701.866 41.11,-21.546 c 1.17,-0.592 2.44,-0.82 3.65,-0.729 2.19,0.181 4.22,1.458 5.31,3.533 1.69,3.237 0.46,7.251 -2.8,8.961 l -41.11,21.522 c -3.24,1.687 -7.25,0.456 -8.96,-2.804 -1.69,-3.237 -0.43,-7.251 2.8,-8.937"
       style="fill:#b2b2b2;fill-opacity:1;fill-rule:nonzero;stroke:none;stroke-width:0.1"
       id="path240" /><path
       d="m 980.432,630.389 45.578,-8.778 c 0.61,-0.113 1.23,-0.159 1.82,-0.091 2.88,0.25 5.36,2.371 5.93,5.358 0.71,3.579 -1.66,7.068 -5.24,7.751 l -45.579,8.778 c -3.603,0.707 -7.068,-1.642 -7.775,-5.244 -0.684,-3.601 1.665,-7.091 5.266,-7.774"
       style="fill:#b2b2b2;fill-opacity:1;fill-rule:nonzero;stroke:none;stroke-width:0.1"
       id="path242" /><path
       d="m 973.57,555.172 c 0.365,-3.602 3.58,-6.246 7.181,-5.95 l 0.092,0.023 46.167,4.72 c 3.65,0.365 6.3,3.624 5.93,7.249 -0.36,3.648 -3.63,6.339 -7.27,5.929 l -46.172,-4.698 c -3.648,-0.387 -6.292,-3.624 -5.928,-7.273"
       style="fill:#b2b2b2;fill-opacity:1;fill-rule:nonzero;stroke:none;stroke-width:0.1"
       id="path244" /><path
       d="m 989.94,469.698 c 1.14,-2.737 3.898,-4.31 6.681,-4.081 0.683,0.067 1.344,0.227 1.983,0.501 l 42.866,17.784 c 3.37,1.412 4.99,5.289 3.58,8.686 -1.42,3.375 -5.29,4.994 -8.67,3.58 l -42.86,-17.807 c -3.375,-1.414 -4.993,-5.289 -3.58,-8.663"
       style="fill:#b2b2b2;fill-opacity:1;fill-rule:nonzero;stroke:none;stroke-width:0.1"
       id="path246" /></g></svg>
